%TF.GenerationSoftware,KiCad,Pcbnew,7.0.8*%
%TF.CreationDate,2024-02-01T15:10:07+01:00*%
%TF.ProjectId,SMD Microcontroller Schematics,534d4420-4d69-4637-926f-636f6e74726f,rev?*%
%TF.SameCoordinates,Original*%
%TF.FileFunction,Component,L1,Top*%
%TF.FilePolarity,Positive*%
%FSLAX46Y46*%
G04 Gerber Fmt 4.6, Leading zero omitted, Abs format (unit mm)*
G04 Created by KiCad (PCBNEW 7.0.8) date 2024-02-01 15:10:07*
%MOMM*%
%LPD*%
G01*
G04 APERTURE LIST*
%TA.AperFunction,ComponentMain*%
%ADD10C,0.300000*%
%TD*%
%TA.AperFunction,ComponentOutline,Courtyard*%
%ADD11C,0.100000*%
%TD*%
%TA.AperFunction,ComponentPin*%
%ADD12P,0.360000X4X0.000000*%
%TD*%
%TA.AperFunction,ComponentPin*%
%ADD13C,0.100000*%
%TD*%
G04 APERTURE END LIST*
D10*
%TO.C,"J2"*%
%TO.CFtp,"JST_XH_B2B-XH-A_1x02_P2.50mm_Vertical"*%
%TO.CVal,"Data (RX TX)"*%
%TO.CLbN,"Connector_JST"*%
%TO.CMnt,TH*%
%TO.CRot,180*%
X73000000Y-35000000D03*
D11*
X75949999Y-31100001D02*
X75949999Y-37849999D01*
X67550001Y-37849999D01*
X67550001Y-31100001D01*
X75949999Y-31100001D01*
D12*
%TO.P,"J2","1","Pin_1"*%
X73000000Y-35000000D03*
D13*
%TO.P,"J2","2","Pin_2"*%
X70500000Y-35000000D03*
%TD*%
D10*
%TO.C,"U2"*%
%TO.CFtp,"SOIC-8_3.9x4.9mm_P1.27mm"*%
%TO.CVal,"MCP6002-xP"*%
%TO.CLbN,"Package_SO"*%
%TO.CMnt,SMD*%
%TO.CRot,180*%
X89200000Y-65400000D03*
D11*
X92899999Y-62700001D02*
X92899999Y-68099999D01*
X85500001Y-68099999D01*
X85500001Y-62700001D01*
X92899999Y-62700001D01*
D12*
%TO.P,"U2","1"*%
X91675000Y-67305000D03*
D13*
%TO.P,"U2","2","-"*%
X91675000Y-66035000D03*
%TO.P,"U2","3","+"*%
X91675000Y-64765000D03*
%TO.P,"U2","4","V-"*%
X91675000Y-63495000D03*
%TO.P,"U2","5"*%
X86725000Y-63495000D03*
%TO.P,"U2","6"*%
X86725000Y-64765000D03*
%TO.P,"U2","7"*%
X86725000Y-66035000D03*
%TO.P,"U2","8","V+"*%
X86725000Y-67305000D03*
%TD*%
D10*
%TO.C,"J10"*%
%TO.CFtp,"JST_XH_B3B-XH-A_1x03_P2.50mm_Vertical"*%
%TO.CVal,"Throttle HallEffect"*%
%TO.CLbN,"Connector_JST"*%
%TO.CMnt,TH*%
%TO.CRot,-90*%
X104500000Y-76000000D03*
D11*
X107349999Y-73050001D02*
X107349999Y-83949999D01*
X100600001Y-83949999D01*
X100600001Y-73050001D01*
X107349999Y-73050001D01*
D12*
%TO.P,"J10","1","Pin_1"*%
X104500000Y-76000000D03*
D13*
%TO.P,"J10","2","Pin_2"*%
X104500000Y-78500000D03*
%TO.P,"J10","3","Pin_3"*%
X104500000Y-81000000D03*
%TD*%
D10*
%TO.C,"R18"*%
%TO.CFtp,"R_0805_2012Metric"*%
%TO.CVal,"10k"*%
%TO.CLbN,"Resistor_SMD"*%
%TO.CMnt,SMD*%
%TO.CRot,-90*%
X70000000Y-55000000D03*
D11*
X70949999Y-53320001D02*
X70949999Y-56679999D01*
X69050001Y-56679999D01*
X69050001Y-53320001D01*
X70949999Y-53320001D01*
D12*
%TO.P,"R18","1"*%
X70000000Y-54087500D03*
D13*
%TO.P,"R18","2"*%
X70000000Y-55912500D03*
%TD*%
D10*
%TO.C,"J5"*%
%TO.CFtp,"JST_XH_B2B-XH-A_1x02_P2.50mm_Vertical"*%
%TO.CVal,"Bat 1+2 V"*%
%TO.CLbN,"Connector_JST"*%
%TO.CMnt,TH*%
%TO.CRot,180*%
X103000000Y-41775000D03*
D11*
X105949999Y-37875001D02*
X105949999Y-44624999D01*
X97550001Y-44624999D01*
X97550001Y-37875001D01*
X105949999Y-37875001D01*
D12*
%TO.P,"J5","1","Pin_1"*%
X103000000Y-41775000D03*
D13*
%TO.P,"J5","2","Pin_2"*%
X100500000Y-41775000D03*
%TD*%
D10*
%TO.C,"ESP1"*%
%TO.CFtp,"MODULE_ESP32_DEVKIT_V1"*%
%TO.CVal,"ESP32-DEVKIT-V1"*%
%TO.CLbN,"ESP32-DEVKIT-V1"*%
%TO.CMnt,TH*%
%TO.CRot,180*%
X49200000Y-57400000D03*
D11*
X63729999Y-31675001D02*
X63729999Y-83124999D01*
X34720001Y-83124999D01*
X34720001Y-31675001D01*
X63729999Y-31675001D01*
D12*
%TO.P,"ESP1","1","3V3"*%
X61900000Y-72915000D03*
D13*
%TO.P,"ESP1","2","GND"*%
X61900000Y-70375000D03*
%TO.P,"ESP1","3","D15"*%
X61900000Y-67835000D03*
%TO.P,"ESP1","4","D2"*%
X61900000Y-65295000D03*
%TO.P,"ESP1","5","D4"*%
X61900000Y-62755000D03*
%TO.P,"ESP1","6","RX2"*%
X61900000Y-60215000D03*
%TO.P,"ESP1","7","TX2"*%
X61900000Y-57675000D03*
%TO.P,"ESP1","8","D5"*%
X61900000Y-55135000D03*
%TO.P,"ESP1","9","D18"*%
X61900000Y-52595000D03*
%TO.P,"ESP1","10","D19"*%
X61900000Y-50055000D03*
%TO.P,"ESP1","11","D21"*%
X61900000Y-47515000D03*
%TO.P,"ESP1","12","RX0"*%
X61900000Y-44975000D03*
%TO.P,"ESP1","13","TX0"*%
X61900000Y-42435000D03*
%TO.P,"ESP1","14","D22"*%
X61900000Y-39895000D03*
%TO.P,"ESP1","15","D23"*%
X61900000Y-37355000D03*
%TO.P,"ESP1","16","EN"*%
X36500000Y-37355000D03*
%TO.P,"ESP1","17","VP"*%
X36500000Y-39895000D03*
%TO.P,"ESP1","18","VN"*%
X36500000Y-42435000D03*
%TO.P,"ESP1","19","D34"*%
X36500000Y-44975000D03*
%TO.P,"ESP1","20","D35"*%
X36500000Y-47515000D03*
%TO.P,"ESP1","21","D32"*%
X36500000Y-50055000D03*
%TO.P,"ESP1","22","D33"*%
X36500000Y-52595000D03*
%TO.P,"ESP1","23","D25"*%
X36500000Y-55135000D03*
%TO.P,"ESP1","24","D26"*%
X36500000Y-57675000D03*
%TO.P,"ESP1","25","D27"*%
X36500000Y-60215000D03*
%TO.P,"ESP1","26","D14"*%
X36500000Y-62755000D03*
%TO.P,"ESP1","27","D12"*%
X36500000Y-65295000D03*
%TO.P,"ESP1","28","D13"*%
X36500000Y-67835000D03*
%TO.P,"ESP1","29","GND"*%
X36500000Y-70375000D03*
%TO.P,"ESP1","30","VIN"*%
X36500000Y-72915000D03*
%TD*%
D10*
%TO.C,"C2"*%
%TO.CFtp,"C_0805_2012Metric"*%
%TO.CVal,"C"*%
%TO.CLbN,"Capacitor_SMD"*%
%TO.CMnt,SMD*%
%TO.CRot,180*%
X88500000Y-53500000D03*
D11*
X90199999Y-52520001D02*
X90199999Y-54479999D01*
X86800001Y-54479999D01*
X86800001Y-52520001D01*
X90199999Y-52520001D01*
D12*
%TO.P,"C2","1"*%
X89450000Y-53500000D03*
D13*
%TO.P,"C2","2"*%
X87550000Y-53500000D03*
%TD*%
D10*
%TO.C,"U5"*%
%TO.CFtp,"TSSOP-10_3x3mm_P0.5mm"*%
%TO.CVal,"ADS1115IDGS"*%
%TO.CLbN,"Package_SO"*%
%TO.CMnt,SMD*%
%TO.CRot,90*%
X76200000Y-62500000D03*
D11*
X77999999Y-59550001D02*
X77999999Y-65449999D01*
X74400001Y-65449999D01*
X74400001Y-59550001D01*
X77999999Y-59550001D01*
D12*
%TO.P,"U5","1","ADDR"*%
X75200000Y-64650000D03*
D13*
%TO.P,"U5","2","ALERT/RDY"*%
X75700000Y-64650000D03*
%TO.P,"U5","3","GND"*%
X76200000Y-64650000D03*
%TO.P,"U5","4","AIN0"*%
X76700000Y-64650000D03*
%TO.P,"U5","5","AIN1"*%
X77200000Y-64650000D03*
%TO.P,"U5","6","AIN2"*%
X77200000Y-60350000D03*
%TO.P,"U5","7","AIN3"*%
X76700000Y-60350000D03*
%TO.P,"U5","8","VDD"*%
X76200000Y-60350000D03*
%TO.P,"U5","9","SDA"*%
X75700000Y-60350000D03*
%TO.P,"U5","10","SCL"*%
X75200000Y-60350000D03*
%TD*%
D10*
%TO.C,"C4"*%
%TO.CFtp,"C_0805_2012Metric"*%
%TO.CVal,"100nF"*%
%TO.CLbN,"Capacitor_SMD"*%
%TO.CMnt,SMD*%
%TO.CRot,90*%
X72500000Y-51000000D03*
D11*
X73479999Y-49300001D02*
X73479999Y-52699999D01*
X71520001Y-52699999D01*
X71520001Y-49300001D01*
X73479999Y-49300001D01*
D12*
%TO.P,"C4","1"*%
X72500000Y-51950000D03*
D13*
%TO.P,"C4","2"*%
X72500000Y-50050000D03*
%TD*%
D10*
%TO.C,"R8"*%
%TO.CFtp,"R_0805_2012Metric"*%
%TO.CVal,"4.7k"*%
%TO.CLbN,"Resistor_SMD"*%
%TO.CMnt,SMD*%
%TO.CRot,0*%
X96700000Y-65900000D03*
D11*
X98379999Y-64950001D02*
X98379999Y-66849999D01*
X95020001Y-66849999D01*
X95020001Y-64950001D01*
X98379999Y-64950001D01*
D12*
%TO.P,"R8","1"*%
X95787500Y-65900000D03*
D13*
%TO.P,"R8","2"*%
X97612500Y-65900000D03*
%TD*%
D10*
%TO.C,"J4"*%
%TO.CFtp,"JST_XH_B2B-XH-A_1x02_P2.50mm_Vertical"*%
%TO.CVal,"Bat 1V"*%
%TO.CLbN,"Connector_JST"*%
%TO.CMnt,TH*%
%TO.CRot,180*%
X103000000Y-35000000D03*
D11*
X105949999Y-31100001D02*
X105949999Y-37849999D01*
X97550001Y-37849999D01*
X97550001Y-31100001D01*
X105949999Y-31100001D01*
D12*
%TO.P,"J4","1","Pin_1"*%
X103000000Y-35000000D03*
D13*
%TO.P,"J4","2","Pin_2"*%
X100500000Y-35000000D03*
%TD*%
D10*
%TO.C,"R11"*%
%TO.CFtp,"R_0805_2012Metric"*%
%TO.CVal,"47k"*%
%TO.CLbN,"Resistor_SMD"*%
%TO.CMnt,SMD*%
%TO.CRot,0*%
X89200000Y-73400000D03*
D11*
X90879999Y-72450001D02*
X90879999Y-74349999D01*
X87520001Y-74349999D01*
X87520001Y-72450001D01*
X90879999Y-72450001D01*
D12*
%TO.P,"R11","1"*%
X88287500Y-73400000D03*
D13*
%TO.P,"R11","2"*%
X90112500Y-73400000D03*
%TD*%
D10*
%TO.C,"R3"*%
%TO.CFtp,"R_0805_2012Metric"*%
%TO.CVal,"R"*%
%TO.CLbN,"Resistor_SMD"*%
%TO.CMnt,SMD*%
%TO.CRot,0*%
X88500000Y-48500000D03*
D11*
X90179999Y-47550001D02*
X90179999Y-49449999D01*
X86820001Y-49449999D01*
X86820001Y-47550001D01*
X90179999Y-47550001D01*
D12*
%TO.P,"R3","1"*%
X87587500Y-48500000D03*
D13*
%TO.P,"R3","2"*%
X89412500Y-48500000D03*
%TD*%
D10*
%TO.C,"R1"*%
%TO.CFtp,"R_0805_2012Metric"*%
%TO.CVal,"R"*%
%TO.CLbN,"Resistor_SMD"*%
%TO.CMnt,SMD*%
%TO.CRot,180*%
X83412500Y-48500000D03*
D11*
X85092499Y-47550001D02*
X85092499Y-49449999D01*
X81732501Y-49449999D01*
X81732501Y-47550001D01*
X85092499Y-47550001D01*
D12*
%TO.P,"R1","1"*%
X84325000Y-48500000D03*
D13*
%TO.P,"R1","2"*%
X82500000Y-48500000D03*
%TD*%
D10*
%TO.C,"C5"*%
%TO.CFtp,"C_0805_2012Metric"*%
%TO.CVal,"100nF"*%
%TO.CLbN,"Capacitor_SMD"*%
%TO.CMnt,SMD*%
%TO.CRot,-90*%
X72500000Y-62500000D03*
D11*
X73479999Y-60800001D02*
X73479999Y-64199999D01*
X71520001Y-64199999D01*
X71520001Y-60800001D01*
X73479999Y-60800001D01*
D12*
%TO.P,"C5","1"*%
X72500000Y-61550000D03*
D13*
%TO.P,"C5","2"*%
X72500000Y-63450000D03*
%TD*%
D10*
%TO.C,"J7"*%
%TO.CFtp,"JST_XH_B2B-XH-A_1x02_P2.50mm_Vertical"*%
%TO.CVal,"Motor Controller Temp"*%
%TO.CLbN,"Connector_JST"*%
%TO.CMnt,TH*%
%TO.CRot,180*%
X103000000Y-48575000D03*
D11*
X105949999Y-44675001D02*
X105949999Y-51424999D01*
X97550001Y-51424999D01*
X97550001Y-44675001D01*
X105949999Y-44675001D01*
D12*
%TO.P,"J7","1","Pin_1"*%
X103000000Y-48575000D03*
D13*
%TO.P,"J7","2","Pin_2"*%
X100500000Y-48575000D03*
%TD*%
D10*
%TO.C,"U1"*%
%TO.CFtp,"Converter_DCDC_TRACO_TSR-1_THT"*%
%TO.CVal,"TSR_1-2450"*%
%TO.CLbN,"Converter_DCDC"*%
%TO.CMnt,TH*%
%TO.CRot,180*%
X74500000Y-70500000D03*
D11*
X78049999Y-68250001D02*
X78049999Y-76349999D01*
X65850001Y-76349999D01*
X65850001Y-68250001D01*
X78049999Y-68250001D01*
D12*
%TO.P,"U1","1","Vin"*%
X74500000Y-70500000D03*
D13*
%TO.P,"U1","2","GND"*%
X71960000Y-70500000D03*
%TO.P,"U1","3","Vout"*%
X69420000Y-70500000D03*
%TD*%
D10*
%TO.C,"U4"*%
%TO.CFtp,"TSSOP-10_3x3mm_P0.5mm"*%
%TO.CVal,"ADS1115IDGS"*%
%TO.CLbN,"Package_SO"*%
%TO.CMnt,SMD*%
%TO.CRot,-90*%
X76200000Y-51000000D03*
D11*
X77999999Y-48050001D02*
X77999999Y-53949999D01*
X74400001Y-53949999D01*
X74400001Y-48050001D01*
X77999999Y-48050001D01*
D12*
%TO.P,"U4","1","ADDR"*%
X77200000Y-48850000D03*
D13*
%TO.P,"U4","2","ALERT/RDY"*%
X76700000Y-48850000D03*
%TO.P,"U4","3","GND"*%
X76200000Y-48850000D03*
%TO.P,"U4","4","AIN0"*%
X75700000Y-48850000D03*
%TO.P,"U4","5","AIN1"*%
X75200000Y-48850000D03*
%TO.P,"U4","6","AIN2"*%
X75200000Y-53150000D03*
%TO.P,"U4","7","AIN3"*%
X75700000Y-53150000D03*
%TO.P,"U4","8","VDD"*%
X76200000Y-53150000D03*
%TO.P,"U4","9","SDA"*%
X76700000Y-53150000D03*
%TO.P,"U4","10","SCL"*%
X77200000Y-53150000D03*
%TD*%
D10*
%TO.C,"R9"*%
%TO.CFtp,"R_0805_2012Metric"*%
%TO.CVal,"10k"*%
%TO.CLbN,"Resistor_SMD"*%
%TO.CMnt,SMD*%
%TO.CRot,0*%
X96700000Y-68400000D03*
D11*
X98379999Y-67450001D02*
X98379999Y-69349999D01*
X95020001Y-69349999D01*
X95020001Y-67450001D01*
X98379999Y-67450001D01*
D12*
%TO.P,"R9","1"*%
X95787500Y-68400000D03*
D13*
%TO.P,"R9","2"*%
X97612500Y-68400000D03*
%TD*%
D10*
%TO.C,"R19"*%
%TO.CFtp,"R_0805_2012Metric"*%
%TO.CVal,"10k"*%
%TO.CLbN,"Resistor_SMD"*%
%TO.CMnt,SMD*%
%TO.CRot,-90*%
X72500000Y-55000000D03*
D11*
X73449999Y-53320001D02*
X73449999Y-56679999D01*
X71550001Y-56679999D01*
X71550001Y-53320001D01*
X73449999Y-53320001D01*
D12*
%TO.P,"R19","1"*%
X72500000Y-54087500D03*
D13*
%TO.P,"R19","2"*%
X72500000Y-55912500D03*
%TD*%
D10*
%TO.C,"R20"*%
%TO.CFtp,"R_Axial_DIN0204_L3.6mm_D1.6mm_P7.62mm_Horizontal"*%
%TO.CVal,"?"*%
%TO.CLbN,"Resistor_THT"*%
%TO.CMnt,TH*%
%TO.CRot,90*%
X105000000Y-70310000D03*
D11*
X106049999Y-61740001D02*
X106049999Y-71259999D01*
X103950001Y-71259999D01*
X103950001Y-61740001D01*
X106049999Y-61740001D01*
D12*
%TO.P,"R20","1"*%
X105000000Y-70310000D03*
D13*
%TO.P,"R20","2"*%
X105000000Y-62690000D03*
%TD*%
D10*
%TO.C,"R6"*%
%TO.CFtp,"R_0805_2012Metric"*%
%TO.CVal,"R"*%
%TO.CLbN,"Resistor_SMD"*%
%TO.CMnt,SMD*%
%TO.CRot,0*%
X93500000Y-56000000D03*
D11*
X95179999Y-55050001D02*
X95179999Y-56949999D01*
X91820001Y-56949999D01*
X91820001Y-55050001D01*
X95179999Y-55050001D01*
D12*
%TO.P,"R6","1"*%
X92587500Y-56000000D03*
D13*
%TO.P,"R6","2"*%
X94412500Y-56000000D03*
%TD*%
D10*
%TO.C,"J9"*%
%TO.CFtp,"JST_XH_B3B-XH-A_1x03_P2.50mm_Vertical"*%
%TO.CVal,"Motor Controller"*%
%TO.CLbN,"Connector_JST"*%
%TO.CMnt,TH*%
%TO.CRot,-90*%
X91950000Y-33825000D03*
D11*
X94799999Y-30875001D02*
X94799999Y-41774999D01*
X88050001Y-41774999D01*
X88050001Y-30875001D01*
X94799999Y-30875001D01*
D12*
%TO.P,"J9","1","Pin_1"*%
X91950000Y-33825000D03*
D13*
%TO.P,"J9","2","Pin_2"*%
X91950000Y-36325000D03*
%TO.P,"J9","3","Pin_3"*%
X91950000Y-38825000D03*
%TD*%
D10*
%TO.C,"R17"*%
%TO.CFtp,"R_0805_2012Metric"*%
%TO.CVal,"10k"*%
%TO.CLbN,"Resistor_SMD"*%
%TO.CMnt,SMD*%
%TO.CRot,-90*%
X70000000Y-62500000D03*
D11*
X70949999Y-60820001D02*
X70949999Y-64179999D01*
X69050001Y-64179999D01*
X69050001Y-60820001D01*
X70949999Y-60820001D01*
D12*
%TO.P,"R17","1"*%
X70000000Y-61587500D03*
D13*
%TO.P,"R17","2"*%
X70000000Y-63412500D03*
%TD*%
D10*
%TO.C,"R16"*%
%TO.CFtp,"R_0805_2012Metric"*%
%TO.CVal,"10k"*%
%TO.CLbN,"Resistor_SMD"*%
%TO.CMnt,SMD*%
%TO.CRot,90*%
X70000000Y-51000000D03*
D11*
X70949999Y-49320001D02*
X70949999Y-52679999D01*
X69050001Y-52679999D01*
X69050001Y-49320001D01*
X70949999Y-49320001D01*
D12*
%TO.P,"R16","1"*%
X70000000Y-51912500D03*
D13*
%TO.P,"R16","2"*%
X70000000Y-50087500D03*
%TD*%
D10*
%TO.C,"R21"*%
%TO.CFtp,"R_Axial_DIN0204_L3.6mm_D1.6mm_P7.62mm_Horizontal"*%
%TO.CVal,"?"*%
%TO.CLbN,"Resistor_THT"*%
%TO.CMnt,TH*%
%TO.CRot,90*%
X101500000Y-70310000D03*
D11*
X102549999Y-61740001D02*
X102549999Y-71259999D01*
X100450001Y-71259999D01*
X100450001Y-61740001D01*
X102549999Y-61740001D01*
D12*
%TO.P,"R21","1"*%
X101500000Y-70310000D03*
D13*
%TO.P,"R21","2"*%
X101500000Y-62690000D03*
%TD*%
D10*
%TO.C,"C1"*%
%TO.CFtp,"C_0805_2012Metric"*%
%TO.CVal,"C"*%
%TO.CLbN,"Capacitor_SMD"*%
%TO.CMnt,SMD*%
%TO.CRot,0*%
X83412500Y-53500000D03*
D11*
X85112499Y-52520001D02*
X85112499Y-54479999D01*
X81712501Y-54479999D01*
X81712501Y-52520001D01*
X85112499Y-52520001D01*
D12*
%TO.P,"C1","1"*%
X82462500Y-53500000D03*
D13*
%TO.P,"C1","2"*%
X84362500Y-53500000D03*
%TD*%
D10*
%TO.C,"J6"*%
%TO.CFtp,"JST_XH_B2B-XH-A_1x02_P2.50mm_Vertical"*%
%TO.CVal,"Motor Temp"*%
%TO.CLbN,"Connector_JST"*%
%TO.CMnt,TH*%
%TO.CRot,180*%
X103000000Y-55375000D03*
D11*
X105949999Y-51475001D02*
X105949999Y-58224999D01*
X97550001Y-58224999D01*
X97550001Y-51475001D01*
X105949999Y-51475001D01*
D12*
%TO.P,"J6","1","Pin_1"*%
X103000000Y-55375000D03*
D13*
%TO.P,"J6","2","Pin_2"*%
X100500000Y-55375000D03*
%TD*%
D10*
%TO.C,"R12"*%
%TO.CFtp,"R_0805_2012Metric"*%
%TO.CVal,"1k"*%
%TO.CLbN,"Resistor_SMD"*%
%TO.CMnt,SMD*%
%TO.CRot,90*%
X85500000Y-38300000D03*
D11*
X86449999Y-36620001D02*
X86449999Y-39979999D01*
X84550001Y-39979999D01*
X84550001Y-36620001D01*
X86449999Y-36620001D01*
D12*
%TO.P,"R12","1"*%
X85500000Y-39212500D03*
D13*
%TO.P,"R12","2"*%
X85500000Y-37387500D03*
%TD*%
D10*
%TO.C,"J8"*%
%TO.CFtp,"JST_XH_B4B-XH-A_1x04_P2.50mm_Vertical"*%
%TO.CVal,"Current Sensor"*%
%TO.CLbN,"Connector_JST"*%
%TO.CMnt,TH*%
%TO.CRot,-90*%
X96500000Y-73525000D03*
D11*
X99349999Y-70575001D02*
X99349999Y-83974999D01*
X92600001Y-83974999D01*
X92600001Y-70575001D01*
X99349999Y-70575001D01*
D12*
%TO.P,"J8","1","Pin_1"*%
X96500000Y-73525000D03*
D13*
%TO.P,"J8","2","Pin_2"*%
X96500000Y-76025000D03*
%TO.P,"J8","3","Pin_3"*%
X96500000Y-78525000D03*
%TO.P,"J8","4","Pin_4"*%
X96500000Y-81025000D03*
%TD*%
D10*
%TO.C,"R15"*%
%TO.CFtp,"R_0805_2012Metric"*%
%TO.CVal,"10k"*%
%TO.CLbN,"Resistor_SMD"*%
%TO.CMnt,SMD*%
%TO.CRot,-90*%
X67600000Y-62500000D03*
D11*
X68549999Y-60820001D02*
X68549999Y-64179999D01*
X66650001Y-64179999D01*
X66650001Y-60820001D01*
X68549999Y-60820001D01*
D12*
%TO.P,"R15","1"*%
X67600000Y-61587500D03*
D13*
%TO.P,"R15","2"*%
X67600000Y-63412500D03*
%TD*%
D10*
%TO.C,"J1"*%
%TO.CFtp,"JST_XH_B2B-XH-A_1x02_P2.50mm_Vertical"*%
%TO.CVal,"Power (9v)"*%
%TO.CLbN,"Connector_JST"*%
%TO.CMnt,TH*%
%TO.CRot,180*%
X72000000Y-81000000D03*
D11*
X74949999Y-77100001D02*
X74949999Y-83849999D01*
X66550001Y-83849999D01*
X66550001Y-77100001D01*
X74949999Y-77100001D01*
D12*
%TO.P,"J1","1","Pin_1"*%
X72000000Y-81000000D03*
D13*
%TO.P,"J1","2","Pin_2"*%
X69500000Y-81000000D03*
%TD*%
D10*
%TO.C,"R5"*%
%TO.CFtp,"R_0805_2012Metric"*%
%TO.CVal,"R"*%
%TO.CLbN,"Resistor_SMD"*%
%TO.CMnt,SMD*%
%TO.CRot,0*%
X93500000Y-58500000D03*
D11*
X95179999Y-57550001D02*
X95179999Y-59449999D01*
X91820001Y-59449999D01*
X91820001Y-57550001D01*
X95179999Y-57550001D01*
D12*
%TO.P,"R5","1"*%
X92587500Y-58500000D03*
D13*
%TO.P,"R5","2"*%
X94412500Y-58500000D03*
%TD*%
D10*
%TO.C,"C3"*%
%TO.CFtp,"C_0805_2012Metric"*%
%TO.CVal,"1u"*%
%TO.CLbN,"Capacitor_SMD"*%
%TO.CMnt,SMD*%
%TO.CRot,180*%
X83200000Y-70400000D03*
D11*
X84899999Y-69420001D02*
X84899999Y-71379999D01*
X81500001Y-71379999D01*
X81500001Y-69420001D01*
X84899999Y-69420001D01*
D12*
%TO.P,"C3","1"*%
X84150000Y-70400000D03*
D13*
%TO.P,"C3","2"*%
X82250000Y-70400000D03*
%TD*%
D10*
%TO.C,"R14"*%
%TO.CFtp,"R_0805_2012Metric"*%
%TO.CVal,"1k"*%
%TO.CLbN,"Resistor_SMD"*%
%TO.CMnt,SMD*%
%TO.CRot,180*%
X83200000Y-73400000D03*
D11*
X84879999Y-72450001D02*
X84879999Y-74349999D01*
X81520001Y-74349999D01*
X81520001Y-72450001D01*
X84879999Y-72450001D01*
D12*
%TO.P,"R14","1"*%
X84112500Y-73400000D03*
D13*
%TO.P,"R14","2"*%
X82287500Y-73400000D03*
%TD*%
D10*
%TO.C,"R2"*%
%TO.CFtp,"R_0805_2012Metric"*%
%TO.CVal,"R"*%
%TO.CLbN,"Resistor_SMD"*%
%TO.CMnt,SMD*%
%TO.CRot,0*%
X83412500Y-51000000D03*
D11*
X85092499Y-50050001D02*
X85092499Y-51949999D01*
X81732501Y-51949999D01*
X81732501Y-50050001D01*
X85092499Y-50050001D01*
D12*
%TO.P,"R2","1"*%
X82500000Y-51000000D03*
D13*
%TO.P,"R2","2"*%
X84325000Y-51000000D03*
%TD*%
D10*
%TO.C,"J3"*%
%TO.CFtp,"JST_XH_B3B-XH-A_1x03_P2.50mm_Vertical"*%
%TO.CVal,"RPM Sensor"*%
%TO.CLbN,"Connector_JST"*%
%TO.CMnt,TH*%
%TO.CRot,180*%
X88500000Y-81000000D03*
D11*
X91449999Y-77100001D02*
X91449999Y-83849999D01*
X80550001Y-83849999D01*
X80550001Y-77100001D01*
X91449999Y-77100001D01*
D12*
%TO.P,"J3","1","Pin_1"*%
X88500000Y-81000000D03*
D13*
%TO.P,"J3","2","Pin_2"*%
X86000000Y-81000000D03*
%TO.P,"J3","3","Pin_3"*%
X83500000Y-81000000D03*
%TD*%
D10*
%TO.C,"R10"*%
%TO.CFtp,"R_0805_2012Metric"*%
%TO.CVal,"10k"*%
%TO.CLbN,"Resistor_SMD"*%
%TO.CMnt,SMD*%
%TO.CRot,180*%
X89200000Y-70400000D03*
D11*
X90879999Y-69450001D02*
X90879999Y-71349999D01*
X87520001Y-71349999D01*
X87520001Y-69450001D01*
X90879999Y-69450001D01*
D12*
%TO.P,"R10","1"*%
X90112500Y-70400000D03*
D13*
%TO.P,"R10","2"*%
X88287500Y-70400000D03*
%TD*%
D10*
%TO.C,"R13"*%
%TO.CFtp,"R_0805_2012Metric"*%
%TO.CVal,"220"*%
%TO.CLbN,"Resistor_SMD"*%
%TO.CMnt,SMD*%
%TO.CRot,-90*%
X85500000Y-33300000D03*
D11*
X86449999Y-31620001D02*
X86449999Y-34979999D01*
X84550001Y-34979999D01*
X84550001Y-31620001D01*
X86449999Y-31620001D01*
D12*
%TO.P,"R13","1"*%
X85500000Y-32387500D03*
D13*
%TO.P,"R13","2"*%
X85500000Y-34212500D03*
%TD*%
D10*
%TO.C,"R7"*%
%TO.CFtp,"R_0805_2012Metric"*%
%TO.CVal,"4.7k"*%
%TO.CLbN,"Resistor_SMD"*%
%TO.CMnt,SMD*%
%TO.CRot,0*%
X96700000Y-63400000D03*
D11*
X98379999Y-62450001D02*
X98379999Y-64349999D01*
X95020001Y-64349999D01*
X95020001Y-62450001D01*
X98379999Y-62450001D01*
D12*
%TO.P,"R7","1"*%
X95787500Y-63400000D03*
D13*
%TO.P,"R7","2"*%
X97612500Y-63400000D03*
%TD*%
D10*
%TO.C,"U3"*%
%TO.CFtp,"DIP-4_W7.62mm"*%
%TO.CVal,"PC817"*%
%TO.CLbN,"Package_DIP"*%
%TO.CMnt,TH*%
%TO.CRot,-90*%
X82275000Y-32500000D03*
D11*
X83824999Y-31400001D02*
X83824999Y-41199999D01*
X78175001Y-41199999D01*
X78175001Y-31400001D01*
X83824999Y-31400001D01*
D12*
%TO.P,"U3","1"*%
X82275000Y-32500000D03*
D13*
%TO.P,"U3","2"*%
X79735000Y-32500000D03*
%TO.P,"U3","3"*%
X79735000Y-40120000D03*
%TO.P,"U3","4"*%
X82275000Y-40120000D03*
%TD*%
D10*
%TO.C,"R4"*%
%TO.CFtp,"R_0805_2012Metric"*%
%TO.CVal,"R"*%
%TO.CLbN,"Resistor_SMD"*%
%TO.CMnt,SMD*%
%TO.CRot,180*%
X88500000Y-51000000D03*
D11*
X90179999Y-50050001D02*
X90179999Y-51949999D01*
X86820001Y-51949999D01*
X86820001Y-50050001D01*
X90179999Y-50050001D01*
D12*
%TO.P,"R4","1"*%
X89412500Y-51000000D03*
D13*
%TO.P,"R4","2"*%
X87587500Y-51000000D03*
%TD*%
M02*
