%TF.GenerationSoftware,KiCad,Pcbnew,7.0.8*%
%TF.CreationDate,2024-02-01T14:46:05+01:00*%
%TF.ProjectId,SMD Microcontroller Schematics,534d4420-4d69-4637-926f-636f6e74726f,rev?*%
%TF.SameCoordinates,Original*%
%TF.FileFunction,Copper,L1,Top*%
%TF.FilePolarity,Positive*%
%FSLAX46Y46*%
G04 Gerber Fmt 4.6, Leading zero omitted, Abs format (unit mm)*
G04 Created by KiCad (PCBNEW 7.0.8) date 2024-02-01 14:46:05*
%MOMM*%
%LPD*%
G01*
G04 APERTURE LIST*
G04 Aperture macros list*
%AMRoundRect*
0 Rectangle with rounded corners*
0 $1 Rounding radius*
0 $2 $3 $4 $5 $6 $7 $8 $9 X,Y pos of 4 corners*
0 Add a 4 corners polygon primitive as box body*
4,1,4,$2,$3,$4,$5,$6,$7,$8,$9,$2,$3,0*
0 Add four circle primitives for the rounded corners*
1,1,$1+$1,$2,$3*
1,1,$1+$1,$4,$5*
1,1,$1+$1,$6,$7*
1,1,$1+$1,$8,$9*
0 Add four rect primitives between the rounded corners*
20,1,$1+$1,$2,$3,$4,$5,0*
20,1,$1+$1,$4,$5,$6,$7,0*
20,1,$1+$1,$6,$7,$8,$9,0*
20,1,$1+$1,$8,$9,$2,$3,0*%
G04 Aperture macros list end*
%TA.AperFunction,ComponentPad*%
%ADD10RoundRect,0.250000X0.600000X0.750000X-0.600000X0.750000X-0.600000X-0.750000X0.600000X-0.750000X0*%
%TD*%
%TA.AperFunction,ComponentPad*%
%ADD11O,1.700000X2.000000*%
%TD*%
%TA.AperFunction,SMDPad,CuDef*%
%ADD12RoundRect,0.150000X0.825000X0.150000X-0.825000X0.150000X-0.825000X-0.150000X0.825000X-0.150000X0*%
%TD*%
%TA.AperFunction,ComponentPad*%
%ADD13RoundRect,0.250000X-0.725000X0.600000X-0.725000X-0.600000X0.725000X-0.600000X0.725000X0.600000X0*%
%TD*%
%TA.AperFunction,ComponentPad*%
%ADD14O,1.950000X1.700000*%
%TD*%
%TA.AperFunction,SMDPad,CuDef*%
%ADD15RoundRect,0.250000X-0.450000X0.262500X-0.450000X-0.262500X0.450000X-0.262500X0.450000X0.262500X0*%
%TD*%
%TA.AperFunction,ComponentPad*%
%ADD16R,2.000000X2.000000*%
%TD*%
%TA.AperFunction,ComponentPad*%
%ADD17C,2.000000*%
%TD*%
%TA.AperFunction,SMDPad,CuDef*%
%ADD18RoundRect,0.250000X0.250000X0.475000X-0.250000X0.475000X-0.250000X-0.475000X0.250000X-0.475000X0*%
%TD*%
%TA.AperFunction,SMDPad,CuDef*%
%ADD19R,0.250000X1.100000*%
%TD*%
%TA.AperFunction,SMDPad,CuDef*%
%ADD20RoundRect,0.250000X0.475000X-0.250000X0.475000X0.250000X-0.475000X0.250000X-0.475000X-0.250000X0*%
%TD*%
%TA.AperFunction,SMDPad,CuDef*%
%ADD21RoundRect,0.250000X-0.262500X-0.450000X0.262500X-0.450000X0.262500X0.450000X-0.262500X0.450000X0*%
%TD*%
%TA.AperFunction,SMDPad,CuDef*%
%ADD22RoundRect,0.250000X0.262500X0.450000X-0.262500X0.450000X-0.262500X-0.450000X0.262500X-0.450000X0*%
%TD*%
%TA.AperFunction,SMDPad,CuDef*%
%ADD23RoundRect,0.250000X-0.475000X0.250000X-0.475000X-0.250000X0.475000X-0.250000X0.475000X0.250000X0*%
%TD*%
%TA.AperFunction,ComponentPad*%
%ADD24R,1.500000X2.500000*%
%TD*%
%TA.AperFunction,ComponentPad*%
%ADD25O,1.500000X2.500000*%
%TD*%
%TA.AperFunction,ComponentPad*%
%ADD26C,1.400000*%
%TD*%
%TA.AperFunction,ComponentPad*%
%ADD27O,1.400000X1.400000*%
%TD*%
%TA.AperFunction,SMDPad,CuDef*%
%ADD28RoundRect,0.250000X0.450000X-0.262500X0.450000X0.262500X-0.450000X0.262500X-0.450000X-0.262500X0*%
%TD*%
%TA.AperFunction,SMDPad,CuDef*%
%ADD29RoundRect,0.250000X-0.250000X-0.475000X0.250000X-0.475000X0.250000X0.475000X-0.250000X0.475000X0*%
%TD*%
%TA.AperFunction,ComponentPad*%
%ADD30RoundRect,0.250000X0.600000X0.725000X-0.600000X0.725000X-0.600000X-0.725000X0.600000X-0.725000X0*%
%TD*%
%TA.AperFunction,ComponentPad*%
%ADD31O,1.700000X1.950000*%
%TD*%
%TA.AperFunction,ComponentPad*%
%ADD32R,1.600000X1.600000*%
%TD*%
%TA.AperFunction,ComponentPad*%
%ADD33O,1.600000X1.600000*%
%TD*%
%TA.AperFunction,ViaPad*%
%ADD34C,0.800000*%
%TD*%
%TA.AperFunction,ViaPad*%
%ADD35C,0.900000*%
%TD*%
%TA.AperFunction,ViaPad*%
%ADD36C,0.950000*%
%TD*%
%TA.AperFunction,Conductor*%
%ADD37C,0.250000*%
%TD*%
%TA.AperFunction,Conductor*%
%ADD38C,0.400000*%
%TD*%
%TA.AperFunction,Conductor*%
%ADD39C,0.200000*%
%TD*%
%TA.AperFunction,Conductor*%
%ADD40C,0.300000*%
%TD*%
%TA.AperFunction,Conductor*%
%ADD41C,0.500000*%
%TD*%
%TA.AperFunction,Conductor*%
%ADD42C,0.210000*%
%TD*%
%TA.AperFunction,Conductor*%
%ADD43C,0.600000*%
%TD*%
G04 APERTURE END LIST*
D10*
%TO.P,J2,1,Pin_1*%
%TO.N,Net-(ESP1-TX0)*%
X73000000Y-35000000D03*
D11*
%TO.P,J2,2,Pin_2*%
%TO.N,Net-(ESP1-RX0)*%
X70500000Y-35000000D03*
%TD*%
D12*
%TO.P,U2,1*%
%TO.N,Net-(R10-Pad1)*%
X91675000Y-67305000D03*
%TO.P,U2,2,-*%
%TO.N,Net-(U2A--)*%
X91675000Y-66035000D03*
%TO.P,U2,3,+*%
%TO.N,Net-(U2A-+)*%
X91675000Y-64765000D03*
%TO.P,U2,4,V-*%
%TO.N,GND*%
X91675000Y-63495000D03*
%TO.P,U2,5*%
%TO.N,N/C*%
X86725000Y-63495000D03*
%TO.P,U2,6*%
X86725000Y-64765000D03*
%TO.P,U2,7*%
X86725000Y-66035000D03*
%TO.P,U2,8,V+*%
%TO.N,5V*%
X86725000Y-67305000D03*
%TD*%
D13*
%TO.P,J10,1,Pin_1*%
%TO.N,GND*%
X104500000Y-76000000D03*
D14*
%TO.P,J10,2,Pin_2*%
%TO.N,Net-(J10-Pin_2)*%
X104500000Y-78500000D03*
%TO.P,J10,3,Pin_3*%
%TO.N,5V*%
X104500000Y-81000000D03*
%TD*%
D15*
%TO.P,R18,1*%
%TO.N,5V*%
X70000000Y-54087500D03*
%TO.P,R18,2*%
%TO.N,SCL*%
X70000000Y-55912500D03*
%TD*%
D10*
%TO.P,J5,1,Pin_1*%
%TO.N,GND*%
X103000000Y-41775000D03*
D11*
%TO.P,J5,2,Pin_2*%
%TO.N,Net-(J5-Pin_2)*%
X100500000Y-41775000D03*
%TD*%
D16*
%TO.P,ESP1,1,3V3*%
%TO.N,3.3V*%
X61900000Y-72915000D03*
D17*
%TO.P,ESP1,2,GND*%
%TO.N,GND*%
X61900000Y-70375000D03*
%TO.P,ESP1,3,D15*%
%TO.N,Net-(ESP1-D15)*%
X61900000Y-67835000D03*
%TO.P,ESP1,4,D2*%
%TO.N,Net-(ESP1-D2)*%
X61900000Y-65295000D03*
%TO.P,ESP1,5,D4*%
%TO.N,Net-(ESP1-D4)*%
X61900000Y-62755000D03*
%TO.P,ESP1,6,RX2*%
%TO.N,unconnected-(ESP1-RX2-Pad6)*%
X61900000Y-60215000D03*
%TO.P,ESP1,7,TX2*%
%TO.N,unconnected-(ESP1-TX2-Pad7)*%
X61900000Y-57675000D03*
%TO.P,ESP1,8,D5*%
%TO.N,Net-(ESP1-D5)*%
X61900000Y-55135000D03*
%TO.P,ESP1,9,D18*%
%TO.N,Net-(ESP1-D18)*%
X61900000Y-52595000D03*
%TO.P,ESP1,10,D19*%
%TO.N,GP19*%
X61900000Y-50055000D03*
%TO.P,ESP1,11,D21*%
%TO.N,SDA*%
X61900000Y-47515000D03*
%TO.P,ESP1,12,RX0*%
%TO.N,Net-(ESP1-RX0)*%
X61900000Y-44975000D03*
%TO.P,ESP1,13,TX0*%
%TO.N,Net-(ESP1-TX0)*%
X61900000Y-42435000D03*
%TO.P,ESP1,14,D22*%
%TO.N,SCL*%
X61900000Y-39895000D03*
%TO.P,ESP1,15,D23*%
%TO.N,GPIO 27 - PWM*%
X61900000Y-37355000D03*
%TO.P,ESP1,16,EN*%
%TO.N,unconnected-(ESP1-EN-Pad16)*%
X36500000Y-37355000D03*
%TO.P,ESP1,17,VP*%
%TO.N,unconnected-(ESP1-VP-Pad17)*%
X36500000Y-39895000D03*
%TO.P,ESP1,18,VN*%
%TO.N,unconnected-(ESP1-VN-Pad18)*%
X36500000Y-42435000D03*
%TO.P,ESP1,19,D34*%
%TO.N,/D34*%
X36500000Y-44975000D03*
%TO.P,ESP1,20,D35*%
%TO.N,/D35*%
X36500000Y-47515000D03*
%TO.P,ESP1,21,D32*%
%TO.N,/D32*%
X36500000Y-50055000D03*
%TO.P,ESP1,22,D33*%
%TO.N,/D33*%
X36500000Y-52595000D03*
%TO.P,ESP1,23,D25*%
%TO.N,/D25*%
X36500000Y-55135000D03*
%TO.P,ESP1,24,D26*%
%TO.N,/D26*%
X36500000Y-57675000D03*
%TO.P,ESP1,25,D27*%
%TO.N,/D27*%
X36500000Y-60215000D03*
%TO.P,ESP1,26,D14*%
%TO.N,Net-(ESP1-D14)*%
X36500000Y-62755000D03*
%TO.P,ESP1,27,D12*%
%TO.N,Net-(ESP1-D12)*%
X36500000Y-65295000D03*
%TO.P,ESP1,28,D13*%
%TO.N,Net-(ESP1-D13)*%
X36500000Y-67835000D03*
%TO.P,ESP1,29,GND*%
%TO.N,GND*%
X36500000Y-70375000D03*
%TO.P,ESP1,30,VIN*%
%TO.N,9V*%
X36500000Y-72915000D03*
%TD*%
D18*
%TO.P,C2,1*%
%TO.N,Reduced TotalV*%
X89450000Y-53500000D03*
%TO.P,C2,2*%
%TO.N,GND*%
X87550000Y-53500000D03*
%TD*%
D19*
%TO.P,U5,1,ADDR*%
%TO.N,Net-(U5-ADDR)*%
X75200000Y-64650000D03*
%TO.P,U5,2,ALERT/RDY*%
%TO.N,Net-(U5-ALERT{slash}RDY)*%
X75700000Y-64650000D03*
%TO.P,U5,3,GND*%
%TO.N,GND*%
X76200000Y-64650000D03*
%TO.P,U5,4,AIN0*%
%TO.N,Net-(U5-AIN0)*%
X76700000Y-64650000D03*
%TO.P,U5,5,AIN1*%
%TO.N,Current*%
X77200000Y-64650000D03*
%TO.P,U5,6,AIN2*%
%TO.N,GND*%
X77200000Y-60350000D03*
%TO.P,U5,7,AIN3*%
X76700000Y-60350000D03*
%TO.P,U5,8,VDD*%
%TO.N,5V*%
X76200000Y-60350000D03*
%TO.P,U5,9,SDA*%
%TO.N,SDA*%
X75700000Y-60350000D03*
%TO.P,U5,10,SCL*%
%TO.N,SCL*%
X75200000Y-60350000D03*
%TD*%
D20*
%TO.P,C4,1*%
%TO.N,5V*%
X72500000Y-51950000D03*
%TO.P,C4,2*%
%TO.N,GND*%
X72500000Y-50050000D03*
%TD*%
D21*
%TO.P,R8,1*%
%TO.N,Net-(U2A--)*%
X95787500Y-65900000D03*
%TO.P,R8,2*%
%TO.N,Net-(R20-Pad2)*%
X97612500Y-65900000D03*
%TD*%
D10*
%TO.P,J4,1,Pin_1*%
%TO.N,GND*%
X103000000Y-35000000D03*
D11*
%TO.P,J4,2,Pin_2*%
%TO.N,Net-(J4-Pin_2)*%
X100500000Y-35000000D03*
%TD*%
D21*
%TO.P,R11,1*%
%TO.N,Current*%
X88287500Y-73400000D03*
%TO.P,R11,2*%
%TO.N,Net-(R10-Pad1)*%
X90112500Y-73400000D03*
%TD*%
%TO.P,R3,1*%
%TO.N,Net-(J5-Pin_2)*%
X87587500Y-48500000D03*
%TO.P,R3,2*%
%TO.N,Reduced TotalV*%
X89412500Y-48500000D03*
%TD*%
D22*
%TO.P,R1,1*%
%TO.N,Net-(J4-Pin_2)*%
X84325000Y-48500000D03*
%TO.P,R1,2*%
%TO.N,Reduced Bat1V*%
X82500000Y-48500000D03*
%TD*%
D23*
%TO.P,C5,1*%
%TO.N,5V*%
X72500000Y-61550000D03*
%TO.P,C5,2*%
%TO.N,GND*%
X72500000Y-63450000D03*
%TD*%
D10*
%TO.P,J7,1,Pin_1*%
%TO.N,GND*%
X103000000Y-48575000D03*
D11*
%TO.P,J7,2,Pin_2*%
%TO.N,Motor Controller Temp*%
X100500000Y-48575000D03*
%TD*%
D24*
%TO.P,U1,1,Vin*%
%TO.N,9V*%
X74500000Y-70500000D03*
D25*
%TO.P,U1,2,GND*%
%TO.N,GND*%
X71960000Y-70500000D03*
%TO.P,U1,3,Vout*%
%TO.N,5V*%
X69420000Y-70500000D03*
%TD*%
D19*
%TO.P,U4,1,ADDR*%
%TO.N,GND*%
X77200000Y-48850000D03*
%TO.P,U4,2,ALERT/RDY*%
%TO.N,Net-(U4-ALERT{slash}RDY)*%
X76700000Y-48850000D03*
%TO.P,U4,3,GND*%
%TO.N,GND*%
X76200000Y-48850000D03*
%TO.P,U4,4,AIN0*%
%TO.N,Reduced Bat1V*%
X75700000Y-48850000D03*
%TO.P,U4,5,AIN1*%
%TO.N,Reduced TotalV*%
X75200000Y-48850000D03*
%TO.P,U4,6,AIN2*%
%TO.N,Motor Temp*%
X75200000Y-53150000D03*
%TO.P,U4,7,AIN3*%
%TO.N,Motor Controller Temp*%
X75700000Y-53150000D03*
%TO.P,U4,8,VDD*%
%TO.N,5V*%
X76200000Y-53150000D03*
%TO.P,U4,9,SDA*%
%TO.N,SDA*%
X76700000Y-53150000D03*
%TO.P,U4,10,SCL*%
%TO.N,SCL*%
X77200000Y-53150000D03*
%TD*%
D21*
%TO.P,R9,1*%
%TO.N,Net-(U2A--)*%
X95787500Y-68400000D03*
%TO.P,R9,2*%
%TO.N,GND*%
X97612500Y-68400000D03*
%TD*%
D15*
%TO.P,R19,1*%
%TO.N,5V*%
X72500000Y-54087500D03*
%TO.P,R19,2*%
%TO.N,SDA*%
X72500000Y-55912500D03*
%TD*%
D26*
%TO.P,R20,1*%
%TO.N,Net-(J8-Pin_2)*%
X105000000Y-70310000D03*
D27*
%TO.P,R20,2*%
%TO.N,Net-(R20-Pad2)*%
X105000000Y-62690000D03*
%TD*%
D21*
%TO.P,R6,1*%
%TO.N,3.3V*%
X92587500Y-56000000D03*
%TO.P,R6,2*%
%TO.N,Motor Controller Temp*%
X94412500Y-56000000D03*
%TD*%
D13*
%TO.P,J9,1,Pin_1*%
%TO.N,/MotorGND*%
X91950000Y-33825000D03*
D14*
%TO.P,J9,2,Pin_2*%
%TO.N,/Data*%
X91950000Y-36325000D03*
%TO.P,J9,3,Pin_3*%
%TO.N,/Motor5V*%
X91950000Y-38825000D03*
%TD*%
D15*
%TO.P,R17,1*%
%TO.N,5V*%
X70000000Y-61587500D03*
%TO.P,R17,2*%
%TO.N,Net-(U5-ADDR)*%
X70000000Y-63412500D03*
%TD*%
D28*
%TO.P,R16,1*%
%TO.N,5V*%
X70000000Y-51912500D03*
%TO.P,R16,2*%
%TO.N,Net-(U4-ALERT{slash}RDY)*%
X70000000Y-50087500D03*
%TD*%
D26*
%TO.P,R21,1*%
%TO.N,GND*%
X101500000Y-70310000D03*
D27*
%TO.P,R21,2*%
%TO.N,Net-(R20-Pad2)*%
X101500000Y-62690000D03*
%TD*%
D29*
%TO.P,C1,1*%
%TO.N,Reduced Bat1V*%
X82462500Y-53500000D03*
%TO.P,C1,2*%
%TO.N,GND*%
X84362500Y-53500000D03*
%TD*%
D10*
%TO.P,J6,1,Pin_1*%
%TO.N,GND*%
X103000000Y-55375000D03*
D11*
%TO.P,J6,2,Pin_2*%
%TO.N,Motor Temp*%
X100500000Y-55375000D03*
%TD*%
D28*
%TO.P,R12,1*%
%TO.N,/Data*%
X85500000Y-39212500D03*
%TO.P,R12,2*%
%TO.N,/MotorGND*%
X85500000Y-37387500D03*
%TD*%
D13*
%TO.P,J8,1,Pin_1*%
%TO.N,GND*%
X96500000Y-73525000D03*
D14*
%TO.P,J8,2,Pin_2*%
%TO.N,Net-(J8-Pin_2)*%
X96500000Y-76025000D03*
%TO.P,J8,3,Pin_3*%
%TO.N,Net-(J8-Pin_3)*%
X96500000Y-78525000D03*
%TO.P,J8,4,Pin_4*%
%TO.N,5V*%
X96500000Y-81025000D03*
%TD*%
D15*
%TO.P,R15,1*%
%TO.N,5V*%
X67600000Y-61587500D03*
%TO.P,R15,2*%
%TO.N,Net-(U5-ALERT{slash}RDY)*%
X67600000Y-63412500D03*
%TD*%
D10*
%TO.P,J1,1,Pin_1*%
%TO.N,GND*%
X72000000Y-81000000D03*
D11*
%TO.P,J1,2,Pin_2*%
%TO.N,9V*%
X69500000Y-81000000D03*
%TD*%
D21*
%TO.P,R5,1*%
%TO.N,3.3V*%
X92587500Y-58500000D03*
%TO.P,R5,2*%
%TO.N,Motor Temp*%
X94412500Y-58500000D03*
%TD*%
D18*
%TO.P,C3,1*%
%TO.N,Current*%
X84150000Y-70400000D03*
%TO.P,C3,2*%
%TO.N,GND*%
X82250000Y-70400000D03*
%TD*%
D22*
%TO.P,R14,1*%
%TO.N,Net-(J10-Pin_2)*%
X84112500Y-73400000D03*
%TO.P,R14,2*%
%TO.N,Net-(U5-AIN0)*%
X82287500Y-73400000D03*
%TD*%
D21*
%TO.P,R2,1*%
%TO.N,Reduced Bat1V*%
X82500000Y-51000000D03*
%TO.P,R2,2*%
%TO.N,GND*%
X84325000Y-51000000D03*
%TD*%
D30*
%TO.P,J3,1,Pin_1*%
%TO.N,GND*%
X88500000Y-81000000D03*
D31*
%TO.P,J3,2,Pin_2*%
%TO.N,GP19*%
X86000000Y-81000000D03*
%TO.P,J3,3,Pin_3*%
%TO.N,3.3V*%
X83500000Y-81000000D03*
%TD*%
D22*
%TO.P,R10,1*%
%TO.N,Net-(R10-Pad1)*%
X90112500Y-70400000D03*
%TO.P,R10,2*%
%TO.N,Net-(U2A-+)*%
X88287500Y-70400000D03*
%TD*%
D15*
%TO.P,R13,1*%
%TO.N,GND*%
X85500000Y-32387500D03*
%TO.P,R13,2*%
%TO.N,Net-(R13-Pad2)*%
X85500000Y-34212500D03*
%TD*%
D21*
%TO.P,R7,1*%
%TO.N,Net-(U2A-+)*%
X95787500Y-63400000D03*
%TO.P,R7,2*%
%TO.N,Net-(J8-Pin_3)*%
X97612500Y-63400000D03*
%TD*%
D32*
%TO.P,U3,1*%
%TO.N,GPIO 27 - PWM*%
X82275000Y-32500000D03*
D33*
%TO.P,U3,2*%
%TO.N,Net-(R13-Pad2)*%
X79735000Y-32500000D03*
%TO.P,U3,3*%
%TO.N,/Data*%
X79735000Y-40120000D03*
%TO.P,U3,4*%
%TO.N,/Motor5V*%
X82275000Y-40120000D03*
%TD*%
D22*
%TO.P,R4,1*%
%TO.N,Reduced TotalV*%
X89412500Y-51000000D03*
%TO.P,R4,2*%
%TO.N,GND*%
X87587500Y-51000000D03*
%TD*%
D34*
%TO.N,GND*%
X87000000Y-35812751D03*
X72500000Y-65000000D03*
X80500000Y-69000000D03*
X72500000Y-48000000D03*
X94000000Y-62500000D03*
D35*
X86000000Y-50200000D03*
D34*
%TO.N,3.3V*%
X89500000Y-58500000D03*
D36*
X79000000Y-72915000D03*
D35*
%TO.N,5V*%
X83547655Y-67952345D03*
D34*
%TO.N,SCL*%
X79000000Y-56000000D03*
X74000000Y-57500000D03*
%TO.N,SDA*%
X77500000Y-56000000D03*
X74000000Y-56000000D03*
%TO.N,Net-(J4-Pin_2)*%
X84325000Y-46500000D03*
%TO.N,Net-(J5-Pin_2)*%
X87587500Y-46500000D03*
%TO.N,GND*%
X80500000Y-62000000D03*
X80500000Y-63500000D03*
%TD*%
D37*
%TO.N,Reduced Bat1V*%
X82500000Y-53462500D02*
X82462500Y-53500000D01*
X81500000Y-46500000D02*
X76500000Y-46500000D01*
X82500000Y-47500000D02*
X81500000Y-46500000D01*
X82500000Y-51000000D02*
X82500000Y-53462500D01*
X76500000Y-46500000D02*
X75700000Y-47300000D01*
X82500000Y-48500000D02*
X82500000Y-47500000D01*
X75700000Y-47300000D02*
X75700000Y-48850000D01*
X82500000Y-48500000D02*
X82500000Y-51000000D01*
%TO.N,GND*%
X72200000Y-63450000D02*
X73450000Y-63450000D01*
X91675000Y-63495000D02*
X93005000Y-63495000D01*
D38*
X85200000Y-51000000D02*
X86000000Y-50200000D01*
D37*
X87000000Y-33000000D02*
X86387500Y-32387500D01*
X72200000Y-63450000D02*
X72250000Y-63500000D01*
X97612500Y-72412500D02*
X96500000Y-73525000D01*
X87587500Y-51000000D02*
X87587500Y-53462500D01*
X84362500Y-53500000D02*
X84362500Y-51037500D01*
X93005000Y-63495000D02*
X94000000Y-62500000D01*
X72500000Y-63450000D02*
X72500000Y-65000000D01*
X77200000Y-48850000D02*
X77200000Y-49800000D01*
X75892310Y-63000000D02*
X76200000Y-63307690D01*
X77200000Y-49800000D02*
X76950000Y-50050000D01*
D38*
X86800000Y-51000000D02*
X87587500Y-51000000D01*
D37*
X75792310Y-50050000D02*
X76200000Y-49642310D01*
X72500000Y-50050000D02*
X75634620Y-50050000D01*
X75634620Y-50050000D02*
X75792310Y-50050000D01*
X76200000Y-48750000D02*
X76200000Y-49384620D01*
X76200000Y-63307690D02*
X76200000Y-64550000D01*
D38*
X84325000Y-51000000D02*
X85200000Y-51000000D01*
D37*
X76950000Y-50050000D02*
X75634620Y-50050000D01*
X97612500Y-68400000D02*
X97612500Y-72412500D01*
X76200000Y-49642310D02*
X76200000Y-48850000D01*
X73900000Y-63000000D02*
X75892310Y-63000000D01*
X86387500Y-32387500D02*
X85500000Y-32387500D01*
X84362500Y-51037500D02*
X84325000Y-51000000D01*
X73450000Y-63450000D02*
X73900000Y-63000000D01*
X80850000Y-69000000D02*
X80500000Y-69000000D01*
X87587500Y-53462500D02*
X87550000Y-53500000D01*
D38*
X86000000Y-50200000D02*
X86800000Y-51000000D01*
D37*
X72500000Y-50050000D02*
X72500000Y-48000000D01*
X82250000Y-70400000D02*
X80850000Y-69000000D01*
X87000000Y-35812751D02*
X87000000Y-33000000D01*
%TO.N,Current*%
X87150000Y-73400000D02*
X88287500Y-73400000D01*
X84150000Y-69650000D02*
X82000000Y-67500000D01*
X84150000Y-70400000D02*
X84150000Y-69650000D01*
X78000000Y-67500000D02*
X77200000Y-66700000D01*
X87150000Y-73400000D02*
X84150000Y-70400000D01*
X82000000Y-67500000D02*
X78000000Y-67500000D01*
X77200000Y-66700000D02*
X77200000Y-64550000D01*
%TO.N,Reduced TotalV*%
X88500000Y-45000000D02*
X89412500Y-45912500D01*
X89412500Y-45912500D02*
X89412500Y-48500000D01*
X89450000Y-53500000D02*
X89450000Y-51037500D01*
X75200000Y-48850000D02*
X75200000Y-47450000D01*
X89450000Y-51037500D02*
X89412500Y-51000000D01*
X74500000Y-46750000D02*
X74500000Y-45500000D01*
X75000000Y-45000000D02*
X88500000Y-45000000D01*
X74500000Y-45500000D02*
X75000000Y-45000000D01*
X75200000Y-47450000D02*
X74500000Y-46750000D01*
X89412500Y-51000000D02*
X89412500Y-48500000D01*
%TO.N,3.3V*%
X92587500Y-58500000D02*
X92587500Y-56000000D01*
D38*
X79000000Y-72915000D02*
X61900000Y-72915000D01*
X92587500Y-58500000D02*
X89500000Y-58500000D01*
D37*
%TO.N,Motor Temp*%
X80000000Y-61000000D02*
X75200000Y-56200000D01*
X100500000Y-55375000D02*
X99125000Y-55375000D01*
X94412500Y-60087500D02*
X93500000Y-61000000D01*
X99125000Y-55375000D02*
X96000000Y-58500000D01*
X93500000Y-61000000D02*
X80000000Y-61000000D01*
X94412500Y-58500000D02*
X94412500Y-60087500D01*
X75200000Y-56200000D02*
X75200000Y-53050000D01*
X96000000Y-58500000D02*
X94412500Y-58500000D01*
%TO.N,Motor Controller Temp*%
X75957690Y-55957690D02*
X75957690Y-54500000D01*
D39*
X94412500Y-56000000D02*
X93500000Y-56912500D01*
D37*
X80000000Y-60000000D02*
X75957690Y-55957690D01*
X93000000Y-60000000D02*
X80000000Y-60000000D01*
D39*
X93500000Y-56912500D02*
X93500000Y-59500000D01*
D37*
X94412500Y-56000000D02*
X96000000Y-56000000D01*
X75700000Y-54242310D02*
X75700000Y-53050000D01*
X75957690Y-54500000D02*
X75700000Y-54242310D01*
X100500000Y-51500000D02*
X100500000Y-48575000D01*
D39*
X93500000Y-59500000D02*
X93000000Y-60000000D01*
D37*
X96000000Y-56000000D02*
X100500000Y-51500000D01*
%TO.N,/Data*%
X89062500Y-39212500D02*
X91950000Y-36325000D01*
X79735000Y-39265000D02*
X80500000Y-38500000D01*
X80500000Y-38500000D02*
X84787500Y-38500000D01*
X79735000Y-40120000D02*
X79735000Y-39265000D01*
X84787500Y-38500000D02*
X85500000Y-39212500D01*
X85500000Y-39212500D02*
X89062500Y-39212500D01*
D40*
%TO.N,5V*%
X86725000Y-67305000D02*
X84195000Y-67305000D01*
D37*
X70000000Y-53000000D02*
X70000000Y-51912500D01*
X70000000Y-54087500D02*
X70000000Y-53000000D01*
X76200000Y-61800000D02*
X76200000Y-60250000D01*
D38*
X70000000Y-54087500D02*
X72500000Y-54087500D01*
D37*
X74000000Y-62000000D02*
X76000000Y-62000000D01*
D38*
X72200000Y-61550000D02*
X70037500Y-61550000D01*
D41*
X70000000Y-54087500D02*
X69912500Y-54000000D01*
D37*
X72500000Y-51950000D02*
X75634620Y-51950000D01*
D41*
X67600000Y-54900000D02*
X67600000Y-61587500D01*
X69912500Y-54000000D02*
X68500000Y-54000000D01*
D42*
X96708130Y-80908130D02*
X96775000Y-80975000D01*
D43*
X65412500Y-61587500D02*
X67600000Y-61587500D01*
D37*
X72500000Y-51950000D02*
X72500000Y-54087500D01*
D40*
X84195000Y-67305000D02*
X83547655Y-67952345D01*
D37*
X76000000Y-62000000D02*
X76200000Y-61800000D01*
X75634620Y-51950000D02*
X76200000Y-52515380D01*
D43*
X69420000Y-70500000D02*
X66500000Y-70500000D01*
D37*
X96775000Y-80975000D02*
X97200000Y-81400000D01*
D43*
X66500000Y-70500000D02*
X64500000Y-68500000D01*
X64500000Y-68500000D02*
X64500000Y-62500000D01*
D37*
X73550000Y-61550000D02*
X74000000Y-62000000D01*
D38*
X67600000Y-61587500D02*
X70000000Y-61587500D01*
D37*
X72462500Y-51912500D02*
X72500000Y-51950000D01*
X70037500Y-61550000D02*
X70000000Y-61587500D01*
D41*
X68500000Y-54000000D02*
X67600000Y-54900000D01*
D37*
X86725000Y-67305000D02*
X85805000Y-67305000D01*
X76200000Y-52515380D02*
X76200000Y-53150000D01*
D43*
X64500000Y-62500000D02*
X65412500Y-61587500D01*
D37*
X72200000Y-61550000D02*
X73550000Y-61550000D01*
%TO.N,Net-(ESP1-RX0)*%
X65525000Y-44975000D02*
X61900000Y-44975000D01*
X70500000Y-40000000D02*
X65525000Y-44975000D01*
X70500000Y-35000000D02*
X70500000Y-40000000D01*
%TO.N,Net-(ESP1-TX0)*%
X72000000Y-32500000D02*
X73000000Y-33500000D01*
X67000000Y-34500000D02*
X69000000Y-32500000D01*
X64500000Y-42500000D02*
X67000000Y-40000000D01*
X69000000Y-32500000D02*
X72000000Y-32500000D01*
X67000000Y-40000000D02*
X67000000Y-34500000D01*
X61965000Y-42500000D02*
X64500000Y-42500000D01*
X73000000Y-33500000D02*
X73000000Y-35000000D01*
X61900000Y-42435000D02*
X61965000Y-42500000D01*
%TO.N,SCL*%
X74000000Y-57500000D02*
X75200000Y-58700000D01*
X77200000Y-54200000D02*
X77200000Y-53150000D01*
X70000000Y-57000000D02*
X70500000Y-57500000D01*
X79000000Y-56000000D02*
X77200000Y-54200000D01*
X75200000Y-58700000D02*
X75200000Y-60350000D01*
X70000000Y-55912500D02*
X70000000Y-57000000D01*
X70500000Y-57500000D02*
X74000000Y-57500000D01*
%TO.N,Net-(U2A-+)*%
X90700000Y-64765000D02*
X91675000Y-64765000D01*
X88287500Y-70400000D02*
X88287500Y-67177500D01*
X88287500Y-67177500D02*
X90700000Y-64765000D01*
X94422500Y-64765000D02*
X95787500Y-63400000D01*
X91675000Y-64765000D02*
X94422500Y-64765000D01*
%TO.N,Net-(U2A--)*%
X95652500Y-66035000D02*
X95787500Y-65900000D01*
X95787500Y-68400000D02*
X95787500Y-65900000D01*
X91675000Y-66035000D02*
X95652500Y-66035000D01*
%TO.N,SDA*%
X76700000Y-53150000D02*
X76700000Y-55200000D01*
X74000000Y-56000000D02*
X75700000Y-57700000D01*
X76700000Y-55200000D02*
X77500000Y-56000000D01*
X72500000Y-55912500D02*
X73912500Y-55912500D01*
X73912500Y-55912500D02*
X74000000Y-56000000D01*
X75700000Y-57700000D02*
X75700000Y-60350000D01*
D39*
%TO.N,Net-(U4-ALERT{slash}RDY)*%
X77500000Y-51000000D02*
X78500000Y-50000000D01*
X70912500Y-51000000D02*
X77500000Y-51000000D01*
X70000000Y-50087500D02*
X70912500Y-51000000D01*
X76957690Y-47500000D02*
X76700000Y-47757690D01*
X76700000Y-47757690D02*
X76700000Y-48850000D01*
X78000000Y-47500000D02*
X76957690Y-47500000D01*
X78500000Y-48000000D02*
X78000000Y-47500000D01*
X78500000Y-50000000D02*
X78500000Y-48000000D01*
D37*
%TO.N,GPIO 27 - PWM*%
X82000000Y-31000000D02*
X82275000Y-31275000D01*
X82275000Y-31275000D02*
X82275000Y-32500000D01*
X61900000Y-34600000D02*
X65500000Y-31000000D01*
X61900000Y-37355000D02*
X61900000Y-34600000D01*
X65500000Y-31000000D02*
X82000000Y-31000000D01*
%TO.N,/MotorGND*%
X88387500Y-37387500D02*
X91950000Y-33825000D01*
X85500000Y-37387500D02*
X88387500Y-37387500D01*
%TO.N,/Motor5V*%
X89775000Y-41000000D02*
X91950000Y-38825000D01*
X82275000Y-40120000D02*
X83155000Y-41000000D01*
X83155000Y-41000000D02*
X89775000Y-41000000D01*
%TO.N,Net-(J8-Pin_2)*%
X99285000Y-76025000D02*
X105000000Y-70310000D01*
X96500000Y-76025000D02*
X99285000Y-76025000D01*
D39*
%TO.N,Net-(J8-Pin_3)*%
X96708130Y-69005044D02*
X96708130Y-64791870D01*
X97612500Y-63400000D02*
X97612500Y-63887500D01*
X94950000Y-70763174D02*
X96708130Y-69005044D01*
X96500000Y-78525000D02*
X94950000Y-76975000D01*
X97612500Y-63887500D02*
X96708130Y-64791870D01*
X94950000Y-76975000D02*
X94950000Y-70763174D01*
D37*
%TO.N,Net-(J10-Pin_2)*%
X101000000Y-78500000D02*
X100000000Y-79500000D01*
X95000000Y-83500000D02*
X84900000Y-73400000D01*
X100000000Y-79500000D02*
X100000000Y-82000000D01*
X98500000Y-83500000D02*
X95000000Y-83500000D01*
X104500000Y-78500000D02*
X101000000Y-78500000D01*
X84900000Y-73400000D02*
X84112500Y-73400000D01*
X100000000Y-82000000D02*
X98500000Y-83500000D01*
%TO.N,Net-(R20-Pad2)*%
X98290000Y-65900000D02*
X101500000Y-62690000D01*
X97612500Y-65900000D02*
X98290000Y-65900000D01*
X101500000Y-62690000D02*
X105000000Y-62690000D01*
%TO.N,Net-(R10-Pad1)*%
X90112500Y-68867500D02*
X91675000Y-67305000D01*
X90200000Y-70487500D02*
X90112500Y-70400000D01*
X90112500Y-70400000D02*
X90112500Y-68867500D01*
X90112500Y-73400000D02*
X90112500Y-70400000D01*
%TO.N,Net-(R13-Pad2)*%
X79735000Y-33235000D02*
X79735000Y-32500000D01*
X81500000Y-35000000D02*
X79735000Y-33235000D01*
X84712500Y-35000000D02*
X81500000Y-35000000D01*
X85500000Y-34212500D02*
X84712500Y-35000000D01*
%TO.N,Net-(U5-AIN0)*%
X76700000Y-67812500D02*
X76700000Y-64550000D01*
X82287500Y-73400000D02*
X76700000Y-67812500D01*
%TO.N,Net-(J4-Pin_2)*%
X84325000Y-46500000D02*
X84325000Y-48500000D01*
%TO.N,Net-(J5-Pin_2)*%
X87587500Y-46500000D02*
X87587500Y-48500000D01*
%TO.N,Net-(U5-ALERT{slash}RDY)*%
X75700000Y-66300000D02*
X75700000Y-64550000D01*
X67600000Y-66100000D02*
X68500000Y-67000000D01*
X68500000Y-67000000D02*
X75000000Y-67000000D01*
X67600000Y-63412500D02*
X67600000Y-66100000D01*
X75000000Y-67000000D02*
X75700000Y-66300000D01*
%TO.N,Net-(U5-ADDR)*%
X70000000Y-63412500D02*
X70000000Y-65500000D01*
X70000000Y-65500000D02*
X70500000Y-66000000D01*
X70500000Y-66000000D02*
X74750000Y-66000000D01*
X74750000Y-66000000D02*
X75200000Y-65550000D01*
X75200000Y-65550000D02*
X75200000Y-64550000D01*
%TO.N,GND*%
X77200000Y-61200000D02*
X77200000Y-60350000D01*
X80500000Y-62000000D02*
X78000000Y-62000000D01*
X78000000Y-62000000D02*
X77200000Y-61200000D01*
X78000000Y-63500000D02*
X80500000Y-63500000D01*
X76700000Y-60350000D02*
X76700000Y-62200000D01*
X76700000Y-62200000D02*
X78000000Y-63500000D01*
%TD*%
M02*
