M48
INCH
T1C0.0157
T2C0.0197
T3C0.0276
T4C0.0315
T5C0.0374
T6C0.0394
T7C0.0402
%
G90
G05
T1
X2.8543Y-1.8898
X2.8543Y-2.5591
X2.9134Y-2.2047
X2.9134Y-2.2638
X3.0512Y-2.2047
X3.1102Y-2.2047
X3.1693Y-2.4409
X3.1693Y-2.5
X3.1693Y-2.7165
X3.3199Y-1.8307
X3.4252Y-1.41
X3.4483Y-1.8307
X3.5236Y-2.3031
X3.7008Y-2.4606
T2
X3.1102Y-2.8707
X3.2893Y-2.6753
X3.3858Y-1.9764
T3
X3.9961Y-2.4681
X3.9961Y-2.7681
X4.1339Y-2.4681
X4.1339Y-2.7681
T4
X3.1392Y-1.2795
X3.1392Y-1.5795
X3.2392Y-1.2795
X3.2392Y-1.5795
T5
X3.2874Y-3.189
X3.3858Y-3.189
X3.4843Y-3.189
X3.6201Y-1.3317
X3.6201Y-1.4301
X3.6201Y-1.5285
X3.7992Y-2.8947
X3.7992Y-2.9931
X3.7992Y-3.0915
X3.7992Y-3.19
X4.1142Y-2.9921
X4.1142Y-3.0906
X4.1142Y-3.189
T6
X2.7331Y-2.7756
X2.7362Y-3.189
X2.7756Y-1.378
X2.8331Y-2.7756
X2.8346Y-3.189
X2.874Y-1.378
X2.9331Y-2.7756
X3.9567Y-1.378
X3.9567Y-1.6447
X3.9567Y-1.9124
X3.9567Y-2.1801
X4.0551Y-1.378
X4.0551Y-1.6447
X4.0551Y-1.9124
X4.0551Y-2.1801
T7
X1.437Y-1.4707
X1.437Y-1.5707
X1.437Y-1.6707
X1.437Y-1.7707
X1.437Y-1.8707
X1.437Y-1.9707
X1.437Y-2.0707
X1.437Y-2.1707
X1.437Y-2.2707
X1.437Y-2.3707
X1.437Y-2.4707
X1.437Y-2.5707
X1.437Y-2.6707
X1.437Y-2.7707
X1.437Y-2.8707
X2.437Y-1.4707
X2.437Y-1.5707
X2.437Y-1.6707
X2.437Y-1.7707
X2.437Y-1.8707
X2.437Y-1.9707
X2.437Y-2.0707
X2.437Y-2.1707
X2.437Y-2.2707
X2.437Y-2.3707
X2.437Y-2.4707
X2.437Y-2.5707
X2.437Y-2.6707
X2.437Y-2.7707
X2.437Y-2.8707
T0
M30
