%TF.GenerationSoftware,KiCad,Pcbnew,7.0.8*%
%TF.CreationDate,2024-02-01T15:04:04+01:00*%
%TF.ProjectId,SMD Microcontroller Schematics,534d4420-4d69-4637-926f-636f6e74726f,rev?*%
%TF.SameCoordinates,Original*%
%TF.FileFunction,Copper,L4,Bot*%
%TF.FilePolarity,Positive*%
%FSLAX46Y46*%
G04 Gerber Fmt 4.6, Leading zero omitted, Abs format (unit mm)*
G04 Created by KiCad (PCBNEW 7.0.8) date 2024-02-01 15:04:04*
%MOMM*%
%LPD*%
G01*
G04 APERTURE LIST*
G04 Aperture macros list*
%AMRoundRect*
0 Rectangle with rounded corners*
0 $1 Rounding radius*
0 $2 $3 $4 $5 $6 $7 $8 $9 X,Y pos of 4 corners*
0 Add a 4 corners polygon primitive as box body*
4,1,4,$2,$3,$4,$5,$6,$7,$8,$9,$2,$3,0*
0 Add four circle primitives for the rounded corners*
1,1,$1+$1,$2,$3*
1,1,$1+$1,$4,$5*
1,1,$1+$1,$6,$7*
1,1,$1+$1,$8,$9*
0 Add four rect primitives between the rounded corners*
20,1,$1+$1,$2,$3,$4,$5,0*
20,1,$1+$1,$4,$5,$6,$7,0*
20,1,$1+$1,$6,$7,$8,$9,0*
20,1,$1+$1,$8,$9,$2,$3,0*%
G04 Aperture macros list end*
%TA.AperFunction,ComponentPad*%
%ADD10RoundRect,0.250000X0.600000X0.750000X-0.600000X0.750000X-0.600000X-0.750000X0.600000X-0.750000X0*%
%TD*%
%TA.AperFunction,ComponentPad*%
%ADD11O,1.700000X2.000000*%
%TD*%
%TA.AperFunction,ComponentPad*%
%ADD12RoundRect,0.250000X-0.725000X0.600000X-0.725000X-0.600000X0.725000X-0.600000X0.725000X0.600000X0*%
%TD*%
%TA.AperFunction,ComponentPad*%
%ADD13O,1.950000X1.700000*%
%TD*%
%TA.AperFunction,ComponentPad*%
%ADD14R,2.000000X2.000000*%
%TD*%
%TA.AperFunction,ComponentPad*%
%ADD15C,2.000000*%
%TD*%
%TA.AperFunction,ComponentPad*%
%ADD16R,1.500000X2.500000*%
%TD*%
%TA.AperFunction,ComponentPad*%
%ADD17O,1.500000X2.500000*%
%TD*%
%TA.AperFunction,ComponentPad*%
%ADD18C,1.400000*%
%TD*%
%TA.AperFunction,ComponentPad*%
%ADD19O,1.400000X1.400000*%
%TD*%
%TA.AperFunction,ComponentPad*%
%ADD20RoundRect,0.250000X0.600000X0.725000X-0.600000X0.725000X-0.600000X-0.725000X0.600000X-0.725000X0*%
%TD*%
%TA.AperFunction,ComponentPad*%
%ADD21O,1.700000X1.950000*%
%TD*%
%TA.AperFunction,ComponentPad*%
%ADD22R,1.600000X1.600000*%
%TD*%
%TA.AperFunction,ComponentPad*%
%ADD23O,1.600000X1.600000*%
%TD*%
%TA.AperFunction,ViaPad*%
%ADD24C,0.800000*%
%TD*%
%TA.AperFunction,ViaPad*%
%ADD25C,0.900000*%
%TD*%
%TA.AperFunction,ViaPad*%
%ADD26C,0.950000*%
%TD*%
G04 APERTURE END LIST*
D10*
%TO.P,J2,1,Pin_1*%
%TO.N,Net-(ESP1-TX0)*%
X73000000Y-35000000D03*
D11*
%TO.P,J2,2,Pin_2*%
%TO.N,Net-(ESP1-RX0)*%
X70500000Y-35000000D03*
%TD*%
D12*
%TO.P,J10,1,Pin_1*%
%TO.N,GND*%
X104500000Y-76000000D03*
D13*
%TO.P,J10,2,Pin_2*%
%TO.N,Net-(J10-Pin_2)*%
X104500000Y-78500000D03*
%TO.P,J10,3,Pin_3*%
%TO.N,5V*%
X104500000Y-81000000D03*
%TD*%
D10*
%TO.P,J5,1,Pin_1*%
%TO.N,GND*%
X103000000Y-41775000D03*
D11*
%TO.P,J5,2,Pin_2*%
%TO.N,Net-(J5-Pin_2)*%
X100500000Y-41775000D03*
%TD*%
D14*
%TO.P,ESP1,1,3V3*%
%TO.N,3.3V*%
X61900000Y-72915000D03*
D15*
%TO.P,ESP1,2,GND*%
%TO.N,GND*%
X61900000Y-70375000D03*
%TO.P,ESP1,3,D15*%
%TO.N,Net-(ESP1-D15)*%
X61900000Y-67835000D03*
%TO.P,ESP1,4,D2*%
%TO.N,Net-(ESP1-D2)*%
X61900000Y-65295000D03*
%TO.P,ESP1,5,D4*%
%TO.N,Net-(ESP1-D4)*%
X61900000Y-62755000D03*
%TO.P,ESP1,6,RX2*%
%TO.N,unconnected-(ESP1-RX2-Pad6)*%
X61900000Y-60215000D03*
%TO.P,ESP1,7,TX2*%
%TO.N,unconnected-(ESP1-TX2-Pad7)*%
X61900000Y-57675000D03*
%TO.P,ESP1,8,D5*%
%TO.N,Net-(ESP1-D5)*%
X61900000Y-55135000D03*
%TO.P,ESP1,9,D18*%
%TO.N,Net-(ESP1-D18)*%
X61900000Y-52595000D03*
%TO.P,ESP1,10,D19*%
%TO.N,GP19*%
X61900000Y-50055000D03*
%TO.P,ESP1,11,D21*%
%TO.N,SDA*%
X61900000Y-47515000D03*
%TO.P,ESP1,12,RX0*%
%TO.N,Net-(ESP1-RX0)*%
X61900000Y-44975000D03*
%TO.P,ESP1,13,TX0*%
%TO.N,Net-(ESP1-TX0)*%
X61900000Y-42435000D03*
%TO.P,ESP1,14,D22*%
%TO.N,SCL*%
X61900000Y-39895000D03*
%TO.P,ESP1,15,D23*%
%TO.N,GPIO 27 - PWM*%
X61900000Y-37355000D03*
%TO.P,ESP1,16,EN*%
%TO.N,unconnected-(ESP1-EN-Pad16)*%
X36500000Y-37355000D03*
%TO.P,ESP1,17,VP*%
%TO.N,unconnected-(ESP1-VP-Pad17)*%
X36500000Y-39895000D03*
%TO.P,ESP1,18,VN*%
%TO.N,unconnected-(ESP1-VN-Pad18)*%
X36500000Y-42435000D03*
%TO.P,ESP1,19,D34*%
%TO.N,/D34*%
X36500000Y-44975000D03*
%TO.P,ESP1,20,D35*%
%TO.N,/D35*%
X36500000Y-47515000D03*
%TO.P,ESP1,21,D32*%
%TO.N,/D32*%
X36500000Y-50055000D03*
%TO.P,ESP1,22,D33*%
%TO.N,/D33*%
X36500000Y-52595000D03*
%TO.P,ESP1,23,D25*%
%TO.N,/D25*%
X36500000Y-55135000D03*
%TO.P,ESP1,24,D26*%
%TO.N,/D26*%
X36500000Y-57675000D03*
%TO.P,ESP1,25,D27*%
%TO.N,/D27*%
X36500000Y-60215000D03*
%TO.P,ESP1,26,D14*%
%TO.N,Net-(ESP1-D14)*%
X36500000Y-62755000D03*
%TO.P,ESP1,27,D12*%
%TO.N,Net-(ESP1-D12)*%
X36500000Y-65295000D03*
%TO.P,ESP1,28,D13*%
%TO.N,Net-(ESP1-D13)*%
X36500000Y-67835000D03*
%TO.P,ESP1,29,GND*%
%TO.N,GND*%
X36500000Y-70375000D03*
%TO.P,ESP1,30,VIN*%
%TO.N,9V*%
X36500000Y-72915000D03*
%TD*%
D10*
%TO.P,J4,1,Pin_1*%
%TO.N,GND*%
X103000000Y-35000000D03*
D11*
%TO.P,J4,2,Pin_2*%
%TO.N,Net-(J4-Pin_2)*%
X100500000Y-35000000D03*
%TD*%
D10*
%TO.P,J7,1,Pin_1*%
%TO.N,GND*%
X103000000Y-48575000D03*
D11*
%TO.P,J7,2,Pin_2*%
%TO.N,Motor Controller Temp*%
X100500000Y-48575000D03*
%TD*%
D16*
%TO.P,U1,1,Vin*%
%TO.N,9V*%
X74500000Y-70500000D03*
D17*
%TO.P,U1,2,GND*%
%TO.N,GND*%
X71960000Y-70500000D03*
%TO.P,U1,3,Vout*%
%TO.N,5V*%
X69420000Y-70500000D03*
%TD*%
D18*
%TO.P,R20,1*%
%TO.N,Net-(J8-Pin_2)*%
X105000000Y-70310000D03*
D19*
%TO.P,R20,2*%
%TO.N,Net-(R20-Pad2)*%
X105000000Y-62690000D03*
%TD*%
D12*
%TO.P,J9,1,Pin_1*%
%TO.N,/MotorGND*%
X91950000Y-33825000D03*
D13*
%TO.P,J9,2,Pin_2*%
%TO.N,/Data*%
X91950000Y-36325000D03*
%TO.P,J9,3,Pin_3*%
%TO.N,/Motor5V*%
X91950000Y-38825000D03*
%TD*%
D18*
%TO.P,R21,1*%
%TO.N,GND*%
X101500000Y-70310000D03*
D19*
%TO.P,R21,2*%
%TO.N,Net-(R20-Pad2)*%
X101500000Y-62690000D03*
%TD*%
D10*
%TO.P,J6,1,Pin_1*%
%TO.N,GND*%
X103000000Y-55375000D03*
D11*
%TO.P,J6,2,Pin_2*%
%TO.N,Motor Temp*%
X100500000Y-55375000D03*
%TD*%
D12*
%TO.P,J8,1,Pin_1*%
%TO.N,GND*%
X96500000Y-73525000D03*
D13*
%TO.P,J8,2,Pin_2*%
%TO.N,Net-(J8-Pin_2)*%
X96500000Y-76025000D03*
%TO.P,J8,3,Pin_3*%
%TO.N,Net-(J8-Pin_3)*%
X96500000Y-78525000D03*
%TO.P,J8,4,Pin_4*%
%TO.N,5V*%
X96500000Y-81025000D03*
%TD*%
D10*
%TO.P,J1,1,Pin_1*%
%TO.N,GND*%
X72000000Y-81000000D03*
D11*
%TO.P,J1,2,Pin_2*%
%TO.N,9V*%
X69500000Y-81000000D03*
%TD*%
D20*
%TO.P,J3,1,Pin_1*%
%TO.N,GND*%
X88500000Y-81000000D03*
D21*
%TO.P,J3,2,Pin_2*%
%TO.N,GP19*%
X86000000Y-81000000D03*
%TO.P,J3,3,Pin_3*%
%TO.N,3.3V*%
X83500000Y-81000000D03*
%TD*%
D22*
%TO.P,U3,1*%
%TO.N,GPIO 27 - PWM*%
X82275000Y-32500000D03*
D23*
%TO.P,U3,2*%
%TO.N,Net-(R13-Pad2)*%
X79735000Y-32500000D03*
%TO.P,U3,3*%
%TO.N,/Data*%
X79735000Y-40120000D03*
%TO.P,U3,4*%
%TO.N,/Motor5V*%
X82275000Y-40120000D03*
%TD*%
D24*
%TO.N,GND*%
X87000000Y-35812751D03*
X72500000Y-65000000D03*
X80500000Y-69000000D03*
X72500000Y-48000000D03*
X94000000Y-62500000D03*
D25*
X86000000Y-50200000D03*
D24*
%TO.N,3.3V*%
X89500000Y-58500000D03*
D26*
X79000000Y-72915000D03*
D25*
%TO.N,5V*%
X83547655Y-67952345D03*
D24*
%TO.N,SCL*%
X79000000Y-56000000D03*
X74000000Y-57500000D03*
%TO.N,SDA*%
X77500000Y-56000000D03*
X74000000Y-56000000D03*
%TO.N,Net-(J4-Pin_2)*%
X84325000Y-46500000D03*
%TO.N,Net-(J5-Pin_2)*%
X87587500Y-46500000D03*
%TO.N,GND*%
X80500000Y-62000000D03*
X80500000Y-63500000D03*
%TD*%
%TA.AperFunction,Conductor*%
%TO.N,GND*%
G36*
X78820664Y-31019366D02*
G01*
X78896019Y-31074115D01*
X78942592Y-31154780D01*
X78952328Y-31247414D01*
X78923545Y-31336000D01*
X78867138Y-31400768D01*
X78783220Y-31466083D01*
X78783215Y-31466087D01*
X78626023Y-31636845D01*
X78626019Y-31636850D01*
X78499076Y-31831149D01*
X78499073Y-31831155D01*
X78405846Y-32043691D01*
X78405841Y-32043703D01*
X78348867Y-32268689D01*
X78348865Y-32268697D01*
X78329700Y-32500000D01*
X78348865Y-32731302D01*
X78348867Y-32731310D01*
X78405841Y-32956296D01*
X78405846Y-32956308D01*
X78499073Y-33168844D01*
X78499076Y-33168850D01*
X78564552Y-33269067D01*
X78626021Y-33363153D01*
X78783216Y-33533913D01*
X78926018Y-33645060D01*
X78966377Y-33676472D01*
X79084140Y-33740202D01*
X79170497Y-33786936D01*
X79280028Y-33824538D01*
X79390019Y-33862298D01*
X79618950Y-33900500D01*
X79618951Y-33900500D01*
X79851050Y-33900500D01*
X79965515Y-33881399D01*
X80079981Y-33862298D01*
X80299503Y-33786936D01*
X80503626Y-33676470D01*
X80640767Y-33569728D01*
X80724558Y-33529052D01*
X80817651Y-33525972D01*
X80903949Y-33561023D01*
X80956060Y-33610135D01*
X81046714Y-33728278D01*
X81046721Y-33728285D01*
X81172153Y-33824533D01*
X81172163Y-33824538D01*
X81245198Y-33854790D01*
X81318238Y-33885044D01*
X81435639Y-33900500D01*
X83114360Y-33900499D01*
X83231762Y-33885044D01*
X83377841Y-33824536D01*
X83377842Y-33824534D01*
X83377846Y-33824533D01*
X83503278Y-33728285D01*
X83503277Y-33728285D01*
X83503282Y-33728282D01*
X83567140Y-33645061D01*
X83599533Y-33602846D01*
X83599534Y-33602842D01*
X83599536Y-33602841D01*
X83660044Y-33456762D01*
X83675500Y-33339361D01*
X83675499Y-31660640D01*
X83660044Y-31543238D01*
X83599536Y-31397159D01*
X83571301Y-31360362D01*
X83531202Y-31276291D01*
X83528764Y-31183178D01*
X83564409Y-31097124D01*
X83631974Y-31033008D01*
X83719776Y-31001916D01*
X83749013Y-31000000D01*
X105496003Y-31000000D01*
X105503974Y-31000284D01*
X105768655Y-31019214D01*
X105800271Y-31023759D01*
X106047815Y-31077609D01*
X106078469Y-31086610D01*
X106315826Y-31175140D01*
X106344887Y-31188411D01*
X106452942Y-31247414D01*
X106567219Y-31309814D01*
X106594106Y-31327093D01*
X106796897Y-31478901D01*
X106821050Y-31499830D01*
X107000169Y-31678949D01*
X107021098Y-31703102D01*
X107172906Y-31905893D01*
X107190185Y-31932780D01*
X107311585Y-32155107D01*
X107324862Y-32184179D01*
X107413387Y-32421524D01*
X107422391Y-32452189D01*
X107476238Y-32699718D01*
X107480786Y-32731353D01*
X107499715Y-32996025D01*
X107500000Y-33003997D01*
X107500000Y-82496002D01*
X107499715Y-82503975D01*
X107492812Y-82600500D01*
X107480786Y-82768646D01*
X107476238Y-82800281D01*
X107422391Y-83047810D01*
X107413387Y-83078475D01*
X107324862Y-83315820D01*
X107311585Y-83344892D01*
X107190185Y-83567219D01*
X107172906Y-83594106D01*
X107021098Y-83796897D01*
X107000169Y-83821050D01*
X106821050Y-84000169D01*
X106796897Y-84021098D01*
X106594106Y-84172906D01*
X106567219Y-84190185D01*
X106344892Y-84311585D01*
X106315820Y-84324862D01*
X106078475Y-84413387D01*
X106047810Y-84422391D01*
X105800281Y-84476238D01*
X105768646Y-84480786D01*
X105713660Y-84484718D01*
X105503974Y-84499715D01*
X105496003Y-84500000D01*
X36003997Y-84500000D01*
X35996025Y-84499715D01*
X35768591Y-84483449D01*
X35731353Y-84480786D01*
X35699718Y-84476238D01*
X35452189Y-84422391D01*
X35421524Y-84413387D01*
X35184179Y-84324862D01*
X35155107Y-84311585D01*
X34932780Y-84190185D01*
X34905893Y-84172906D01*
X34703102Y-84021098D01*
X34678949Y-84000169D01*
X34499830Y-83821050D01*
X34478901Y-83796897D01*
X34327093Y-83594106D01*
X34309814Y-83567219D01*
X34188414Y-83344892D01*
X34175140Y-83315826D01*
X34086610Y-83078469D01*
X34077608Y-83047810D01*
X34023759Y-82800271D01*
X34019214Y-82768655D01*
X34000284Y-82503975D01*
X34000000Y-82496002D01*
X34000000Y-81209986D01*
X68049500Y-81209986D01*
X68064379Y-81389559D01*
X68064379Y-81389562D01*
X68064380Y-81389563D01*
X68123390Y-81622591D01*
X68123392Y-81622595D01*
X68123393Y-81622598D01*
X68219946Y-81842719D01*
X68219949Y-81842725D01*
X68219951Y-81842728D01*
X68351429Y-82043969D01*
X68514236Y-82220825D01*
X68622452Y-82305053D01*
X68703936Y-82368474D01*
X68855507Y-82450500D01*
X68915344Y-82482882D01*
X69069880Y-82535934D01*
X69142703Y-82560934D01*
X69379807Y-82600500D01*
X69379808Y-82600500D01*
X69620193Y-82600500D01*
X69771716Y-82575215D01*
X69857297Y-82560934D01*
X70084656Y-82482882D01*
X70296067Y-82368472D01*
X70485764Y-82220825D01*
X70648571Y-82043969D01*
X70780049Y-81842728D01*
X70876610Y-81622591D01*
X70935620Y-81389563D01*
X70950500Y-81209990D01*
X70950500Y-81184986D01*
X82049500Y-81184986D01*
X82064379Y-81364559D01*
X82064379Y-81364562D01*
X82064380Y-81364563D01*
X82123390Y-81597591D01*
X82123392Y-81597595D01*
X82123393Y-81597598D01*
X82219946Y-81817719D01*
X82219949Y-81817725D01*
X82219951Y-81817728D01*
X82351429Y-82018969D01*
X82514236Y-82195825D01*
X82654572Y-82305053D01*
X82703936Y-82343474D01*
X82861248Y-82428606D01*
X82915344Y-82457882D01*
X83142703Y-82535934D01*
X83379807Y-82575500D01*
X83379808Y-82575500D01*
X83620193Y-82575500D01*
X83738744Y-82555717D01*
X83857297Y-82535934D01*
X84084656Y-82457882D01*
X84296067Y-82343472D01*
X84485764Y-82195825D01*
X84585199Y-82087808D01*
X84661152Y-82033895D01*
X84752469Y-82015535D01*
X84843359Y-82035903D01*
X84914800Y-82087808D01*
X85014236Y-82195825D01*
X85154572Y-82305053D01*
X85203936Y-82343474D01*
X85361248Y-82428606D01*
X85415344Y-82457882D01*
X85642703Y-82535934D01*
X85879807Y-82575500D01*
X85879808Y-82575500D01*
X86120193Y-82575500D01*
X86238744Y-82555717D01*
X86357297Y-82535934D01*
X86584656Y-82457882D01*
X86796067Y-82343472D01*
X86985764Y-82195825D01*
X87148571Y-82018969D01*
X87280049Y-81817728D01*
X87376610Y-81597591D01*
X87435620Y-81364563D01*
X87450500Y-81184990D01*
X87450500Y-81145192D01*
X94924500Y-81145192D01*
X94964065Y-81382296D01*
X95042115Y-81609648D01*
X95042122Y-81609664D01*
X95156525Y-81821063D01*
X95156527Y-81821066D01*
X95156528Y-81821067D01*
X95304175Y-82010764D01*
X95481031Y-82173571D01*
X95682272Y-82305049D01*
X95682276Y-82305051D01*
X95682280Y-82305053D01*
X95769872Y-82343474D01*
X95902409Y-82401610D01*
X96135437Y-82460620D01*
X96315010Y-82475500D01*
X96315014Y-82475500D01*
X96684986Y-82475500D01*
X96684990Y-82475500D01*
X96864563Y-82460620D01*
X97097591Y-82401610D01*
X97317728Y-82305049D01*
X97518969Y-82173571D01*
X97695825Y-82010764D01*
X97843472Y-81821067D01*
X97957882Y-81609656D01*
X98035934Y-81382297D01*
X98075500Y-81145192D01*
X98075500Y-81120192D01*
X102924500Y-81120192D01*
X102964065Y-81357296D01*
X103042115Y-81584648D01*
X103042122Y-81584664D01*
X103156525Y-81796063D01*
X103156527Y-81796066D01*
X103156528Y-81796067D01*
X103304175Y-81985764D01*
X103481031Y-82148571D01*
X103682272Y-82280049D01*
X103682276Y-82280051D01*
X103682280Y-82280053D01*
X103739266Y-82305049D01*
X103902409Y-82376610D01*
X104135437Y-82435620D01*
X104315010Y-82450500D01*
X104315014Y-82450500D01*
X104684986Y-82450500D01*
X104684990Y-82450500D01*
X104864563Y-82435620D01*
X105097591Y-82376610D01*
X105317728Y-82280049D01*
X105518969Y-82148571D01*
X105695825Y-81985764D01*
X105843472Y-81796067D01*
X105957882Y-81584656D01*
X106035934Y-81357297D01*
X106075500Y-81120192D01*
X106075500Y-80879808D01*
X106035934Y-80642703D01*
X105957882Y-80415344D01*
X105857003Y-80228936D01*
X105843474Y-80203936D01*
X105826618Y-80182280D01*
X105695825Y-80014236D01*
X105587808Y-79914800D01*
X105533895Y-79838848D01*
X105515535Y-79747531D01*
X105535903Y-79656641D01*
X105587808Y-79585199D01*
X105695825Y-79485764D01*
X105843472Y-79296067D01*
X105957882Y-79084656D01*
X106035934Y-78857297D01*
X106075500Y-78620192D01*
X106075500Y-78379808D01*
X106035934Y-78142703D01*
X105957882Y-77915344D01*
X105857003Y-77728936D01*
X105843474Y-77703936D01*
X105695828Y-77514240D01*
X105695824Y-77514235D01*
X105518969Y-77351429D01*
X105398207Y-77272531D01*
X105317728Y-77219951D01*
X105317725Y-77219949D01*
X105317719Y-77219946D01*
X105097598Y-77123393D01*
X105097597Y-77123392D01*
X105097591Y-77123390D01*
X104864563Y-77064380D01*
X104864562Y-77064379D01*
X104864559Y-77064379D01*
X104744506Y-77054431D01*
X104684990Y-77049500D01*
X104315010Y-77049500D01*
X104260048Y-77054054D01*
X104135440Y-77064379D01*
X104077954Y-77078936D01*
X103902409Y-77123390D01*
X103902405Y-77123391D01*
X103902404Y-77123392D01*
X103902401Y-77123393D01*
X103682280Y-77219946D01*
X103682270Y-77219952D01*
X103481030Y-77351429D01*
X103304175Y-77514235D01*
X103304171Y-77514240D01*
X103156525Y-77703936D01*
X103042122Y-77915335D01*
X103042115Y-77915351D01*
X102964065Y-78142703D01*
X102924500Y-78379807D01*
X102924500Y-78620192D01*
X102964065Y-78857296D01*
X103042115Y-79084648D01*
X103042122Y-79084664D01*
X103156525Y-79296063D01*
X103267828Y-79439066D01*
X103304175Y-79485764D01*
X103365389Y-79542115D01*
X103412189Y-79585198D01*
X103466104Y-79661153D01*
X103484464Y-79752470D01*
X103464095Y-79843360D01*
X103412189Y-79914802D01*
X103304176Y-80014235D01*
X103304171Y-80014240D01*
X103156525Y-80203936D01*
X103042122Y-80415335D01*
X103042115Y-80415351D01*
X102964065Y-80642703D01*
X102924500Y-80879807D01*
X102924500Y-81120192D01*
X98075500Y-81120192D01*
X98075500Y-80904808D01*
X98035934Y-80667703D01*
X97957882Y-80440344D01*
X97843472Y-80228933D01*
X97695825Y-80039236D01*
X97587808Y-79939800D01*
X97533895Y-79863848D01*
X97515535Y-79772531D01*
X97535903Y-79681641D01*
X97587808Y-79610199D01*
X97695825Y-79510764D01*
X97843472Y-79321067D01*
X97957882Y-79109656D01*
X98035934Y-78882297D01*
X98075500Y-78645192D01*
X98075500Y-78404808D01*
X98035934Y-78167703D01*
X97957882Y-77940344D01*
X97843472Y-77728933D01*
X97695825Y-77539236D01*
X97587808Y-77439800D01*
X97533895Y-77363848D01*
X97515535Y-77272531D01*
X97535903Y-77181641D01*
X97587808Y-77110199D01*
X97695825Y-77010764D01*
X97843472Y-76821067D01*
X97957882Y-76609656D01*
X98035934Y-76382297D01*
X98075500Y-76145192D01*
X98075500Y-75904808D01*
X98035934Y-75667703D01*
X97957882Y-75440344D01*
X97843472Y-75228933D01*
X97695825Y-75039236D01*
X97518969Y-74876429D01*
X97317728Y-74744951D01*
X97317725Y-74744949D01*
X97317719Y-74744946D01*
X97097598Y-74648393D01*
X97097597Y-74648392D01*
X97097591Y-74648390D01*
X96864563Y-74589380D01*
X96864562Y-74589379D01*
X96864559Y-74589379D01*
X96744506Y-74579431D01*
X96684990Y-74574500D01*
X96315010Y-74574500D01*
X96260048Y-74579054D01*
X96135440Y-74589379D01*
X96077954Y-74603936D01*
X95902409Y-74648390D01*
X95902405Y-74648391D01*
X95902404Y-74648392D01*
X95902401Y-74648393D01*
X95682280Y-74744946D01*
X95682270Y-74744952D01*
X95481030Y-74876429D01*
X95304175Y-75039235D01*
X95304171Y-75039240D01*
X95156525Y-75228936D01*
X95042122Y-75440335D01*
X95042115Y-75440351D01*
X94964065Y-75667703D01*
X94924500Y-75904807D01*
X94924500Y-76145192D01*
X94964065Y-76382296D01*
X95042115Y-76609648D01*
X95042122Y-76609664D01*
X95156525Y-76821063D01*
X95156527Y-76821066D01*
X95156528Y-76821067D01*
X95304175Y-77010764D01*
X95346254Y-77049500D01*
X95412189Y-77110198D01*
X95466104Y-77186153D01*
X95484464Y-77277470D01*
X95464095Y-77368360D01*
X95412189Y-77439802D01*
X95304176Y-77539235D01*
X95304171Y-77539240D01*
X95156525Y-77728936D01*
X95042122Y-77940335D01*
X95042115Y-77940351D01*
X94964065Y-78167703D01*
X94924500Y-78404807D01*
X94924500Y-78645192D01*
X94964065Y-78882296D01*
X95042115Y-79109648D01*
X95042122Y-79109664D01*
X95156525Y-79321063D01*
X95267828Y-79464066D01*
X95304175Y-79510764D01*
X95381639Y-79582075D01*
X95412189Y-79610198D01*
X95466104Y-79686153D01*
X95484464Y-79777470D01*
X95464095Y-79868360D01*
X95412189Y-79939802D01*
X95304176Y-80039235D01*
X95304171Y-80039240D01*
X95156525Y-80228936D01*
X95042122Y-80440335D01*
X95042115Y-80440351D01*
X94964065Y-80667703D01*
X94924500Y-80904807D01*
X94924500Y-81145192D01*
X87450500Y-81145192D01*
X87450500Y-80815010D01*
X87435620Y-80635437D01*
X87376610Y-80402409D01*
X87300518Y-80228936D01*
X87280053Y-80182280D01*
X87280051Y-80182276D01*
X87280049Y-80182272D01*
X87148571Y-79981031D01*
X86985764Y-79804175D01*
X86796067Y-79656528D01*
X86796066Y-79656527D01*
X86796063Y-79656525D01*
X86584664Y-79542122D01*
X86584660Y-79542120D01*
X86584656Y-79542118D01*
X86584650Y-79542116D01*
X86584648Y-79542115D01*
X86357296Y-79464065D01*
X86120193Y-79424500D01*
X86120192Y-79424500D01*
X85879808Y-79424500D01*
X85879807Y-79424500D01*
X85642703Y-79464065D01*
X85415351Y-79542115D01*
X85415335Y-79542122D01*
X85203936Y-79656525D01*
X85014240Y-79804171D01*
X85014235Y-79804176D01*
X84914802Y-79912189D01*
X84838847Y-79966104D01*
X84747530Y-79984464D01*
X84656640Y-79964095D01*
X84585198Y-79912189D01*
X84521836Y-79843360D01*
X84485764Y-79804175D01*
X84296067Y-79656528D01*
X84296066Y-79656527D01*
X84296063Y-79656525D01*
X84084664Y-79542122D01*
X84084660Y-79542120D01*
X84084656Y-79542118D01*
X84084650Y-79542116D01*
X84084648Y-79542115D01*
X83857296Y-79464065D01*
X83620193Y-79424500D01*
X83620192Y-79424500D01*
X83379808Y-79424500D01*
X83379807Y-79424500D01*
X83142703Y-79464065D01*
X82915351Y-79542115D01*
X82915335Y-79542122D01*
X82703936Y-79656525D01*
X82514240Y-79804171D01*
X82514235Y-79804175D01*
X82351429Y-79981030D01*
X82219952Y-80182270D01*
X82219946Y-80182280D01*
X82123393Y-80402401D01*
X82123392Y-80402404D01*
X82123390Y-80402409D01*
X82113784Y-80440344D01*
X82064379Y-80635440D01*
X82049500Y-80815014D01*
X82049500Y-81184986D01*
X70950500Y-81184986D01*
X70950500Y-80790010D01*
X70935620Y-80610437D01*
X70876610Y-80377409D01*
X70811484Y-80228936D01*
X70780053Y-80157280D01*
X70780051Y-80157276D01*
X70780049Y-80157272D01*
X70648571Y-79956031D01*
X70485764Y-79779175D01*
X70483573Y-79777470D01*
X70296063Y-79631525D01*
X70084664Y-79517122D01*
X70084660Y-79517120D01*
X70084656Y-79517118D01*
X70084650Y-79517116D01*
X70084648Y-79517115D01*
X69857296Y-79439065D01*
X69620193Y-79399500D01*
X69620192Y-79399500D01*
X69379808Y-79399500D01*
X69379807Y-79399500D01*
X69142703Y-79439065D01*
X68915351Y-79517115D01*
X68915335Y-79517122D01*
X68703936Y-79631525D01*
X68514240Y-79779171D01*
X68514235Y-79779175D01*
X68351429Y-79956030D01*
X68219952Y-80157270D01*
X68219946Y-80157280D01*
X68123393Y-80377401D01*
X68123392Y-80377404D01*
X68123390Y-80377409D01*
X68078936Y-80552954D01*
X68064379Y-80610440D01*
X68049500Y-80790014D01*
X68049500Y-81209986D01*
X34000000Y-81209986D01*
X34000000Y-72915005D01*
X34894551Y-72915005D01*
X34914316Y-73166142D01*
X34914315Y-73166142D01*
X34944802Y-73293131D01*
X34973127Y-73411111D01*
X35069534Y-73643859D01*
X35069536Y-73643863D01*
X35069539Y-73643868D01*
X35201160Y-73858654D01*
X35201166Y-73858662D01*
X35364773Y-74050221D01*
X35364778Y-74050226D01*
X35556337Y-74213833D01*
X35556345Y-74213839D01*
X35767577Y-74343282D01*
X35771141Y-74345466D01*
X36003889Y-74441873D01*
X36248852Y-74500683D01*
X36363010Y-74509667D01*
X36499994Y-74520449D01*
X36500000Y-74520449D01*
X36500006Y-74520449D01*
X36625574Y-74510566D01*
X36751148Y-74500683D01*
X36996111Y-74441873D01*
X37228859Y-74345466D01*
X37443659Y-74213836D01*
X37635224Y-74050224D01*
X37798836Y-73858659D01*
X37930466Y-73643859D01*
X38026873Y-73411111D01*
X38085683Y-73166148D01*
X38105449Y-72915000D01*
X38085683Y-72663857D01*
X38085684Y-72663857D01*
X38085683Y-72663852D01*
X38026873Y-72418889D01*
X37930466Y-72186141D01*
X37925648Y-72178278D01*
X37798839Y-71971345D01*
X37798833Y-71971337D01*
X37635226Y-71779778D01*
X37635221Y-71779773D01*
X37443662Y-71616166D01*
X37443654Y-71616160D01*
X37228868Y-71484539D01*
X37228863Y-71484536D01*
X37228859Y-71484534D01*
X36996111Y-71388127D01*
X36751148Y-71329317D01*
X36751145Y-71329316D01*
X36751142Y-71329316D01*
X36500006Y-71309551D01*
X36499994Y-71309551D01*
X36248857Y-71329316D01*
X36248853Y-71329316D01*
X36248852Y-71329317D01*
X36003889Y-71388127D01*
X36003887Y-71388127D01*
X36003886Y-71388128D01*
X35771145Y-71484532D01*
X35771131Y-71484539D01*
X35556345Y-71616160D01*
X35556337Y-71616166D01*
X35364778Y-71779773D01*
X35364773Y-71779778D01*
X35201166Y-71971337D01*
X35201160Y-71971345D01*
X35069539Y-72186131D01*
X35069532Y-72186145D01*
X34973128Y-72418886D01*
X34973127Y-72418889D01*
X34914317Y-72663852D01*
X34914316Y-72663857D01*
X34894551Y-72914994D01*
X34894551Y-72915005D01*
X34000000Y-72915005D01*
X34000000Y-67835005D01*
X34894551Y-67835005D01*
X34914316Y-68086142D01*
X34914315Y-68086142D01*
X34931633Y-68158275D01*
X34973127Y-68331111D01*
X35069534Y-68563859D01*
X35069536Y-68563863D01*
X35069539Y-68563868D01*
X35201160Y-68778654D01*
X35201166Y-68778662D01*
X35364773Y-68970221D01*
X35364778Y-68970226D01*
X35556337Y-69133833D01*
X35556345Y-69133839D01*
X35681673Y-69210640D01*
X35771141Y-69265466D01*
X36003889Y-69361873D01*
X36248852Y-69420683D01*
X36363010Y-69429667D01*
X36499994Y-69440449D01*
X36500000Y-69440449D01*
X36500006Y-69440449D01*
X36625574Y-69430566D01*
X36751148Y-69420683D01*
X36996111Y-69361873D01*
X37228859Y-69265466D01*
X37443659Y-69133836D01*
X37635224Y-68970224D01*
X37798836Y-68778659D01*
X37930466Y-68563859D01*
X38026873Y-68331111D01*
X38085683Y-68086148D01*
X38105449Y-67835000D01*
X38085683Y-67583857D01*
X38085684Y-67583857D01*
X38085683Y-67583852D01*
X38026873Y-67338889D01*
X37930466Y-67106141D01*
X37911175Y-67074661D01*
X37798839Y-66891345D01*
X37798833Y-66891337D01*
X37644363Y-66710476D01*
X37599918Y-66628620D01*
X37592610Y-66535762D01*
X37623703Y-66447960D01*
X37644363Y-66419524D01*
X37711304Y-66341145D01*
X37798836Y-66238659D01*
X37930466Y-66023859D01*
X38026873Y-65791111D01*
X38085683Y-65546148D01*
X38105449Y-65295000D01*
X38085683Y-65043857D01*
X38085684Y-65043857D01*
X38085683Y-65043852D01*
X38026873Y-64798889D01*
X37930466Y-64566141D01*
X37930460Y-64566131D01*
X37798839Y-64351345D01*
X37798833Y-64351337D01*
X37644363Y-64170476D01*
X37599918Y-64088620D01*
X37592610Y-63995762D01*
X37623703Y-63907960D01*
X37644363Y-63879524D01*
X37711304Y-63801145D01*
X37798836Y-63698659D01*
X37930466Y-63483859D01*
X38026873Y-63251111D01*
X38085683Y-63006148D01*
X38105449Y-62755000D01*
X38100333Y-62690000D01*
X38085683Y-62503857D01*
X38085684Y-62503857D01*
X38075947Y-62463300D01*
X38026873Y-62258889D01*
X37930466Y-62026141D01*
X37823054Y-61850861D01*
X37798839Y-61811345D01*
X37798833Y-61811337D01*
X37644363Y-61630476D01*
X37599918Y-61548620D01*
X37592610Y-61455762D01*
X37623703Y-61367960D01*
X37644363Y-61339524D01*
X37711304Y-61261145D01*
X37798836Y-61158659D01*
X37930466Y-60943859D01*
X38026873Y-60711111D01*
X38085683Y-60466148D01*
X38105449Y-60215000D01*
X38085683Y-59963857D01*
X38085684Y-59963857D01*
X38085683Y-59963852D01*
X38026873Y-59718889D01*
X37930466Y-59486141D01*
X37838402Y-59335906D01*
X37798839Y-59271345D01*
X37798833Y-59271337D01*
X37644363Y-59090476D01*
X37599918Y-59008620D01*
X37592610Y-58915762D01*
X37623703Y-58827960D01*
X37644363Y-58799524D01*
X37732673Y-58696126D01*
X37798836Y-58618659D01*
X37930466Y-58403859D01*
X38026873Y-58171111D01*
X38085683Y-57926148D01*
X38103786Y-57696132D01*
X38105449Y-57675005D01*
X38105449Y-57674994D01*
X38085683Y-57423857D01*
X38085684Y-57423857D01*
X38085683Y-57423852D01*
X38026873Y-57178889D01*
X37930466Y-56946141D01*
X37862914Y-56835906D01*
X37798839Y-56731345D01*
X37798833Y-56731337D01*
X37644363Y-56550476D01*
X37599918Y-56468620D01*
X37592610Y-56375762D01*
X37623703Y-56287960D01*
X37644363Y-56259524D01*
X37711304Y-56181145D01*
X37798836Y-56078659D01*
X37930466Y-55863859D01*
X38026873Y-55631111D01*
X38085683Y-55386148D01*
X38096601Y-55247426D01*
X38105449Y-55135005D01*
X38105449Y-55134994D01*
X38085683Y-54883857D01*
X38085684Y-54883857D01*
X38085683Y-54883852D01*
X38026873Y-54638889D01*
X37930466Y-54406141D01*
X37930460Y-54406131D01*
X37798839Y-54191345D01*
X37798833Y-54191337D01*
X37644363Y-54010476D01*
X37599918Y-53928620D01*
X37592610Y-53835762D01*
X37623703Y-53747960D01*
X37644363Y-53719524D01*
X37711304Y-53641145D01*
X37798836Y-53538659D01*
X37930466Y-53323859D01*
X38026873Y-53091111D01*
X38085683Y-52846148D01*
X38105449Y-52595000D01*
X38085683Y-52343857D01*
X38085684Y-52343857D01*
X38085683Y-52343852D01*
X38026873Y-52098889D01*
X37930466Y-51866141D01*
X37930460Y-51866131D01*
X37798839Y-51651345D01*
X37798833Y-51651337D01*
X37644363Y-51470476D01*
X37599918Y-51388620D01*
X37592610Y-51295762D01*
X37623703Y-51207960D01*
X37644363Y-51179524D01*
X37711304Y-51101145D01*
X37798836Y-50998659D01*
X37930466Y-50783859D01*
X38026873Y-50551111D01*
X38085683Y-50306148D01*
X38105222Y-50057884D01*
X38105449Y-50055005D01*
X38105449Y-50054994D01*
X38085683Y-49803857D01*
X38085684Y-49803857D01*
X38085683Y-49803852D01*
X38026873Y-49558889D01*
X37930466Y-49326141D01*
X37851693Y-49197595D01*
X37798839Y-49111345D01*
X37798833Y-49111337D01*
X37644363Y-48930476D01*
X37599918Y-48848620D01*
X37592610Y-48755762D01*
X37623703Y-48667960D01*
X37644363Y-48639524D01*
X37711304Y-48561145D01*
X37798836Y-48458659D01*
X37930466Y-48243859D01*
X38026873Y-48011111D01*
X38085683Y-47766148D01*
X38096464Y-47629158D01*
X38105449Y-47515005D01*
X38105449Y-47514994D01*
X38085683Y-47263857D01*
X38085684Y-47263857D01*
X38072965Y-47210879D01*
X38026873Y-47018889D01*
X37930466Y-46786141D01*
X37930460Y-46786131D01*
X37798839Y-46571345D01*
X37798833Y-46571337D01*
X37644363Y-46390476D01*
X37599918Y-46308620D01*
X37592610Y-46215762D01*
X37623703Y-46127960D01*
X37644363Y-46099524D01*
X37779360Y-45941462D01*
X37798836Y-45918659D01*
X37930466Y-45703859D01*
X38026873Y-45471111D01*
X38085683Y-45226148D01*
X38105449Y-44975000D01*
X38085683Y-44723857D01*
X38085684Y-44723857D01*
X38085683Y-44723852D01*
X38026873Y-44478889D01*
X37930466Y-44246141D01*
X37930460Y-44246131D01*
X37798839Y-44031345D01*
X37798833Y-44031337D01*
X37644363Y-43850476D01*
X37599918Y-43768620D01*
X37592610Y-43675762D01*
X37623703Y-43587960D01*
X37644363Y-43559524D01*
X37711304Y-43481145D01*
X37798836Y-43378659D01*
X37930466Y-43163859D01*
X38026873Y-42931111D01*
X38085683Y-42686148D01*
X38105449Y-42435000D01*
X38102505Y-42397598D01*
X38085683Y-42183857D01*
X38085684Y-42183857D01*
X38081051Y-42164559D01*
X38026873Y-41938889D01*
X37930466Y-41706141D01*
X37816705Y-41520500D01*
X37798839Y-41491345D01*
X37798833Y-41491337D01*
X37644363Y-41310476D01*
X37599918Y-41228620D01*
X37592610Y-41135762D01*
X37623703Y-41047960D01*
X37644363Y-41019524D01*
X37711304Y-40941145D01*
X37798836Y-40838659D01*
X37930466Y-40623859D01*
X38026873Y-40391111D01*
X38085683Y-40146148D01*
X38105449Y-39895000D01*
X38104952Y-39888689D01*
X38085683Y-39643857D01*
X38085684Y-39643857D01*
X38058070Y-39528836D01*
X38026873Y-39398889D01*
X37930466Y-39166141D01*
X37930460Y-39166131D01*
X37798839Y-38951345D01*
X37798833Y-38951337D01*
X37644363Y-38770476D01*
X37599918Y-38688620D01*
X37592610Y-38595762D01*
X37623703Y-38507960D01*
X37644363Y-38479524D01*
X37711304Y-38401145D01*
X37798836Y-38298659D01*
X37930466Y-38083859D01*
X38026873Y-37851111D01*
X38085683Y-37606148D01*
X38105449Y-37355000D01*
X38085683Y-37103857D01*
X38085684Y-37103857D01*
X38085683Y-37103852D01*
X38026873Y-36858889D01*
X37930466Y-36626141D01*
X37842677Y-36482882D01*
X37798839Y-36411345D01*
X37798833Y-36411337D01*
X37635226Y-36219778D01*
X37635221Y-36219773D01*
X37443662Y-36056166D01*
X37443654Y-36056160D01*
X37352009Y-36000000D01*
X39500000Y-36000000D01*
X39500000Y-76500000D01*
X58500000Y-76500000D01*
X58500000Y-73954353D01*
X60299500Y-73954353D01*
X60299501Y-73954368D01*
X60314955Y-74071757D01*
X60314956Y-74071762D01*
X60314956Y-74071763D01*
X60314957Y-74071765D01*
X60375462Y-74217838D01*
X60375466Y-74217846D01*
X60471714Y-74343278D01*
X60471721Y-74343285D01*
X60597153Y-74439533D01*
X60597163Y-74439538D01*
X60670198Y-74469790D01*
X60743238Y-74500044D01*
X60860639Y-74515500D01*
X62939360Y-74515499D01*
X63056762Y-74500044D01*
X63202841Y-74439536D01*
X63202842Y-74439534D01*
X63202846Y-74439533D01*
X63328278Y-74343285D01*
X63328277Y-74343285D01*
X63328282Y-74343282D01*
X63335647Y-74333682D01*
X63424533Y-74217846D01*
X63424534Y-74217842D01*
X63424536Y-74217841D01*
X63485044Y-74071762D01*
X63500500Y-73954361D01*
X63500500Y-72915004D01*
X77919892Y-72915004D01*
X77938282Y-73113465D01*
X77992829Y-73305180D01*
X77992830Y-73305183D01*
X78081672Y-73483600D01*
X78081677Y-73483609D01*
X78201788Y-73642661D01*
X78201790Y-73642663D01*
X78201791Y-73642664D01*
X78349090Y-73776945D01*
X78518554Y-73881873D01*
X78704414Y-73953876D01*
X78900340Y-73990500D01*
X79099660Y-73990500D01*
X79295586Y-73953876D01*
X79481446Y-73881873D01*
X79650910Y-73776945D01*
X79798209Y-73642664D01*
X79918326Y-73483604D01*
X80007171Y-73305180D01*
X80061717Y-73113469D01*
X80080108Y-72915000D01*
X80080107Y-72914994D01*
X80061717Y-72716534D01*
X80061717Y-72716531D01*
X80007171Y-72524820D01*
X79918326Y-72346396D01*
X79918323Y-72346392D01*
X79918322Y-72346390D01*
X79798211Y-72187338D01*
X79796902Y-72186145D01*
X79650910Y-72053055D01*
X79481446Y-71948127D01*
X79295586Y-71876124D01*
X79295583Y-71876123D01*
X79295582Y-71876123D01*
X79099660Y-71839500D01*
X78900340Y-71839500D01*
X78704417Y-71876123D01*
X78704411Y-71876125D01*
X78518558Y-71948125D01*
X78518556Y-71948126D01*
X78518554Y-71948127D01*
X78481056Y-71971345D01*
X78349088Y-72053056D01*
X78201788Y-72187338D01*
X78081677Y-72346390D01*
X78081672Y-72346399D01*
X77992830Y-72524816D01*
X77992829Y-72524819D01*
X77938282Y-72716534D01*
X77919892Y-72914995D01*
X77919892Y-72915004D01*
X63500500Y-72915004D01*
X63500499Y-71875640D01*
X63485044Y-71758238D01*
X63424536Y-71612159D01*
X63424533Y-71612153D01*
X63328285Y-71486721D01*
X63328278Y-71486714D01*
X63202846Y-71390466D01*
X63202836Y-71390461D01*
X63056765Y-71329957D01*
X63056763Y-71329956D01*
X63017628Y-71324804D01*
X62939361Y-71314500D01*
X62939359Y-71314500D01*
X60860646Y-71314500D01*
X60860631Y-71314501D01*
X60743242Y-71329955D01*
X60743234Y-71329957D01*
X60597161Y-71390462D01*
X60597153Y-71390466D01*
X60471721Y-71486714D01*
X60471714Y-71486721D01*
X60375466Y-71612153D01*
X60375461Y-71612163D01*
X60314957Y-71758234D01*
X60314956Y-71758236D01*
X60299500Y-71875637D01*
X60299500Y-73954353D01*
X58500000Y-73954353D01*
X58500000Y-71058970D01*
X68069500Y-71058970D01*
X68084937Y-71235411D01*
X68084939Y-71235418D01*
X68146094Y-71463655D01*
X68146097Y-71463663D01*
X68245965Y-71677830D01*
X68381505Y-71871402D01*
X68381506Y-71871403D01*
X68481441Y-71971337D01*
X68548599Y-72038495D01*
X68742170Y-72174035D01*
X68956337Y-72273903D01*
X68956342Y-72273904D01*
X68956344Y-72273905D01*
X69116751Y-72316885D01*
X69184592Y-72335063D01*
X69420000Y-72355659D01*
X69655408Y-72335063D01*
X69883663Y-72273903D01*
X70097829Y-72174035D01*
X70291401Y-72038495D01*
X70458495Y-71871401D01*
X70515945Y-71789353D01*
X73149500Y-71789353D01*
X73149501Y-71789368D01*
X73164955Y-71906757D01*
X73164956Y-71906762D01*
X73164956Y-71906763D01*
X73164957Y-71906765D01*
X73225462Y-72052838D01*
X73225466Y-72052846D01*
X73321714Y-72178278D01*
X73321721Y-72178285D01*
X73447153Y-72274533D01*
X73447163Y-72274538D01*
X73520198Y-72304790D01*
X73593238Y-72335044D01*
X73710639Y-72350500D01*
X75289360Y-72350499D01*
X75406762Y-72335044D01*
X75552841Y-72274536D01*
X75552842Y-72274534D01*
X75552846Y-72274533D01*
X75678278Y-72178285D01*
X75678277Y-72178285D01*
X75678282Y-72178282D01*
X75685647Y-72168682D01*
X75774533Y-72052846D01*
X75774534Y-72052842D01*
X75774536Y-72052841D01*
X75835044Y-71906762D01*
X75850500Y-71789361D01*
X75850499Y-70310000D01*
X103694532Y-70310000D01*
X103714365Y-70536695D01*
X103714366Y-70536699D01*
X103773259Y-70756490D01*
X103773261Y-70756496D01*
X103869431Y-70962733D01*
X103999953Y-71149139D01*
X104160861Y-71310047D01*
X104347266Y-71440568D01*
X104553504Y-71536739D01*
X104708005Y-71578137D01*
X104773300Y-71595633D01*
X104773304Y-71595634D01*
X104773308Y-71595635D01*
X105000000Y-71615468D01*
X105226692Y-71595635D01*
X105446496Y-71536739D01*
X105652734Y-71440568D01*
X105839139Y-71310047D01*
X106000047Y-71149139D01*
X106130568Y-70962734D01*
X106226739Y-70756496D01*
X106285635Y-70536692D01*
X106305468Y-70310000D01*
X106285635Y-70083308D01*
X106226739Y-69863504D01*
X106130568Y-69657266D01*
X106000047Y-69470861D01*
X105839139Y-69309953D01*
X105775606Y-69265467D01*
X105652733Y-69179431D01*
X105446496Y-69083261D01*
X105446490Y-69083259D01*
X105226699Y-69024366D01*
X105226695Y-69024365D01*
X105000000Y-69004532D01*
X104773304Y-69024365D01*
X104773300Y-69024366D01*
X104553509Y-69083259D01*
X104553503Y-69083261D01*
X104347266Y-69179431D01*
X104160860Y-69309953D01*
X103999953Y-69470860D01*
X103869431Y-69657266D01*
X103773261Y-69863503D01*
X103773259Y-69863509D01*
X103714366Y-70083300D01*
X103714365Y-70083304D01*
X103694532Y-70310000D01*
X75850499Y-70310000D01*
X75850499Y-69210640D01*
X75835044Y-69093238D01*
X75780478Y-68961505D01*
X75774537Y-68947161D01*
X75774533Y-68947153D01*
X75678285Y-68821721D01*
X75678278Y-68821714D01*
X75552846Y-68725466D01*
X75552836Y-68725461D01*
X75406765Y-68664957D01*
X75406763Y-68664956D01*
X75367628Y-68659804D01*
X75289361Y-68649500D01*
X75289359Y-68649500D01*
X73710639Y-68649500D01*
X73593242Y-68664955D01*
X73593234Y-68664957D01*
X73447161Y-68725462D01*
X73447153Y-68725466D01*
X73321721Y-68821714D01*
X73321714Y-68821721D01*
X73225466Y-68947153D01*
X73225461Y-68947163D01*
X73164957Y-69093234D01*
X73164956Y-69093236D01*
X73149500Y-69210637D01*
X73149500Y-71789353D01*
X70515945Y-71789353D01*
X70594035Y-71677829D01*
X70693903Y-71463663D01*
X70755063Y-71235408D01*
X70770500Y-71058966D01*
X70770500Y-69941034D01*
X70755063Y-69764592D01*
X70693903Y-69536337D01*
X70594035Y-69322171D01*
X70515941Y-69210640D01*
X70458494Y-69128597D01*
X70458493Y-69128596D01*
X70291408Y-68961512D01*
X70291401Y-68961505D01*
X70097830Y-68825965D01*
X69883663Y-68726097D01*
X69883655Y-68726094D01*
X69655418Y-68664939D01*
X69655411Y-68664937D01*
X69420000Y-68644341D01*
X69184588Y-68664937D01*
X69184581Y-68664939D01*
X68956344Y-68726094D01*
X68956336Y-68726097D01*
X68742169Y-68825965D01*
X68548600Y-68961503D01*
X68381503Y-69128600D01*
X68245965Y-69322169D01*
X68146097Y-69536336D01*
X68146094Y-69536344D01*
X68084939Y-69764581D01*
X68084937Y-69764588D01*
X68069500Y-69941030D01*
X68069500Y-71058970D01*
X58500000Y-71058970D01*
X58500000Y-67835005D01*
X60294551Y-67835005D01*
X60314316Y-68086142D01*
X60314315Y-68086142D01*
X60331633Y-68158275D01*
X60373127Y-68331111D01*
X60469534Y-68563859D01*
X60469536Y-68563863D01*
X60469539Y-68563868D01*
X60601160Y-68778654D01*
X60601166Y-68778662D01*
X60764773Y-68970221D01*
X60764778Y-68970226D01*
X60956337Y-69133833D01*
X60956345Y-69133839D01*
X61081673Y-69210640D01*
X61171141Y-69265466D01*
X61403889Y-69361873D01*
X61648852Y-69420683D01*
X61763010Y-69429667D01*
X61899994Y-69440449D01*
X61900000Y-69440449D01*
X61900006Y-69440449D01*
X62025574Y-69430566D01*
X62151148Y-69420683D01*
X62396111Y-69361873D01*
X62628859Y-69265466D01*
X62843659Y-69133836D01*
X63035224Y-68970224D01*
X63198836Y-68778659D01*
X63330466Y-68563859D01*
X63426873Y-68331111D01*
X63485683Y-68086148D01*
X63496213Y-67952349D01*
X82492072Y-67952349D01*
X82512354Y-68158275D01*
X82512354Y-68158277D01*
X82512355Y-68158279D01*
X82564782Y-68331111D01*
X82572424Y-68356301D01*
X82669970Y-68538796D01*
X82669971Y-68538797D01*
X82756589Y-68644341D01*
X82801245Y-68698755D01*
X82833793Y-68725466D01*
X82961202Y-68830028D01*
X82961203Y-68830029D01*
X82961205Y-68830030D01*
X83143701Y-68927577D01*
X83341721Y-68987645D01*
X83429978Y-68996337D01*
X83547651Y-69007928D01*
X83547655Y-69007928D01*
X83547659Y-69007928D01*
X83650622Y-68997786D01*
X83753589Y-68987645D01*
X83951609Y-68927577D01*
X84134105Y-68830030D01*
X84294065Y-68698755D01*
X84425340Y-68538795D01*
X84522887Y-68356299D01*
X84582955Y-68158279D01*
X84603238Y-67952345D01*
X84582955Y-67746411D01*
X84522887Y-67548391D01*
X84425340Y-67365895D01*
X84425339Y-67365893D01*
X84425338Y-67365892D01*
X84294067Y-67205938D01*
X84294065Y-67205935D01*
X84172453Y-67106131D01*
X84134107Y-67074661D01*
X84134106Y-67074660D01*
X83951611Y-66977114D01*
X83951610Y-66977113D01*
X83951609Y-66977113D01*
X83753589Y-66917045D01*
X83753587Y-66917044D01*
X83753585Y-66917044D01*
X83547659Y-66896762D01*
X83547651Y-66896762D01*
X83341724Y-66917044D01*
X83143698Y-66977114D01*
X82961203Y-67074660D01*
X82961202Y-67074661D01*
X82801248Y-67205932D01*
X82801242Y-67205938D01*
X82669971Y-67365892D01*
X82669970Y-67365893D01*
X82572424Y-67548388D01*
X82512354Y-67746414D01*
X82492072Y-67952340D01*
X82492072Y-67952349D01*
X63496213Y-67952349D01*
X63505449Y-67835000D01*
X63485683Y-67583857D01*
X63485684Y-67583857D01*
X63485683Y-67583852D01*
X63426873Y-67338889D01*
X63330466Y-67106141D01*
X63311175Y-67074661D01*
X63198839Y-66891345D01*
X63198833Y-66891337D01*
X63044363Y-66710476D01*
X62999918Y-66628620D01*
X62992610Y-66535762D01*
X63023703Y-66447960D01*
X63044363Y-66419524D01*
X63111304Y-66341145D01*
X63198836Y-66238659D01*
X63330466Y-66023859D01*
X63426873Y-65791111D01*
X63485683Y-65546148D01*
X63505449Y-65295000D01*
X63485683Y-65043857D01*
X63485684Y-65043857D01*
X63485683Y-65043852D01*
X63426873Y-64798889D01*
X63330466Y-64566141D01*
X63330460Y-64566131D01*
X63198839Y-64351345D01*
X63198833Y-64351337D01*
X63044363Y-64170476D01*
X62999918Y-64088620D01*
X62992610Y-63995762D01*
X63023703Y-63907960D01*
X63044363Y-63879524D01*
X63111304Y-63801145D01*
X63198836Y-63698659D01*
X63330466Y-63483859D01*
X63426873Y-63251111D01*
X63485683Y-63006148D01*
X63505449Y-62755000D01*
X63500333Y-62690000D01*
X100194532Y-62690000D01*
X100214365Y-62916695D01*
X100214366Y-62916699D01*
X100273259Y-63136490D01*
X100273261Y-63136496D01*
X100369431Y-63342733D01*
X100369432Y-63342734D01*
X100499953Y-63529139D01*
X100660861Y-63690047D01*
X100847266Y-63820568D01*
X101053504Y-63916739D01*
X101208005Y-63958137D01*
X101273300Y-63975633D01*
X101273304Y-63975634D01*
X101273308Y-63975635D01*
X101500000Y-63995468D01*
X101726692Y-63975635D01*
X101946496Y-63916739D01*
X102152734Y-63820568D01*
X102339139Y-63690047D01*
X102500047Y-63529139D01*
X102630568Y-63342734D01*
X102726739Y-63136496D01*
X102785635Y-62916692D01*
X102805468Y-62690000D01*
X103694532Y-62690000D01*
X103714365Y-62916695D01*
X103714366Y-62916699D01*
X103773259Y-63136490D01*
X103773261Y-63136496D01*
X103869431Y-63342733D01*
X103869432Y-63342734D01*
X103999953Y-63529139D01*
X104160861Y-63690047D01*
X104347266Y-63820568D01*
X104553504Y-63916739D01*
X104708005Y-63958137D01*
X104773300Y-63975633D01*
X104773304Y-63975634D01*
X104773308Y-63975635D01*
X105000000Y-63995468D01*
X105226692Y-63975635D01*
X105446496Y-63916739D01*
X105652734Y-63820568D01*
X105839139Y-63690047D01*
X106000047Y-63529139D01*
X106130568Y-63342734D01*
X106226739Y-63136496D01*
X106285635Y-62916692D01*
X106305468Y-62690000D01*
X106285635Y-62463308D01*
X106226739Y-62243504D01*
X106130568Y-62037266D01*
X106000047Y-61850861D01*
X105839139Y-61689953D01*
X105652734Y-61559432D01*
X105652735Y-61559432D01*
X105652733Y-61559431D01*
X105446496Y-61463261D01*
X105446490Y-61463259D01*
X105226699Y-61404366D01*
X105226695Y-61404365D01*
X105000000Y-61384532D01*
X104773304Y-61404365D01*
X104773300Y-61404366D01*
X104553509Y-61463259D01*
X104553503Y-61463261D01*
X104347266Y-61559431D01*
X104160860Y-61689953D01*
X103999953Y-61850860D01*
X103869431Y-62037266D01*
X103773261Y-62243503D01*
X103773259Y-62243509D01*
X103714366Y-62463300D01*
X103714365Y-62463304D01*
X103694532Y-62690000D01*
X102805468Y-62690000D01*
X102785635Y-62463308D01*
X102726739Y-62243504D01*
X102630568Y-62037266D01*
X102500047Y-61850861D01*
X102339139Y-61689953D01*
X102152734Y-61559432D01*
X102152735Y-61559432D01*
X102152733Y-61559431D01*
X101946496Y-61463261D01*
X101946490Y-61463259D01*
X101726699Y-61404366D01*
X101726695Y-61404365D01*
X101500000Y-61384532D01*
X101273304Y-61404365D01*
X101273300Y-61404366D01*
X101053509Y-61463259D01*
X101053503Y-61463261D01*
X100847266Y-61559431D01*
X100660860Y-61689953D01*
X100499953Y-61850860D01*
X100369431Y-62037266D01*
X100273261Y-62243503D01*
X100273259Y-62243509D01*
X100214366Y-62463300D01*
X100214365Y-62463304D01*
X100194532Y-62690000D01*
X63500333Y-62690000D01*
X63485683Y-62503857D01*
X63485684Y-62503857D01*
X63475947Y-62463300D01*
X63426873Y-62258889D01*
X63330466Y-62026141D01*
X63223054Y-61850861D01*
X63198839Y-61811345D01*
X63198833Y-61811337D01*
X63044363Y-61630476D01*
X62999918Y-61548620D01*
X62992610Y-61455762D01*
X63023703Y-61367960D01*
X63044363Y-61339524D01*
X63111304Y-61261145D01*
X63198836Y-61158659D01*
X63330466Y-60943859D01*
X63426873Y-60711111D01*
X63485683Y-60466148D01*
X63505449Y-60215000D01*
X63485683Y-59963857D01*
X63485684Y-59963857D01*
X63485683Y-59963852D01*
X63426873Y-59718889D01*
X63330466Y-59486141D01*
X63238402Y-59335906D01*
X63198839Y-59271345D01*
X63198833Y-59271337D01*
X63044363Y-59090476D01*
X62999918Y-59008620D01*
X62992610Y-58915762D01*
X63023703Y-58827960D01*
X63044363Y-58799524D01*
X63132673Y-58696126D01*
X63198836Y-58618659D01*
X63330466Y-58403859D01*
X63426873Y-58171111D01*
X63485683Y-57926148D01*
X63503786Y-57696132D01*
X63505449Y-57675005D01*
X63505449Y-57674994D01*
X63491676Y-57500004D01*
X72994659Y-57500004D01*
X73013974Y-57696126D01*
X73071187Y-57884731D01*
X73164086Y-58058532D01*
X73164093Y-58058542D01*
X73289113Y-58210879D01*
X73289120Y-58210886D01*
X73402419Y-58303868D01*
X73441462Y-58335910D01*
X73441465Y-58335911D01*
X73441467Y-58335913D01*
X73615268Y-58428812D01*
X73615270Y-58428812D01*
X73615273Y-58428814D01*
X73803868Y-58486024D01*
X73803870Y-58486024D01*
X73803873Y-58486025D01*
X73999995Y-58505341D01*
X74000000Y-58505341D01*
X74000005Y-58505341D01*
X74054193Y-58500004D01*
X88494659Y-58500004D01*
X88513974Y-58696126D01*
X88571187Y-58884731D01*
X88664086Y-59058532D01*
X88664093Y-59058542D01*
X88789113Y-59210879D01*
X88789120Y-59210886D01*
X88941457Y-59335906D01*
X88941462Y-59335910D01*
X88941465Y-59335911D01*
X88941467Y-59335913D01*
X89115268Y-59428812D01*
X89115270Y-59428812D01*
X89115273Y-59428814D01*
X89303868Y-59486024D01*
X89303870Y-59486024D01*
X89303873Y-59486025D01*
X89499995Y-59505341D01*
X89500000Y-59505341D01*
X89500005Y-59505341D01*
X89696126Y-59486025D01*
X89696127Y-59486024D01*
X89696132Y-59486024D01*
X89884727Y-59428814D01*
X90058538Y-59335910D01*
X90210883Y-59210883D01*
X90335910Y-59058538D01*
X90396597Y-58945000D01*
X90428812Y-58884731D01*
X90428812Y-58884730D01*
X90428814Y-58884727D01*
X90486024Y-58696132D01*
X90493655Y-58618659D01*
X90505341Y-58500004D01*
X90505341Y-58499995D01*
X90486025Y-58303873D01*
X90486024Y-58303870D01*
X90486024Y-58303868D01*
X90428814Y-58115273D01*
X90428812Y-58115270D01*
X90428812Y-58115268D01*
X90335913Y-57941467D01*
X90335911Y-57941465D01*
X90335910Y-57941462D01*
X90289349Y-57884727D01*
X90210886Y-57789120D01*
X90210879Y-57789113D01*
X90058542Y-57664093D01*
X90058532Y-57664086D01*
X89884731Y-57571187D01*
X89696126Y-57513974D01*
X89500005Y-57494659D01*
X89499995Y-57494659D01*
X89303873Y-57513974D01*
X89115268Y-57571187D01*
X88941467Y-57664086D01*
X88941457Y-57664093D01*
X88789120Y-57789113D01*
X88789113Y-57789120D01*
X88664093Y-57941457D01*
X88664086Y-57941467D01*
X88571187Y-58115268D01*
X88513974Y-58303873D01*
X88494659Y-58499995D01*
X88494659Y-58500004D01*
X74054193Y-58500004D01*
X74196126Y-58486025D01*
X74196127Y-58486024D01*
X74196132Y-58486024D01*
X74384727Y-58428814D01*
X74431415Y-58403859D01*
X74558532Y-58335913D01*
X74558530Y-58335913D01*
X74558538Y-58335910D01*
X74710883Y-58210883D01*
X74835910Y-58058538D01*
X74898486Y-57941467D01*
X74928812Y-57884731D01*
X74928812Y-57884730D01*
X74928814Y-57884727D01*
X74986024Y-57696132D01*
X74988106Y-57675000D01*
X75005341Y-57500004D01*
X75005341Y-57499995D01*
X74986025Y-57303873D01*
X74986024Y-57303870D01*
X74986024Y-57303868D01*
X74928814Y-57115273D01*
X74928812Y-57115270D01*
X74928812Y-57115268D01*
X74835913Y-56941467D01*
X74835911Y-56941465D01*
X74835910Y-56941462D01*
X74795402Y-56892103D01*
X74752574Y-56809391D01*
X74747090Y-56716408D01*
X74779900Y-56629233D01*
X74795398Y-56607900D01*
X74835910Y-56558538D01*
X74928814Y-56384727D01*
X74986024Y-56196132D01*
X74997594Y-56078663D01*
X75005341Y-56000004D01*
X76494659Y-56000004D01*
X76513974Y-56196126D01*
X76571187Y-56384731D01*
X76664086Y-56558532D01*
X76664093Y-56558542D01*
X76789113Y-56710879D01*
X76789120Y-56710886D01*
X76941457Y-56835906D01*
X76941462Y-56835910D01*
X76941465Y-56835911D01*
X76941467Y-56835913D01*
X77115268Y-56928812D01*
X77115270Y-56928812D01*
X77115273Y-56928814D01*
X77303868Y-56986024D01*
X77303870Y-56986024D01*
X77303873Y-56986025D01*
X77499995Y-57005341D01*
X77500000Y-57005341D01*
X77500005Y-57005341D01*
X77696126Y-56986025D01*
X77696127Y-56986024D01*
X77696132Y-56986024D01*
X77884727Y-56928814D01*
X78058538Y-56835910D01*
X78107896Y-56795402D01*
X78190609Y-56752574D01*
X78283592Y-56747090D01*
X78370767Y-56779900D01*
X78392099Y-56795398D01*
X78441462Y-56835910D01*
X78441465Y-56835911D01*
X78441467Y-56835913D01*
X78615268Y-56928812D01*
X78615270Y-56928812D01*
X78615273Y-56928814D01*
X78803868Y-56986024D01*
X78803870Y-56986024D01*
X78803873Y-56986025D01*
X78999995Y-57005341D01*
X79000000Y-57005341D01*
X79000005Y-57005341D01*
X79196126Y-56986025D01*
X79196127Y-56986024D01*
X79196132Y-56986024D01*
X79384727Y-56928814D01*
X79558538Y-56835910D01*
X79710883Y-56710883D01*
X79835910Y-56558538D01*
X79928814Y-56384727D01*
X79986024Y-56196132D01*
X79997594Y-56078663D01*
X80005341Y-56000004D01*
X80005341Y-55999995D01*
X79986025Y-55803873D01*
X79986024Y-55803870D01*
X79986024Y-55803868D01*
X79928814Y-55615273D01*
X79928812Y-55615270D01*
X79928812Y-55615268D01*
X79912628Y-55584990D01*
X99049500Y-55584990D01*
X99053322Y-55631111D01*
X99064379Y-55764559D01*
X99064379Y-55764562D01*
X99064380Y-55764563D01*
X99123390Y-55997591D01*
X99123392Y-55997595D01*
X99123393Y-55997598D01*
X99219946Y-56217719D01*
X99219949Y-56217725D01*
X99219951Y-56217728D01*
X99351429Y-56418969D01*
X99514236Y-56595825D01*
X99688352Y-56731345D01*
X99703936Y-56743474D01*
X99861248Y-56828606D01*
X99915344Y-56857882D01*
X100015033Y-56892105D01*
X100142703Y-56935934D01*
X100379807Y-56975500D01*
X100379808Y-56975500D01*
X100620193Y-56975500D01*
X100796190Y-56946131D01*
X100857297Y-56935934D01*
X101084656Y-56857882D01*
X101296067Y-56743472D01*
X101485764Y-56595825D01*
X101648571Y-56418969D01*
X101780049Y-56217728D01*
X101876610Y-55997591D01*
X101935620Y-55764563D01*
X101950500Y-55584990D01*
X101950500Y-55165010D01*
X101935620Y-54985437D01*
X101876610Y-54752409D01*
X101780049Y-54532272D01*
X101648571Y-54331031D01*
X101485764Y-54154175D01*
X101296067Y-54006528D01*
X101296066Y-54006527D01*
X101296063Y-54006525D01*
X101084664Y-53892122D01*
X101084660Y-53892120D01*
X101084656Y-53892118D01*
X101084650Y-53892116D01*
X101084648Y-53892115D01*
X100857296Y-53814065D01*
X100620193Y-53774500D01*
X100620192Y-53774500D01*
X100379808Y-53774500D01*
X100379807Y-53774500D01*
X100142703Y-53814065D01*
X99915351Y-53892115D01*
X99915335Y-53892122D01*
X99703936Y-54006525D01*
X99514240Y-54154171D01*
X99514235Y-54154175D01*
X99351429Y-54331030D01*
X99219952Y-54532270D01*
X99219946Y-54532280D01*
X99123393Y-54752401D01*
X99123392Y-54752404D01*
X99123390Y-54752409D01*
X99090105Y-54883852D01*
X99064379Y-54985440D01*
X99057274Y-55071187D01*
X99049500Y-55165010D01*
X99049500Y-55584990D01*
X79912628Y-55584990D01*
X79835913Y-55441467D01*
X79835911Y-55441465D01*
X79835910Y-55441462D01*
X79790510Y-55386142D01*
X79710886Y-55289120D01*
X79710879Y-55289113D01*
X79558542Y-55164093D01*
X79558532Y-55164086D01*
X79384731Y-55071187D01*
X79196126Y-55013974D01*
X79000005Y-54994659D01*
X78999995Y-54994659D01*
X78803873Y-55013974D01*
X78615268Y-55071187D01*
X78441467Y-55164086D01*
X78441463Y-55164089D01*
X78441462Y-55164090D01*
X78392103Y-55204597D01*
X78309391Y-55247426D01*
X78216408Y-55252910D01*
X78129233Y-55220100D01*
X78107900Y-55204601D01*
X78058538Y-55164090D01*
X78058535Y-55164088D01*
X78058532Y-55164086D01*
X77884731Y-55071187D01*
X77696126Y-55013974D01*
X77500005Y-54994659D01*
X77499995Y-54994659D01*
X77303873Y-55013974D01*
X77115268Y-55071187D01*
X76941467Y-55164086D01*
X76941457Y-55164093D01*
X76789120Y-55289113D01*
X76789113Y-55289120D01*
X76664093Y-55441457D01*
X76664086Y-55441467D01*
X76571187Y-55615268D01*
X76513974Y-55803873D01*
X76494659Y-55999995D01*
X76494659Y-56000004D01*
X75005341Y-56000004D01*
X75005341Y-55999995D01*
X74986025Y-55803873D01*
X74986024Y-55803870D01*
X74986024Y-55803868D01*
X74928814Y-55615273D01*
X74928812Y-55615270D01*
X74928812Y-55615268D01*
X74835913Y-55441467D01*
X74835911Y-55441465D01*
X74835910Y-55441462D01*
X74790510Y-55386142D01*
X74710886Y-55289120D01*
X74710879Y-55289113D01*
X74558542Y-55164093D01*
X74558532Y-55164086D01*
X74384731Y-55071187D01*
X74196126Y-55013974D01*
X74000005Y-54994659D01*
X73999995Y-54994659D01*
X73803873Y-55013974D01*
X73615268Y-55071187D01*
X73441467Y-55164086D01*
X73441457Y-55164093D01*
X73289120Y-55289113D01*
X73289113Y-55289120D01*
X73164093Y-55441457D01*
X73164086Y-55441467D01*
X73071187Y-55615268D01*
X73013974Y-55803873D01*
X72994659Y-55999995D01*
X72994659Y-56000004D01*
X73013974Y-56196126D01*
X73071187Y-56384731D01*
X73164086Y-56558532D01*
X73164088Y-56558535D01*
X73164090Y-56558538D01*
X73204597Y-56607896D01*
X73247426Y-56690609D01*
X73252910Y-56783592D01*
X73220100Y-56870767D01*
X73204601Y-56892099D01*
X73174472Y-56928812D01*
X73164089Y-56941463D01*
X73164086Y-56941467D01*
X73071187Y-57115268D01*
X73013974Y-57303873D01*
X72994659Y-57499995D01*
X72994659Y-57500004D01*
X63491676Y-57500004D01*
X63485683Y-57423857D01*
X63485684Y-57423857D01*
X63485683Y-57423852D01*
X63426873Y-57178889D01*
X63330466Y-56946141D01*
X63262914Y-56835906D01*
X63198839Y-56731345D01*
X63198833Y-56731337D01*
X63044363Y-56550476D01*
X62999918Y-56468620D01*
X62992610Y-56375762D01*
X63023703Y-56287960D01*
X63044363Y-56259524D01*
X63111304Y-56181145D01*
X63198836Y-56078659D01*
X63330466Y-55863859D01*
X63426873Y-55631111D01*
X63485683Y-55386148D01*
X63496601Y-55247426D01*
X63505449Y-55135005D01*
X63505449Y-55134994D01*
X63485683Y-54883857D01*
X63485684Y-54883857D01*
X63485683Y-54883852D01*
X63426873Y-54638889D01*
X63330466Y-54406141D01*
X63330460Y-54406131D01*
X63198839Y-54191345D01*
X63198833Y-54191337D01*
X63044363Y-54010476D01*
X62999918Y-53928620D01*
X62992610Y-53835762D01*
X63023703Y-53747960D01*
X63044363Y-53719524D01*
X63111304Y-53641145D01*
X63198836Y-53538659D01*
X63330466Y-53323859D01*
X63426873Y-53091111D01*
X63485683Y-52846148D01*
X63505449Y-52595000D01*
X63485683Y-52343857D01*
X63485684Y-52343857D01*
X63485683Y-52343852D01*
X63426873Y-52098889D01*
X63330466Y-51866141D01*
X63330460Y-51866131D01*
X63198839Y-51651345D01*
X63198833Y-51651337D01*
X63044363Y-51470476D01*
X62999918Y-51388620D01*
X62992610Y-51295762D01*
X63023703Y-51207960D01*
X63044363Y-51179524D01*
X63111304Y-51101145D01*
X63198836Y-50998659D01*
X63330466Y-50783859D01*
X63426873Y-50551111D01*
X63485683Y-50306148D01*
X63505222Y-50057884D01*
X63505449Y-50055005D01*
X63505449Y-50054994D01*
X63485683Y-49803857D01*
X63485684Y-49803857D01*
X63485683Y-49803852D01*
X63426873Y-49558889D01*
X63330466Y-49326141D01*
X63251693Y-49197595D01*
X63198839Y-49111345D01*
X63198833Y-49111337D01*
X63044363Y-48930476D01*
X62999918Y-48848620D01*
X62992610Y-48755762D01*
X63023703Y-48667960D01*
X63044363Y-48639524D01*
X63111304Y-48561145D01*
X63198836Y-48458659D01*
X63330466Y-48243859D01*
X63426873Y-48011111D01*
X63429540Y-48000000D01*
X91500000Y-48000000D01*
X91500000Y-53000000D01*
X96500000Y-53000000D01*
X96500000Y-48784986D01*
X99049500Y-48784986D01*
X99064379Y-48964559D01*
X99064379Y-48964562D01*
X99064380Y-48964563D01*
X99123390Y-49197591D01*
X99123392Y-49197595D01*
X99123393Y-49197598D01*
X99219946Y-49417719D01*
X99219952Y-49417729D01*
X99351429Y-49618969D01*
X99514235Y-49795824D01*
X99514240Y-49795828D01*
X99703936Y-49943474D01*
X99861248Y-50028606D01*
X99915344Y-50057882D01*
X100142703Y-50135934D01*
X100379807Y-50175500D01*
X100379808Y-50175500D01*
X100620193Y-50175500D01*
X100738744Y-50155717D01*
X100857297Y-50135934D01*
X101084656Y-50057882D01*
X101296067Y-49943472D01*
X101485764Y-49795825D01*
X101648571Y-49618969D01*
X101780049Y-49417728D01*
X101876610Y-49197591D01*
X101935620Y-48964563D01*
X101950500Y-48784990D01*
X101950500Y-48365010D01*
X101935620Y-48185437D01*
X101876610Y-47952409D01*
X101828329Y-47842340D01*
X101780053Y-47732280D01*
X101780051Y-47732276D01*
X101780049Y-47732272D01*
X101648571Y-47531031D01*
X101485764Y-47354175D01*
X101296067Y-47206528D01*
X101296066Y-47206527D01*
X101296063Y-47206525D01*
X101084664Y-47092122D01*
X101084660Y-47092120D01*
X101084656Y-47092118D01*
X101084650Y-47092116D01*
X101084648Y-47092115D01*
X100857296Y-47014065D01*
X100620193Y-46974500D01*
X100620192Y-46974500D01*
X100379808Y-46974500D01*
X100379807Y-46974500D01*
X100142703Y-47014065D01*
X99915351Y-47092115D01*
X99915335Y-47092122D01*
X99703936Y-47206525D01*
X99514240Y-47354171D01*
X99514235Y-47354175D01*
X99351429Y-47531030D01*
X99219952Y-47732270D01*
X99219946Y-47732280D01*
X99123393Y-47952401D01*
X99123392Y-47952404D01*
X99123390Y-47952409D01*
X99078936Y-48127954D01*
X99064379Y-48185440D01*
X99049500Y-48365014D01*
X99049500Y-48784986D01*
X96500000Y-48784986D01*
X96500000Y-48000000D01*
X91500000Y-48000000D01*
X63429540Y-48000000D01*
X63485683Y-47766148D01*
X63496464Y-47629158D01*
X63505449Y-47515005D01*
X63505449Y-47514994D01*
X63485683Y-47263857D01*
X63485684Y-47263857D01*
X63472965Y-47210879D01*
X63426873Y-47018889D01*
X63330466Y-46786141D01*
X63330460Y-46786131D01*
X63198839Y-46571345D01*
X63198833Y-46571337D01*
X63137909Y-46500004D01*
X83319659Y-46500004D01*
X83338974Y-46696126D01*
X83396187Y-46884731D01*
X83489086Y-47058532D01*
X83489093Y-47058542D01*
X83614113Y-47210879D01*
X83614120Y-47210886D01*
X83766457Y-47335906D01*
X83766462Y-47335910D01*
X83766465Y-47335911D01*
X83766467Y-47335913D01*
X83940268Y-47428812D01*
X83940270Y-47428812D01*
X83940273Y-47428814D01*
X84128868Y-47486024D01*
X84128870Y-47486024D01*
X84128873Y-47486025D01*
X84324995Y-47505341D01*
X84325000Y-47505341D01*
X84325005Y-47505341D01*
X84521126Y-47486025D01*
X84521127Y-47486024D01*
X84521132Y-47486024D01*
X84709727Y-47428814D01*
X84883538Y-47335910D01*
X85035883Y-47210883D01*
X85160910Y-47058538D01*
X85253814Y-46884727D01*
X85311024Y-46696132D01*
X85323315Y-46571345D01*
X85330341Y-46500004D01*
X86582159Y-46500004D01*
X86601474Y-46696126D01*
X86658687Y-46884731D01*
X86751586Y-47058532D01*
X86751593Y-47058542D01*
X86876613Y-47210879D01*
X86876620Y-47210886D01*
X87028957Y-47335906D01*
X87028962Y-47335910D01*
X87028965Y-47335911D01*
X87028967Y-47335913D01*
X87202768Y-47428812D01*
X87202770Y-47428812D01*
X87202773Y-47428814D01*
X87391368Y-47486024D01*
X87391370Y-47486024D01*
X87391373Y-47486025D01*
X87587495Y-47505341D01*
X87587500Y-47505341D01*
X87587505Y-47505341D01*
X87783626Y-47486025D01*
X87783627Y-47486024D01*
X87783632Y-47486024D01*
X87972227Y-47428814D01*
X88146038Y-47335910D01*
X88298383Y-47210883D01*
X88423410Y-47058538D01*
X88516314Y-46884727D01*
X88573524Y-46696132D01*
X88585815Y-46571345D01*
X88592841Y-46500004D01*
X88592841Y-46499995D01*
X88573525Y-46303873D01*
X88573524Y-46303870D01*
X88573524Y-46303868D01*
X88516314Y-46115273D01*
X88516312Y-46115270D01*
X88516312Y-46115268D01*
X88423413Y-45941467D01*
X88423411Y-45941465D01*
X88423410Y-45941462D01*
X88404699Y-45918663D01*
X88298386Y-45789120D01*
X88298379Y-45789113D01*
X88146042Y-45664093D01*
X88146032Y-45664086D01*
X87972231Y-45571187D01*
X87783626Y-45513974D01*
X87587505Y-45494659D01*
X87587495Y-45494659D01*
X87391373Y-45513974D01*
X87202768Y-45571187D01*
X87028967Y-45664086D01*
X87028957Y-45664093D01*
X86876620Y-45789113D01*
X86876613Y-45789120D01*
X86751593Y-45941457D01*
X86751586Y-45941467D01*
X86658687Y-46115268D01*
X86601474Y-46303873D01*
X86582159Y-46499995D01*
X86582159Y-46500004D01*
X85330341Y-46500004D01*
X85330341Y-46499995D01*
X85311025Y-46303873D01*
X85311024Y-46303870D01*
X85311024Y-46303868D01*
X85253814Y-46115273D01*
X85253812Y-46115270D01*
X85253812Y-46115268D01*
X85160913Y-45941467D01*
X85160911Y-45941465D01*
X85160910Y-45941462D01*
X85142199Y-45918663D01*
X85035886Y-45789120D01*
X85035879Y-45789113D01*
X84883542Y-45664093D01*
X84883532Y-45664086D01*
X84709731Y-45571187D01*
X84521126Y-45513974D01*
X84325005Y-45494659D01*
X84324995Y-45494659D01*
X84128873Y-45513974D01*
X83940268Y-45571187D01*
X83766467Y-45664086D01*
X83766457Y-45664093D01*
X83614120Y-45789113D01*
X83614113Y-45789120D01*
X83489093Y-45941457D01*
X83489086Y-45941467D01*
X83396187Y-46115268D01*
X83338974Y-46303873D01*
X83319659Y-46499995D01*
X83319659Y-46500004D01*
X63137909Y-46500004D01*
X63044363Y-46390476D01*
X62999918Y-46308620D01*
X62992610Y-46215762D01*
X63023703Y-46127960D01*
X63044363Y-46099524D01*
X63179360Y-45941462D01*
X63198836Y-45918659D01*
X63330466Y-45703859D01*
X63426873Y-45471111D01*
X63485683Y-45226148D01*
X63505449Y-44975000D01*
X63485683Y-44723857D01*
X63485684Y-44723857D01*
X63485683Y-44723852D01*
X63426873Y-44478889D01*
X63330466Y-44246141D01*
X63330460Y-44246131D01*
X63198839Y-44031345D01*
X63198833Y-44031337D01*
X63044363Y-43850476D01*
X62999918Y-43768620D01*
X62992610Y-43675762D01*
X63023703Y-43587960D01*
X63044363Y-43559524D01*
X63111304Y-43481145D01*
X63198836Y-43378659D01*
X63330466Y-43163859D01*
X63426873Y-42931111D01*
X63485683Y-42686148D01*
X63505449Y-42435000D01*
X63502505Y-42397598D01*
X63485683Y-42183857D01*
X63485684Y-42183857D01*
X63481051Y-42164559D01*
X63437940Y-41984986D01*
X99049500Y-41984986D01*
X99064379Y-42164559D01*
X99064379Y-42164562D01*
X99064380Y-42164563D01*
X99123390Y-42397591D01*
X99123392Y-42397595D01*
X99123393Y-42397598D01*
X99219946Y-42617719D01*
X99219949Y-42617725D01*
X99219951Y-42617728D01*
X99264652Y-42686148D01*
X99351429Y-42818969D01*
X99514235Y-42995824D01*
X99514240Y-42995828D01*
X99703936Y-43143474D01*
X99741621Y-43163868D01*
X99915344Y-43257882D01*
X100142703Y-43335934D01*
X100379807Y-43375500D01*
X100379808Y-43375500D01*
X100620193Y-43375500D01*
X100738744Y-43355717D01*
X100857297Y-43335934D01*
X101084656Y-43257882D01*
X101296067Y-43143472D01*
X101485764Y-42995825D01*
X101648571Y-42818969D01*
X101780049Y-42617728D01*
X101876610Y-42397591D01*
X101935620Y-42164563D01*
X101950500Y-41984990D01*
X101950500Y-41565010D01*
X101935620Y-41385437D01*
X101876610Y-41152409D01*
X101818321Y-41019524D01*
X101780053Y-40932280D01*
X101780051Y-40932276D01*
X101780049Y-40932272D01*
X101648571Y-40731031D01*
X101485764Y-40554175D01*
X101296067Y-40406528D01*
X101296066Y-40406527D01*
X101296063Y-40406525D01*
X101084664Y-40292122D01*
X101084660Y-40292120D01*
X101084656Y-40292118D01*
X101084650Y-40292116D01*
X101084648Y-40292115D01*
X100857296Y-40214065D01*
X100620193Y-40174500D01*
X100620192Y-40174500D01*
X100379808Y-40174500D01*
X100379807Y-40174500D01*
X100142703Y-40214065D01*
X99915351Y-40292115D01*
X99915335Y-40292122D01*
X99703936Y-40406525D01*
X99514240Y-40554171D01*
X99514235Y-40554175D01*
X99351429Y-40731030D01*
X99219952Y-40932270D01*
X99219946Y-40932280D01*
X99123393Y-41152401D01*
X99123392Y-41152404D01*
X99123390Y-41152409D01*
X99078936Y-41327954D01*
X99064379Y-41385440D01*
X99049500Y-41565014D01*
X99049500Y-41984986D01*
X63437940Y-41984986D01*
X63426873Y-41938889D01*
X63330466Y-41706141D01*
X63216705Y-41520500D01*
X63198839Y-41491345D01*
X63198833Y-41491337D01*
X63044363Y-41310476D01*
X62999918Y-41228620D01*
X62992610Y-41135762D01*
X63023703Y-41047960D01*
X63044363Y-41019524D01*
X63111304Y-40941145D01*
X63198836Y-40838659D01*
X63330466Y-40623859D01*
X63426873Y-40391111D01*
X63485683Y-40146148D01*
X63487741Y-40120000D01*
X78329700Y-40120000D01*
X78348865Y-40351302D01*
X78348867Y-40351310D01*
X78405841Y-40576296D01*
X78405846Y-40576308D01*
X78499073Y-40788844D01*
X78499076Y-40788850D01*
X78531615Y-40838654D01*
X78626021Y-40983153D01*
X78669353Y-41030224D01*
X78783209Y-41153906D01*
X78783216Y-41153913D01*
X78947834Y-41282040D01*
X78966377Y-41296472D01*
X79118266Y-41378670D01*
X79170497Y-41406936D01*
X79390019Y-41482298D01*
X79618950Y-41520500D01*
X79618951Y-41520500D01*
X79851050Y-41520500D01*
X80025819Y-41491336D01*
X80079981Y-41482298D01*
X80299503Y-41406936D01*
X80503626Y-41296470D01*
X80686784Y-41153913D01*
X80840197Y-40987260D01*
X80916151Y-40933345D01*
X81007468Y-40914985D01*
X81098358Y-40935353D01*
X81169803Y-40987261D01*
X81323209Y-41153906D01*
X81323212Y-41153909D01*
X81323216Y-41153913D01*
X81487834Y-41282040D01*
X81506377Y-41296472D01*
X81658266Y-41378670D01*
X81710497Y-41406936D01*
X81930019Y-41482298D01*
X82158950Y-41520500D01*
X82158951Y-41520500D01*
X82391050Y-41520500D01*
X82565819Y-41491336D01*
X82619981Y-41482298D01*
X82839503Y-41406936D01*
X83043626Y-41296470D01*
X83226784Y-41153913D01*
X83383979Y-40983153D01*
X83510924Y-40788849D01*
X83604157Y-40576300D01*
X83661134Y-40351305D01*
X83680300Y-40120000D01*
X83661134Y-39888695D01*
X83604157Y-39663700D01*
X83510924Y-39451151D01*
X83383979Y-39256847D01*
X83226784Y-39086087D01*
X83045761Y-38945192D01*
X90374500Y-38945192D01*
X90414065Y-39182296D01*
X90492115Y-39409648D01*
X90492122Y-39409664D01*
X90606525Y-39621063D01*
X90606527Y-39621066D01*
X90606528Y-39621067D01*
X90754175Y-39810764D01*
X90931031Y-39973571D01*
X91132272Y-40105049D01*
X91132276Y-40105051D01*
X91132280Y-40105053D01*
X91225968Y-40146148D01*
X91352409Y-40201610D01*
X91585437Y-40260620D01*
X91765010Y-40275500D01*
X91765014Y-40275500D01*
X92134986Y-40275500D01*
X92134990Y-40275500D01*
X92314563Y-40260620D01*
X92547591Y-40201610D01*
X92767728Y-40105049D01*
X92968969Y-39973571D01*
X93145825Y-39810764D01*
X93293472Y-39621067D01*
X93407882Y-39409656D01*
X93485934Y-39182297D01*
X93525500Y-38945192D01*
X93525500Y-38704808D01*
X93485934Y-38467703D01*
X93407882Y-38240344D01*
X93378606Y-38186248D01*
X93293474Y-38028936D01*
X93145828Y-37839240D01*
X93145824Y-37839235D01*
X93132353Y-37826834D01*
X93037808Y-37739800D01*
X92983895Y-37663848D01*
X92965535Y-37572531D01*
X92985903Y-37481641D01*
X93037808Y-37410199D01*
X93145825Y-37310764D01*
X93293472Y-37121067D01*
X93407882Y-36909656D01*
X93485934Y-36682297D01*
X93525500Y-36445192D01*
X93525500Y-36204808D01*
X93485934Y-35967703D01*
X93407882Y-35740344D01*
X93293472Y-35528933D01*
X93184796Y-35389306D01*
X93144119Y-35305515D01*
X93141039Y-35212422D01*
X93142027Y-35209990D01*
X99049500Y-35209990D01*
X99049702Y-35212422D01*
X99064379Y-35389559D01*
X99064379Y-35389562D01*
X99064380Y-35389563D01*
X99123390Y-35622591D01*
X99123392Y-35622595D01*
X99123393Y-35622598D01*
X99219946Y-35842719D01*
X99219949Y-35842725D01*
X99219951Y-35842728D01*
X99351429Y-36043969D01*
X99514235Y-36220824D01*
X99514240Y-36220828D01*
X99703936Y-36368474D01*
X99783148Y-36411341D01*
X99915344Y-36482882D01*
X100119691Y-36553034D01*
X100142703Y-36560934D01*
X100379807Y-36600500D01*
X100379808Y-36600500D01*
X100620193Y-36600500D01*
X100738744Y-36580717D01*
X100857297Y-36560934D01*
X101084656Y-36482882D01*
X101296067Y-36368472D01*
X101485764Y-36220825D01*
X101648571Y-36043969D01*
X101780049Y-35842728D01*
X101876610Y-35622591D01*
X101935620Y-35389563D01*
X101950500Y-35209990D01*
X101950500Y-34790010D01*
X101935620Y-34610437D01*
X101876610Y-34377409D01*
X101780049Y-34157272D01*
X101648571Y-33956031D01*
X101485764Y-33779175D01*
X101435691Y-33740202D01*
X101353810Y-33676471D01*
X101296067Y-33631528D01*
X101296066Y-33631527D01*
X101296063Y-33631525D01*
X101084664Y-33517122D01*
X101084660Y-33517120D01*
X101084656Y-33517118D01*
X101084650Y-33517116D01*
X101084648Y-33517115D01*
X100857296Y-33439065D01*
X100620193Y-33399500D01*
X100620192Y-33399500D01*
X100379808Y-33399500D01*
X100379807Y-33399500D01*
X100142703Y-33439065D01*
X99915351Y-33517115D01*
X99915335Y-33517122D01*
X99703936Y-33631525D01*
X99514240Y-33779171D01*
X99514235Y-33779175D01*
X99351429Y-33956030D01*
X99219952Y-34157270D01*
X99219946Y-34157280D01*
X99123393Y-34377401D01*
X99123392Y-34377404D01*
X99123390Y-34377409D01*
X99092612Y-34498950D01*
X99064379Y-34610440D01*
X99055299Y-34720027D01*
X99049500Y-34790010D01*
X99049500Y-35209990D01*
X93142027Y-35209990D01*
X93176090Y-35126124D01*
X93221221Y-35077139D01*
X93279940Y-35029940D01*
X93395842Y-34885753D01*
X93478037Y-34720021D01*
X93522683Y-34540495D01*
X93525500Y-34498954D01*
X93525500Y-33151046D01*
X93522683Y-33109505D01*
X93478037Y-32929979D01*
X93395842Y-32764247D01*
X93279940Y-32620060D01*
X93135753Y-32504158D01*
X93135752Y-32504157D01*
X92970027Y-32421965D01*
X92970018Y-32421962D01*
X92790495Y-32377317D01*
X92748954Y-32374500D01*
X91151046Y-32374500D01*
X91117813Y-32376753D01*
X91109504Y-32377317D01*
X90929981Y-32421962D01*
X90929972Y-32421965D01*
X90764247Y-32504157D01*
X90620060Y-32620059D01*
X90620059Y-32620060D01*
X90504157Y-32764247D01*
X90421965Y-32929972D01*
X90421962Y-32929981D01*
X90377317Y-33109504D01*
X90374500Y-33151050D01*
X90374500Y-34498950D01*
X90377317Y-34540495D01*
X90421962Y-34720018D01*
X90421965Y-34720027D01*
X90504157Y-34885752D01*
X90620059Y-35029939D01*
X90620060Y-35029940D01*
X90678774Y-35077136D01*
X90737652Y-35149311D01*
X90762084Y-35239194D01*
X90747845Y-35331243D01*
X90715203Y-35389307D01*
X90606525Y-35528936D01*
X90492122Y-35740335D01*
X90492115Y-35740351D01*
X90414065Y-35967703D01*
X90374500Y-36204807D01*
X90374500Y-36445192D01*
X90414065Y-36682296D01*
X90492115Y-36909648D01*
X90492122Y-36909664D01*
X90606525Y-37121063D01*
X90606527Y-37121066D01*
X90606528Y-37121067D01*
X90754175Y-37310764D01*
X90802234Y-37355005D01*
X90862189Y-37410198D01*
X90916104Y-37486153D01*
X90934464Y-37577470D01*
X90914095Y-37668360D01*
X90862189Y-37739802D01*
X90754176Y-37839235D01*
X90754171Y-37839240D01*
X90606525Y-38028936D01*
X90492122Y-38240335D01*
X90492115Y-38240351D01*
X90414065Y-38467703D01*
X90374500Y-38704807D01*
X90374500Y-38945192D01*
X83045761Y-38945192D01*
X83043626Y-38943530D01*
X83043625Y-38943529D01*
X83043622Y-38943527D01*
X82839511Y-38833068D01*
X82839507Y-38833066D01*
X82839503Y-38833064D01*
X82839497Y-38833062D01*
X82839495Y-38833061D01*
X82619980Y-38757701D01*
X82391050Y-38719500D01*
X82391049Y-38719500D01*
X82158951Y-38719500D01*
X82158950Y-38719500D01*
X81930019Y-38757701D01*
X81710504Y-38833061D01*
X81710488Y-38833068D01*
X81506377Y-38943527D01*
X81323220Y-39086083D01*
X81323209Y-39086093D01*
X81169802Y-39252739D01*
X81093848Y-39306654D01*
X81002531Y-39325014D01*
X80911641Y-39304646D01*
X80840198Y-39252739D01*
X80686790Y-39086093D01*
X80686787Y-39086090D01*
X80686784Y-39086087D01*
X80503626Y-38943530D01*
X80503625Y-38943529D01*
X80503622Y-38943527D01*
X80299511Y-38833068D01*
X80299507Y-38833066D01*
X80299503Y-38833064D01*
X80299497Y-38833062D01*
X80299495Y-38833061D01*
X80079980Y-38757701D01*
X79851050Y-38719500D01*
X79851049Y-38719500D01*
X79618951Y-38719500D01*
X79618950Y-38719500D01*
X79390019Y-38757701D01*
X79170504Y-38833061D01*
X79170488Y-38833068D01*
X78966377Y-38943527D01*
X78783220Y-39086083D01*
X78783215Y-39086087D01*
X78626023Y-39256845D01*
X78626019Y-39256850D01*
X78499076Y-39451149D01*
X78499073Y-39451155D01*
X78405846Y-39663691D01*
X78405841Y-39663703D01*
X78348867Y-39888689D01*
X78348865Y-39888697D01*
X78329700Y-40120000D01*
X63487741Y-40120000D01*
X63505449Y-39895000D01*
X63504952Y-39888689D01*
X63485683Y-39643857D01*
X63485684Y-39643857D01*
X63458070Y-39528836D01*
X63426873Y-39398889D01*
X63330466Y-39166141D01*
X63330460Y-39166131D01*
X63198839Y-38951345D01*
X63198833Y-38951337D01*
X63044363Y-38770476D01*
X62999918Y-38688620D01*
X62992610Y-38595762D01*
X63023703Y-38507960D01*
X63044363Y-38479524D01*
X63111304Y-38401145D01*
X63198836Y-38298659D01*
X63330466Y-38083859D01*
X63426873Y-37851111D01*
X63485683Y-37606148D01*
X63505449Y-37355000D01*
X63485683Y-37103857D01*
X63485684Y-37103857D01*
X63485683Y-37103852D01*
X63426873Y-36858889D01*
X63330466Y-36626141D01*
X63242677Y-36482882D01*
X63198839Y-36411345D01*
X63198833Y-36411337D01*
X63035226Y-36219778D01*
X63035221Y-36219773D01*
X62843662Y-36056166D01*
X62843654Y-36056160D01*
X62628868Y-35924539D01*
X62628863Y-35924536D01*
X62628859Y-35924534D01*
X62396111Y-35828127D01*
X62151148Y-35769317D01*
X62151145Y-35769316D01*
X62151142Y-35769316D01*
X61900006Y-35749551D01*
X61899994Y-35749551D01*
X61648857Y-35769316D01*
X61648853Y-35769316D01*
X61648852Y-35769317D01*
X61403889Y-35828127D01*
X61403887Y-35828127D01*
X61403886Y-35828128D01*
X61171145Y-35924532D01*
X61171131Y-35924539D01*
X60956345Y-36056160D01*
X60956337Y-36056166D01*
X60764778Y-36219773D01*
X60764773Y-36219778D01*
X60601166Y-36411337D01*
X60601160Y-36411345D01*
X60469539Y-36626131D01*
X60469532Y-36626145D01*
X60373128Y-36858886D01*
X60314316Y-37103857D01*
X60294551Y-37354994D01*
X60294551Y-37355005D01*
X60314316Y-37606142D01*
X60314315Y-37606142D01*
X60331190Y-37676429D01*
X60373127Y-37851111D01*
X60469534Y-38083859D01*
X60469536Y-38083863D01*
X60469539Y-38083868D01*
X60601160Y-38298654D01*
X60601166Y-38298663D01*
X60755636Y-38479524D01*
X60800081Y-38561381D01*
X60807389Y-38654238D01*
X60776296Y-38742040D01*
X60755636Y-38770476D01*
X60601166Y-38951336D01*
X60601160Y-38951345D01*
X60469539Y-39166131D01*
X60469532Y-39166145D01*
X60373128Y-39398886D01*
X60314316Y-39643857D01*
X60294551Y-39894994D01*
X60294551Y-39895005D01*
X60314316Y-40146142D01*
X60314315Y-40146142D01*
X60341799Y-40260620D01*
X60373127Y-40391111D01*
X60469534Y-40623859D01*
X60469536Y-40623863D01*
X60469539Y-40623868D01*
X60601160Y-40838654D01*
X60601166Y-40838663D01*
X60755636Y-41019524D01*
X60800081Y-41101381D01*
X60807389Y-41194238D01*
X60776296Y-41282040D01*
X60755636Y-41310476D01*
X60601166Y-41491336D01*
X60601160Y-41491345D01*
X60469539Y-41706131D01*
X60469532Y-41706145D01*
X60373128Y-41938886D01*
X60314316Y-42183857D01*
X60294551Y-42434994D01*
X60294551Y-42435005D01*
X60314316Y-42686142D01*
X60314315Y-42686142D01*
X60344802Y-42813131D01*
X60373127Y-42931111D01*
X60469534Y-43163859D01*
X60469536Y-43163863D01*
X60469539Y-43163868D01*
X60601160Y-43378654D01*
X60601166Y-43378663D01*
X60755636Y-43559524D01*
X60800081Y-43641381D01*
X60807389Y-43734238D01*
X60776296Y-43822040D01*
X60755636Y-43850476D01*
X60601166Y-44031336D01*
X60601160Y-44031345D01*
X60469539Y-44246131D01*
X60469532Y-44246145D01*
X60373128Y-44478886D01*
X60314316Y-44723857D01*
X60294551Y-44974994D01*
X60294551Y-44975005D01*
X60314316Y-45226142D01*
X60314315Y-45226142D01*
X60344802Y-45353131D01*
X60373127Y-45471111D01*
X60469534Y-45703859D01*
X60469536Y-45703863D01*
X60469539Y-45703868D01*
X60601160Y-45918654D01*
X60601166Y-45918663D01*
X60755636Y-46099524D01*
X60800081Y-46181381D01*
X60807389Y-46274238D01*
X60776296Y-46362040D01*
X60755636Y-46390476D01*
X60601166Y-46571336D01*
X60601160Y-46571345D01*
X60469539Y-46786131D01*
X60469532Y-46786145D01*
X60373128Y-47018886D01*
X60373127Y-47018889D01*
X60328080Y-47206525D01*
X60314316Y-47263857D01*
X60294551Y-47514994D01*
X60294551Y-47515005D01*
X60314316Y-47766142D01*
X60314315Y-47766142D01*
X60344802Y-47893131D01*
X60373127Y-48011111D01*
X60469534Y-48243859D01*
X60469536Y-48243863D01*
X60469539Y-48243868D01*
X60601160Y-48458654D01*
X60601166Y-48458663D01*
X60755636Y-48639524D01*
X60800081Y-48721381D01*
X60807389Y-48814238D01*
X60776296Y-48902040D01*
X60755636Y-48930476D01*
X60601166Y-49111336D01*
X60601160Y-49111345D01*
X60469539Y-49326131D01*
X60469532Y-49326145D01*
X60431597Y-49417729D01*
X60373127Y-49558889D01*
X60314317Y-49803852D01*
X60314316Y-49803857D01*
X60294551Y-50054994D01*
X60294551Y-50055005D01*
X60314316Y-50306142D01*
X60314315Y-50306142D01*
X60344802Y-50433131D01*
X60373127Y-50551111D01*
X60469534Y-50783859D01*
X60469536Y-50783863D01*
X60469539Y-50783868D01*
X60601160Y-50998654D01*
X60601166Y-50998663D01*
X60755636Y-51179524D01*
X60800081Y-51261381D01*
X60807389Y-51354238D01*
X60776296Y-51442040D01*
X60755636Y-51470476D01*
X60601166Y-51651336D01*
X60601160Y-51651345D01*
X60469539Y-51866131D01*
X60469532Y-51866145D01*
X60373128Y-52098886D01*
X60314316Y-52343857D01*
X60294551Y-52594994D01*
X60294551Y-52595005D01*
X60314316Y-52846142D01*
X60314315Y-52846142D01*
X60344802Y-52973131D01*
X60373127Y-53091111D01*
X60469534Y-53323859D01*
X60469536Y-53323863D01*
X60469539Y-53323868D01*
X60601160Y-53538654D01*
X60601166Y-53538663D01*
X60755636Y-53719524D01*
X60800081Y-53801381D01*
X60807389Y-53894238D01*
X60776296Y-53982040D01*
X60755636Y-54010476D01*
X60601166Y-54191336D01*
X60601160Y-54191345D01*
X60469539Y-54406131D01*
X60469532Y-54406145D01*
X60373128Y-54638886D01*
X60373127Y-54638889D01*
X60314317Y-54883852D01*
X60314316Y-54883857D01*
X60294551Y-55134994D01*
X60294551Y-55135005D01*
X60314316Y-55386142D01*
X60314315Y-55386142D01*
X60327598Y-55441467D01*
X60373127Y-55631111D01*
X60469534Y-55863859D01*
X60469536Y-55863863D01*
X60469539Y-55863868D01*
X60601160Y-56078654D01*
X60601166Y-56078663D01*
X60755636Y-56259524D01*
X60800081Y-56341381D01*
X60807389Y-56434238D01*
X60776296Y-56522040D01*
X60755636Y-56550476D01*
X60601166Y-56731336D01*
X60601160Y-56731345D01*
X60469539Y-56946131D01*
X60469532Y-56946145D01*
X60373128Y-57178886D01*
X60373127Y-57178889D01*
X60343121Y-57303873D01*
X60314316Y-57423857D01*
X60294551Y-57674994D01*
X60294551Y-57675005D01*
X60314316Y-57926142D01*
X60314315Y-57926142D01*
X60344802Y-58053131D01*
X60373127Y-58171111D01*
X60469534Y-58403859D01*
X60469536Y-58403863D01*
X60469539Y-58403868D01*
X60601160Y-58618654D01*
X60601166Y-58618663D01*
X60755636Y-58799524D01*
X60800081Y-58881381D01*
X60807389Y-58974238D01*
X60776296Y-59062040D01*
X60755636Y-59090476D01*
X60601166Y-59271336D01*
X60601160Y-59271345D01*
X60469539Y-59486131D01*
X60469532Y-59486145D01*
X60373128Y-59718886D01*
X60314316Y-59963857D01*
X60294551Y-60214994D01*
X60294551Y-60215005D01*
X60314316Y-60466142D01*
X60314315Y-60466142D01*
X60344802Y-60593131D01*
X60373127Y-60711111D01*
X60469534Y-60943859D01*
X60469536Y-60943863D01*
X60469539Y-60943868D01*
X60601160Y-61158654D01*
X60601166Y-61158663D01*
X60755636Y-61339524D01*
X60800081Y-61421381D01*
X60807389Y-61514238D01*
X60776296Y-61602040D01*
X60755636Y-61630476D01*
X60601166Y-61811336D01*
X60601160Y-61811345D01*
X60469539Y-62026131D01*
X60469532Y-62026145D01*
X60373128Y-62258886D01*
X60314316Y-62503857D01*
X60294551Y-62754994D01*
X60294551Y-62755005D01*
X60314316Y-63006142D01*
X60314315Y-63006142D01*
X60344802Y-63133131D01*
X60373127Y-63251111D01*
X60469534Y-63483859D01*
X60469536Y-63483863D01*
X60469539Y-63483868D01*
X60601160Y-63698654D01*
X60601166Y-63698663D01*
X60755636Y-63879524D01*
X60800081Y-63961381D01*
X60807389Y-64054238D01*
X60776296Y-64142040D01*
X60755636Y-64170476D01*
X60601166Y-64351336D01*
X60601160Y-64351345D01*
X60469539Y-64566131D01*
X60469532Y-64566145D01*
X60373128Y-64798886D01*
X60314316Y-65043857D01*
X60294551Y-65294994D01*
X60294551Y-65295005D01*
X60314316Y-65546142D01*
X60314315Y-65546142D01*
X60344802Y-65673131D01*
X60373127Y-65791111D01*
X60469534Y-66023859D01*
X60469536Y-66023863D01*
X60469539Y-66023868D01*
X60601160Y-66238654D01*
X60601166Y-66238663D01*
X60755636Y-66419524D01*
X60800081Y-66501381D01*
X60807389Y-66594238D01*
X60776296Y-66682040D01*
X60755636Y-66710476D01*
X60601166Y-66891336D01*
X60601160Y-66891345D01*
X60469539Y-67106131D01*
X60469534Y-67106141D01*
X60373127Y-67338889D01*
X60314317Y-67583852D01*
X60314316Y-67583857D01*
X60294551Y-67834994D01*
X60294551Y-67835005D01*
X58500000Y-67835005D01*
X58500000Y-36000000D01*
X39500000Y-36000000D01*
X37352009Y-36000000D01*
X37228868Y-35924539D01*
X37228863Y-35924536D01*
X37228859Y-35924534D01*
X36996111Y-35828127D01*
X36751148Y-35769317D01*
X36751145Y-35769316D01*
X36751142Y-35769316D01*
X36500006Y-35749551D01*
X36499994Y-35749551D01*
X36248857Y-35769316D01*
X36248853Y-35769316D01*
X36248852Y-35769317D01*
X36003889Y-35828127D01*
X36003887Y-35828127D01*
X36003886Y-35828128D01*
X35771145Y-35924532D01*
X35771131Y-35924539D01*
X35556345Y-36056160D01*
X35556337Y-36056166D01*
X35364778Y-36219773D01*
X35364773Y-36219778D01*
X35201166Y-36411337D01*
X35201160Y-36411345D01*
X35069539Y-36626131D01*
X35069532Y-36626145D01*
X34973128Y-36858886D01*
X34914316Y-37103857D01*
X34894551Y-37354994D01*
X34894551Y-37355005D01*
X34914316Y-37606142D01*
X34914315Y-37606142D01*
X34931190Y-37676429D01*
X34973127Y-37851111D01*
X35069534Y-38083859D01*
X35069536Y-38083863D01*
X35069539Y-38083868D01*
X35201160Y-38298654D01*
X35201166Y-38298663D01*
X35355636Y-38479524D01*
X35400081Y-38561381D01*
X35407389Y-38654238D01*
X35376296Y-38742040D01*
X35355636Y-38770476D01*
X35201166Y-38951336D01*
X35201160Y-38951345D01*
X35069539Y-39166131D01*
X35069532Y-39166145D01*
X34973128Y-39398886D01*
X34914316Y-39643857D01*
X34894551Y-39894994D01*
X34894551Y-39895005D01*
X34914316Y-40146142D01*
X34914315Y-40146142D01*
X34941799Y-40260620D01*
X34973127Y-40391111D01*
X35069534Y-40623859D01*
X35069536Y-40623863D01*
X35069539Y-40623868D01*
X35201160Y-40838654D01*
X35201166Y-40838663D01*
X35355636Y-41019524D01*
X35400081Y-41101381D01*
X35407389Y-41194238D01*
X35376296Y-41282040D01*
X35355636Y-41310476D01*
X35201166Y-41491336D01*
X35201160Y-41491345D01*
X35069539Y-41706131D01*
X35069532Y-41706145D01*
X34973128Y-41938886D01*
X34914316Y-42183857D01*
X34894551Y-42434994D01*
X34894551Y-42435005D01*
X34914316Y-42686142D01*
X34914315Y-42686142D01*
X34944802Y-42813131D01*
X34973127Y-42931111D01*
X35069534Y-43163859D01*
X35069536Y-43163863D01*
X35069539Y-43163868D01*
X35201160Y-43378654D01*
X35201166Y-43378663D01*
X35355636Y-43559524D01*
X35400081Y-43641381D01*
X35407389Y-43734238D01*
X35376296Y-43822040D01*
X35355636Y-43850476D01*
X35201166Y-44031336D01*
X35201160Y-44031345D01*
X35069539Y-44246131D01*
X35069532Y-44246145D01*
X34973128Y-44478886D01*
X34914316Y-44723857D01*
X34894551Y-44974994D01*
X34894551Y-44975005D01*
X34914316Y-45226142D01*
X34914315Y-45226142D01*
X34944802Y-45353131D01*
X34973127Y-45471111D01*
X35069534Y-45703859D01*
X35069536Y-45703863D01*
X35069539Y-45703868D01*
X35201160Y-45918654D01*
X35201166Y-45918663D01*
X35355636Y-46099524D01*
X35400081Y-46181381D01*
X35407389Y-46274238D01*
X35376296Y-46362040D01*
X35355636Y-46390476D01*
X35201166Y-46571336D01*
X35201160Y-46571345D01*
X35069539Y-46786131D01*
X35069532Y-46786145D01*
X34973128Y-47018886D01*
X34973127Y-47018889D01*
X34928080Y-47206525D01*
X34914316Y-47263857D01*
X34894551Y-47514994D01*
X34894551Y-47515005D01*
X34914316Y-47766142D01*
X34914315Y-47766142D01*
X34944802Y-47893131D01*
X34973127Y-48011111D01*
X35069534Y-48243859D01*
X35069536Y-48243863D01*
X35069539Y-48243868D01*
X35201160Y-48458654D01*
X35201166Y-48458663D01*
X35355636Y-48639524D01*
X35400081Y-48721381D01*
X35407389Y-48814238D01*
X35376296Y-48902040D01*
X35355636Y-48930476D01*
X35201166Y-49111336D01*
X35201160Y-49111345D01*
X35069539Y-49326131D01*
X35069532Y-49326145D01*
X35031597Y-49417729D01*
X34973127Y-49558889D01*
X34914317Y-49803852D01*
X34914316Y-49803857D01*
X34894551Y-50054994D01*
X34894551Y-50055005D01*
X34914316Y-50306142D01*
X34914315Y-50306142D01*
X34944802Y-50433131D01*
X34973127Y-50551111D01*
X35069534Y-50783859D01*
X35069536Y-50783863D01*
X35069539Y-50783868D01*
X35201160Y-50998654D01*
X35201166Y-50998663D01*
X35355636Y-51179524D01*
X35400081Y-51261381D01*
X35407389Y-51354238D01*
X35376296Y-51442040D01*
X35355636Y-51470476D01*
X35201166Y-51651336D01*
X35201160Y-51651345D01*
X35069539Y-51866131D01*
X35069532Y-51866145D01*
X34973128Y-52098886D01*
X34914316Y-52343857D01*
X34894551Y-52594994D01*
X34894551Y-52595005D01*
X34914316Y-52846142D01*
X34914315Y-52846142D01*
X34944802Y-52973131D01*
X34973127Y-53091111D01*
X35069534Y-53323859D01*
X35069536Y-53323863D01*
X35069539Y-53323868D01*
X35201160Y-53538654D01*
X35201166Y-53538663D01*
X35355636Y-53719524D01*
X35400081Y-53801381D01*
X35407389Y-53894238D01*
X35376296Y-53982040D01*
X35355636Y-54010476D01*
X35201166Y-54191336D01*
X35201160Y-54191345D01*
X35069539Y-54406131D01*
X35069532Y-54406145D01*
X34973128Y-54638886D01*
X34973127Y-54638889D01*
X34914317Y-54883852D01*
X34914316Y-54883857D01*
X34894551Y-55134994D01*
X34894551Y-55135005D01*
X34914316Y-55386142D01*
X34914315Y-55386142D01*
X34927598Y-55441467D01*
X34973127Y-55631111D01*
X35069534Y-55863859D01*
X35069536Y-55863863D01*
X35069539Y-55863868D01*
X35201160Y-56078654D01*
X35201166Y-56078663D01*
X35355636Y-56259524D01*
X35400081Y-56341381D01*
X35407389Y-56434238D01*
X35376296Y-56522040D01*
X35355636Y-56550476D01*
X35201166Y-56731336D01*
X35201160Y-56731345D01*
X35069539Y-56946131D01*
X35069532Y-56946145D01*
X34973128Y-57178886D01*
X34973127Y-57178889D01*
X34943121Y-57303873D01*
X34914316Y-57423857D01*
X34894551Y-57674994D01*
X34894551Y-57675005D01*
X34914316Y-57926142D01*
X34914315Y-57926142D01*
X34944802Y-58053131D01*
X34973127Y-58171111D01*
X35069534Y-58403859D01*
X35069536Y-58403863D01*
X35069539Y-58403868D01*
X35201160Y-58618654D01*
X35201166Y-58618663D01*
X35355636Y-58799524D01*
X35400081Y-58881381D01*
X35407389Y-58974238D01*
X35376296Y-59062040D01*
X35355636Y-59090476D01*
X35201166Y-59271336D01*
X35201160Y-59271345D01*
X35069539Y-59486131D01*
X35069532Y-59486145D01*
X34973128Y-59718886D01*
X34914316Y-59963857D01*
X34894551Y-60214994D01*
X34894551Y-60215005D01*
X34914316Y-60466142D01*
X34914315Y-60466142D01*
X34944802Y-60593131D01*
X34973127Y-60711111D01*
X35069534Y-60943859D01*
X35069536Y-60943863D01*
X35069539Y-60943868D01*
X35201160Y-61158654D01*
X35201166Y-61158663D01*
X35355636Y-61339524D01*
X35400081Y-61421381D01*
X35407389Y-61514238D01*
X35376296Y-61602040D01*
X35355636Y-61630476D01*
X35201166Y-61811336D01*
X35201160Y-61811345D01*
X35069539Y-62026131D01*
X35069532Y-62026145D01*
X34973128Y-62258886D01*
X34914316Y-62503857D01*
X34894551Y-62754994D01*
X34894551Y-62755005D01*
X34914316Y-63006142D01*
X34914315Y-63006142D01*
X34944802Y-63133131D01*
X34973127Y-63251111D01*
X35069534Y-63483859D01*
X35069536Y-63483863D01*
X35069539Y-63483868D01*
X35201160Y-63698654D01*
X35201166Y-63698663D01*
X35355636Y-63879524D01*
X35400081Y-63961381D01*
X35407389Y-64054238D01*
X35376296Y-64142040D01*
X35355636Y-64170476D01*
X35201166Y-64351336D01*
X35201160Y-64351345D01*
X35069539Y-64566131D01*
X35069532Y-64566145D01*
X34973128Y-64798886D01*
X34914316Y-65043857D01*
X34894551Y-65294994D01*
X34894551Y-65295005D01*
X34914316Y-65546142D01*
X34914315Y-65546142D01*
X34944802Y-65673131D01*
X34973127Y-65791111D01*
X35069534Y-66023859D01*
X35069536Y-66023863D01*
X35069539Y-66023868D01*
X35201160Y-66238654D01*
X35201166Y-66238663D01*
X35355636Y-66419524D01*
X35400081Y-66501381D01*
X35407389Y-66594238D01*
X35376296Y-66682040D01*
X35355636Y-66710476D01*
X35201166Y-66891336D01*
X35201160Y-66891345D01*
X35069539Y-67106131D01*
X35069534Y-67106141D01*
X34973127Y-67338889D01*
X34914317Y-67583852D01*
X34914316Y-67583857D01*
X34894551Y-67834994D01*
X34894551Y-67835005D01*
X34000000Y-67835005D01*
X34000000Y-35209990D01*
X69049500Y-35209990D01*
X69049702Y-35212422D01*
X69064379Y-35389559D01*
X69064379Y-35389562D01*
X69064380Y-35389563D01*
X69123390Y-35622591D01*
X69123392Y-35622595D01*
X69123393Y-35622598D01*
X69219946Y-35842719D01*
X69219949Y-35842725D01*
X69219951Y-35842728D01*
X69351429Y-36043969D01*
X69514235Y-36220824D01*
X69514240Y-36220828D01*
X69703936Y-36368474D01*
X69783148Y-36411341D01*
X69915344Y-36482882D01*
X70119691Y-36553034D01*
X70142703Y-36560934D01*
X70379807Y-36600500D01*
X70379808Y-36600500D01*
X70620193Y-36600500D01*
X70738744Y-36580717D01*
X70857297Y-36560934D01*
X71084656Y-36482882D01*
X71220055Y-36409607D01*
X71296064Y-36368474D01*
X71296067Y-36368472D01*
X71435695Y-36259794D01*
X71519483Y-36219119D01*
X71612576Y-36216039D01*
X71698874Y-36251089D01*
X71747863Y-36296225D01*
X71795059Y-36354939D01*
X71795060Y-36354940D01*
X71939247Y-36470842D01*
X72104972Y-36553034D01*
X72104974Y-36553034D01*
X72104979Y-36553037D01*
X72284505Y-36597683D01*
X72326046Y-36600500D01*
X72326050Y-36600500D01*
X73673950Y-36600500D01*
X73673954Y-36600500D01*
X73715495Y-36597683D01*
X73895021Y-36553037D01*
X74060753Y-36470842D01*
X74204940Y-36354940D01*
X74320842Y-36210753D01*
X74403037Y-36045021D01*
X74447683Y-35865495D01*
X74450500Y-35823954D01*
X74450500Y-34176046D01*
X74447683Y-34134505D01*
X74403037Y-33954979D01*
X74320842Y-33789247D01*
X74204940Y-33645060D01*
X74111227Y-33569730D01*
X74060752Y-33529157D01*
X73895027Y-33446965D01*
X73895018Y-33446962D01*
X73715495Y-33402317D01*
X73673954Y-33399500D01*
X72326046Y-33399500D01*
X72292813Y-33401753D01*
X72284504Y-33402317D01*
X72104981Y-33446962D01*
X72104972Y-33446965D01*
X71939247Y-33529157D01*
X71795060Y-33645059D01*
X71795058Y-33645061D01*
X71747862Y-33703775D01*
X71675686Y-33762653D01*
X71585803Y-33787084D01*
X71493754Y-33772845D01*
X71435691Y-33740202D01*
X71420376Y-33728282D01*
X71296067Y-33631528D01*
X71296065Y-33631527D01*
X71296064Y-33631526D01*
X71084664Y-33517122D01*
X71084660Y-33517120D01*
X71084656Y-33517118D01*
X71084650Y-33517116D01*
X71084648Y-33517115D01*
X70857296Y-33439065D01*
X70620193Y-33399500D01*
X70620192Y-33399500D01*
X70379808Y-33399500D01*
X70379807Y-33399500D01*
X70142703Y-33439065D01*
X69915351Y-33517115D01*
X69915335Y-33517122D01*
X69703936Y-33631525D01*
X69514240Y-33779171D01*
X69514235Y-33779175D01*
X69351429Y-33956030D01*
X69219952Y-34157270D01*
X69219946Y-34157280D01*
X69123393Y-34377401D01*
X69123392Y-34377404D01*
X69123390Y-34377409D01*
X69092612Y-34498950D01*
X69064379Y-34610440D01*
X69055299Y-34720027D01*
X69049500Y-34790010D01*
X69049500Y-35209990D01*
X34000000Y-35209990D01*
X34000000Y-33003997D01*
X34000284Y-32996025D01*
X34019214Y-32731342D01*
X34023759Y-32699730D01*
X34077610Y-32452180D01*
X34086608Y-32421534D01*
X34175142Y-32184167D01*
X34188409Y-32155117D01*
X34309817Y-31932774D01*
X34327088Y-31905899D01*
X34478906Y-31703095D01*
X34499823Y-31678956D01*
X34678956Y-31499823D01*
X34703095Y-31478906D01*
X34905899Y-31327088D01*
X34932774Y-31309817D01*
X35155117Y-31188409D01*
X35184167Y-31175142D01*
X35421534Y-31086608D01*
X35452180Y-31077610D01*
X35699730Y-31023759D01*
X35731342Y-31019214D01*
X35996025Y-31000284D01*
X36003997Y-31000000D01*
X78729555Y-31000000D01*
X78820664Y-31019366D01*
G37*
%TD.AperFunction*%
%TD*%
M02*
