%TF.GenerationSoftware,KiCad,Pcbnew,7.0.8*%
%TF.CreationDate,2024-02-01T15:05:35+01:00*%
%TF.ProjectId,SMD Microcontroller Schematics,534d4420-4d69-4637-926f-636f6e74726f,rev?*%
%TF.SameCoordinates,Original*%
%TF.FileFunction,Paste,Top*%
%TF.FilePolarity,Positive*%
%FSLAX46Y46*%
G04 Gerber Fmt 4.6, Leading zero omitted, Abs format (unit mm)*
G04 Created by KiCad (PCBNEW 7.0.8) date 2024-02-01 15:05:35*
%MOMM*%
%LPD*%
G01*
G04 APERTURE LIST*
G04 Aperture macros list*
%AMRoundRect*
0 Rectangle with rounded corners*
0 $1 Rounding radius*
0 $2 $3 $4 $5 $6 $7 $8 $9 X,Y pos of 4 corners*
0 Add a 4 corners polygon primitive as box body*
4,1,4,$2,$3,$4,$5,$6,$7,$8,$9,$2,$3,0*
0 Add four circle primitives for the rounded corners*
1,1,$1+$1,$2,$3*
1,1,$1+$1,$4,$5*
1,1,$1+$1,$6,$7*
1,1,$1+$1,$8,$9*
0 Add four rect primitives between the rounded corners*
20,1,$1+$1,$2,$3,$4,$5,0*
20,1,$1+$1,$4,$5,$6,$7,0*
20,1,$1+$1,$6,$7,$8,$9,0*
20,1,$1+$1,$8,$9,$2,$3,0*%
G04 Aperture macros list end*
%ADD10RoundRect,0.150000X0.825000X0.150000X-0.825000X0.150000X-0.825000X-0.150000X0.825000X-0.150000X0*%
%ADD11RoundRect,0.250000X-0.450000X0.262500X-0.450000X-0.262500X0.450000X-0.262500X0.450000X0.262500X0*%
%ADD12RoundRect,0.250000X0.250000X0.475000X-0.250000X0.475000X-0.250000X-0.475000X0.250000X-0.475000X0*%
%ADD13R,0.250000X1.100000*%
%ADD14RoundRect,0.250000X0.475000X-0.250000X0.475000X0.250000X-0.475000X0.250000X-0.475000X-0.250000X0*%
%ADD15RoundRect,0.250000X-0.262500X-0.450000X0.262500X-0.450000X0.262500X0.450000X-0.262500X0.450000X0*%
%ADD16RoundRect,0.250000X0.262500X0.450000X-0.262500X0.450000X-0.262500X-0.450000X0.262500X-0.450000X0*%
%ADD17RoundRect,0.250000X-0.475000X0.250000X-0.475000X-0.250000X0.475000X-0.250000X0.475000X0.250000X0*%
%ADD18RoundRect,0.250000X0.450000X-0.262500X0.450000X0.262500X-0.450000X0.262500X-0.450000X-0.262500X0*%
%ADD19RoundRect,0.250000X-0.250000X-0.475000X0.250000X-0.475000X0.250000X0.475000X-0.250000X0.475000X0*%
G04 APERTURE END LIST*
D10*
%TO.C,U2*%
X91675000Y-67305000D03*
X91675000Y-66035000D03*
X91675000Y-64765000D03*
X91675000Y-63495000D03*
X86725000Y-63495000D03*
X86725000Y-64765000D03*
X86725000Y-66035000D03*
X86725000Y-67305000D03*
%TD*%
D11*
%TO.C,R18*%
X70000000Y-54087500D03*
X70000000Y-55912500D03*
%TD*%
D12*
%TO.C,C2*%
X89450000Y-53500000D03*
X87550000Y-53500000D03*
%TD*%
D13*
%TO.C,U5*%
X75200000Y-64650000D03*
X75700000Y-64650000D03*
X76200000Y-64650000D03*
X76700000Y-64650000D03*
X77200000Y-64650000D03*
X77200000Y-60350000D03*
X76700000Y-60350000D03*
X76200000Y-60350000D03*
X75700000Y-60350000D03*
X75200000Y-60350000D03*
%TD*%
D14*
%TO.C,C4*%
X72500000Y-51950000D03*
X72500000Y-50050000D03*
%TD*%
D15*
%TO.C,R8*%
X95787500Y-65900000D03*
X97612500Y-65900000D03*
%TD*%
%TO.C,R11*%
X88287500Y-73400000D03*
X90112500Y-73400000D03*
%TD*%
%TO.C,R3*%
X87587500Y-48500000D03*
X89412500Y-48500000D03*
%TD*%
D16*
%TO.C,R1*%
X84325000Y-48500000D03*
X82500000Y-48500000D03*
%TD*%
D17*
%TO.C,C5*%
X72500000Y-61550000D03*
X72500000Y-63450000D03*
%TD*%
D13*
%TO.C,U4*%
X77200000Y-48850000D03*
X76700000Y-48850000D03*
X76200000Y-48850000D03*
X75700000Y-48850000D03*
X75200000Y-48850000D03*
X75200000Y-53150000D03*
X75700000Y-53150000D03*
X76200000Y-53150000D03*
X76700000Y-53150000D03*
X77200000Y-53150000D03*
%TD*%
D15*
%TO.C,R9*%
X95787500Y-68400000D03*
X97612500Y-68400000D03*
%TD*%
D11*
%TO.C,R19*%
X72500000Y-54087500D03*
X72500000Y-55912500D03*
%TD*%
D15*
%TO.C,R6*%
X92587500Y-56000000D03*
X94412500Y-56000000D03*
%TD*%
D11*
%TO.C,R17*%
X70000000Y-61587500D03*
X70000000Y-63412500D03*
%TD*%
D18*
%TO.C,R16*%
X70000000Y-51912500D03*
X70000000Y-50087500D03*
%TD*%
D19*
%TO.C,C1*%
X82462500Y-53500000D03*
X84362500Y-53500000D03*
%TD*%
D18*
%TO.C,R12*%
X85500000Y-39212500D03*
X85500000Y-37387500D03*
%TD*%
D11*
%TO.C,R15*%
X67600000Y-61587500D03*
X67600000Y-63412500D03*
%TD*%
D15*
%TO.C,R5*%
X92587500Y-58500000D03*
X94412500Y-58500000D03*
%TD*%
D12*
%TO.C,C3*%
X84150000Y-70400000D03*
X82250000Y-70400000D03*
%TD*%
D16*
%TO.C,R14*%
X84112500Y-73400000D03*
X82287500Y-73400000D03*
%TD*%
D15*
%TO.C,R2*%
X82500000Y-51000000D03*
X84325000Y-51000000D03*
%TD*%
D16*
%TO.C,R10*%
X90112500Y-70400000D03*
X88287500Y-70400000D03*
%TD*%
D11*
%TO.C,R13*%
X85500000Y-32387500D03*
X85500000Y-34212500D03*
%TD*%
D15*
%TO.C,R7*%
X95787500Y-63400000D03*
X97612500Y-63400000D03*
%TD*%
D16*
%TO.C,R4*%
X89412500Y-51000000D03*
X87587500Y-51000000D03*
%TD*%
M02*
