%TF.GenerationSoftware,KiCad,Pcbnew,7.0.8*%
%TF.CreationDate,2024-02-01T15:05:35+01:00*%
%TF.ProjectId,SMD Microcontroller Schematics,534d4420-4d69-4637-926f-636f6e74726f,rev?*%
%TF.SameCoordinates,Original*%
%TF.FileFunction,Copper,L3,Inr*%
%TF.FilePolarity,Positive*%
%FSLAX46Y46*%
G04 Gerber Fmt 4.6, Leading zero omitted, Abs format (unit mm)*
G04 Created by KiCad (PCBNEW 7.0.8) date 2024-02-01 15:05:35*
%MOMM*%
%LPD*%
G01*
G04 APERTURE LIST*
G04 Aperture macros list*
%AMRoundRect*
0 Rectangle with rounded corners*
0 $1 Rounding radius*
0 $2 $3 $4 $5 $6 $7 $8 $9 X,Y pos of 4 corners*
0 Add a 4 corners polygon primitive as box body*
4,1,4,$2,$3,$4,$5,$6,$7,$8,$9,$2,$3,0*
0 Add four circle primitives for the rounded corners*
1,1,$1+$1,$2,$3*
1,1,$1+$1,$4,$5*
1,1,$1+$1,$6,$7*
1,1,$1+$1,$8,$9*
0 Add four rect primitives between the rounded corners*
20,1,$1+$1,$2,$3,$4,$5,0*
20,1,$1+$1,$4,$5,$6,$7,0*
20,1,$1+$1,$6,$7,$8,$9,0*
20,1,$1+$1,$8,$9,$2,$3,0*%
G04 Aperture macros list end*
%TA.AperFunction,ComponentPad*%
%ADD10RoundRect,0.250000X0.600000X0.750000X-0.600000X0.750000X-0.600000X-0.750000X0.600000X-0.750000X0*%
%TD*%
%TA.AperFunction,ComponentPad*%
%ADD11O,1.700000X2.000000*%
%TD*%
%TA.AperFunction,ComponentPad*%
%ADD12RoundRect,0.250000X-0.725000X0.600000X-0.725000X-0.600000X0.725000X-0.600000X0.725000X0.600000X0*%
%TD*%
%TA.AperFunction,ComponentPad*%
%ADD13O,1.950000X1.700000*%
%TD*%
%TA.AperFunction,ComponentPad*%
%ADD14R,2.000000X2.000000*%
%TD*%
%TA.AperFunction,ComponentPad*%
%ADD15C,2.000000*%
%TD*%
%TA.AperFunction,ComponentPad*%
%ADD16R,1.500000X2.500000*%
%TD*%
%TA.AperFunction,ComponentPad*%
%ADD17O,1.500000X2.500000*%
%TD*%
%TA.AperFunction,ComponentPad*%
%ADD18C,1.400000*%
%TD*%
%TA.AperFunction,ComponentPad*%
%ADD19O,1.400000X1.400000*%
%TD*%
%TA.AperFunction,ComponentPad*%
%ADD20RoundRect,0.250000X0.600000X0.725000X-0.600000X0.725000X-0.600000X-0.725000X0.600000X-0.725000X0*%
%TD*%
%TA.AperFunction,ComponentPad*%
%ADD21O,1.700000X1.950000*%
%TD*%
%TA.AperFunction,ComponentPad*%
%ADD22R,1.600000X1.600000*%
%TD*%
%TA.AperFunction,ComponentPad*%
%ADD23O,1.600000X1.600000*%
%TD*%
%TA.AperFunction,ViaPad*%
%ADD24C,0.800000*%
%TD*%
%TA.AperFunction,ViaPad*%
%ADD25C,0.900000*%
%TD*%
%TA.AperFunction,ViaPad*%
%ADD26C,0.950000*%
%TD*%
%TA.AperFunction,Conductor*%
%ADD27C,0.400000*%
%TD*%
%TA.AperFunction,Conductor*%
%ADD28C,1.000000*%
%TD*%
G04 APERTURE END LIST*
D10*
%TO.N,Net-(ESP1-TX0)*%
%TO.C,J2*%
X73000000Y-35000000D03*
D11*
%TO.N,Net-(ESP1-RX0)*%
X70500000Y-35000000D03*
%TD*%
D12*
%TO.N,GND*%
%TO.C,J10*%
X104500000Y-76000000D03*
D13*
%TO.N,Net-(J10-Pin_2)*%
X104500000Y-78500000D03*
%TO.N,5V*%
X104500000Y-81000000D03*
%TD*%
D10*
%TO.N,GND*%
%TO.C,J5*%
X103000000Y-41775000D03*
D11*
%TO.N,Net-(J5-Pin_2)*%
X100500000Y-41775000D03*
%TD*%
D14*
%TO.N,3.3V*%
%TO.C,ESP1*%
X61900000Y-72915000D03*
D15*
%TO.N,GND*%
X61900000Y-70375000D03*
%TO.N,Net-(ESP1-D15)*%
X61900000Y-67835000D03*
%TO.N,Net-(ESP1-D2)*%
X61900000Y-65295000D03*
%TO.N,Net-(ESP1-D4)*%
X61900000Y-62755000D03*
%TO.N,unconnected-(ESP1-RX2-Pad6)*%
X61900000Y-60215000D03*
%TO.N,unconnected-(ESP1-TX2-Pad7)*%
X61900000Y-57675000D03*
%TO.N,Net-(ESP1-D5)*%
X61900000Y-55135000D03*
%TO.N,Net-(ESP1-D18)*%
X61900000Y-52595000D03*
%TO.N,GP19*%
X61900000Y-50055000D03*
%TO.N,SDA*%
X61900000Y-47515000D03*
%TO.N,Net-(ESP1-RX0)*%
X61900000Y-44975000D03*
%TO.N,Net-(ESP1-TX0)*%
X61900000Y-42435000D03*
%TO.N,SCL*%
X61900000Y-39895000D03*
%TO.N,GPIO 27 - PWM*%
X61900000Y-37355000D03*
%TO.N,unconnected-(ESP1-EN-Pad16)*%
X36500000Y-37355000D03*
%TO.N,unconnected-(ESP1-VP-Pad17)*%
X36500000Y-39895000D03*
%TO.N,unconnected-(ESP1-VN-Pad18)*%
X36500000Y-42435000D03*
%TO.N,/D34*%
X36500000Y-44975000D03*
%TO.N,/D35*%
X36500000Y-47515000D03*
%TO.N,/D32*%
X36500000Y-50055000D03*
%TO.N,/D33*%
X36500000Y-52595000D03*
%TO.N,/D25*%
X36500000Y-55135000D03*
%TO.N,/D26*%
X36500000Y-57675000D03*
%TO.N,/D27*%
X36500000Y-60215000D03*
%TO.N,Net-(ESP1-D14)*%
X36500000Y-62755000D03*
%TO.N,Net-(ESP1-D12)*%
X36500000Y-65295000D03*
%TO.N,Net-(ESP1-D13)*%
X36500000Y-67835000D03*
%TO.N,GND*%
X36500000Y-70375000D03*
%TO.N,9V*%
X36500000Y-72915000D03*
%TD*%
D10*
%TO.N,GND*%
%TO.C,J4*%
X103000000Y-35000000D03*
D11*
%TO.N,Net-(J4-Pin_2)*%
X100500000Y-35000000D03*
%TD*%
D10*
%TO.N,GND*%
%TO.C,J7*%
X103000000Y-48575000D03*
D11*
%TO.N,Motor Controller Temp*%
X100500000Y-48575000D03*
%TD*%
D16*
%TO.N,9V*%
%TO.C,U1*%
X74500000Y-70500000D03*
D17*
%TO.N,GND*%
X71960000Y-70500000D03*
%TO.N,5V*%
X69420000Y-70500000D03*
%TD*%
D18*
%TO.N,Net-(J8-Pin_2)*%
%TO.C,R20*%
X105000000Y-70310000D03*
D19*
%TO.N,Net-(R20-Pad2)*%
X105000000Y-62690000D03*
%TD*%
D12*
%TO.N,/MotorGND*%
%TO.C,J9*%
X91950000Y-33825000D03*
D13*
%TO.N,/Data*%
X91950000Y-36325000D03*
%TO.N,/Motor5V*%
X91950000Y-38825000D03*
%TD*%
D18*
%TO.N,GND*%
%TO.C,R21*%
X101500000Y-70310000D03*
D19*
%TO.N,Net-(R20-Pad2)*%
X101500000Y-62690000D03*
%TD*%
D10*
%TO.N,GND*%
%TO.C,J6*%
X103000000Y-55375000D03*
D11*
%TO.N,Motor Temp*%
X100500000Y-55375000D03*
%TD*%
D12*
%TO.N,GND*%
%TO.C,J8*%
X96500000Y-73525000D03*
D13*
%TO.N,Net-(J8-Pin_2)*%
X96500000Y-76025000D03*
%TO.N,Net-(J8-Pin_3)*%
X96500000Y-78525000D03*
%TO.N,5V*%
X96500000Y-81025000D03*
%TD*%
D10*
%TO.N,GND*%
%TO.C,J1*%
X72000000Y-81000000D03*
D11*
%TO.N,9V*%
X69500000Y-81000000D03*
%TD*%
D20*
%TO.N,GND*%
%TO.C,J3*%
X88500000Y-81000000D03*
D21*
%TO.N,GP19*%
X86000000Y-81000000D03*
%TO.N,3.3V*%
X83500000Y-81000000D03*
%TD*%
D22*
%TO.N,GPIO 27 - PWM*%
%TO.C,U3*%
X82275000Y-32500000D03*
D23*
%TO.N,Net-(R13-Pad2)*%
X79735000Y-32500000D03*
%TO.N,/Data*%
X79735000Y-40120000D03*
%TO.N,/Motor5V*%
X82275000Y-40120000D03*
%TD*%
D24*
%TO.N,GND*%
X87000000Y-35812751D03*
X72500000Y-65000000D03*
X80500000Y-69000000D03*
X72500000Y-48000000D03*
X94000000Y-62500000D03*
X80500000Y-63500000D03*
X80500000Y-62000000D03*
D25*
X86000000Y-50200000D03*
D24*
%TO.N,3.3V*%
X89500000Y-58500000D03*
D26*
X79000000Y-72915000D03*
D25*
%TO.N,5V*%
X83547655Y-67952345D03*
D24*
%TO.N,SCL*%
X79000000Y-56000000D03*
X74000000Y-57500000D03*
%TO.N,SDA*%
X77500000Y-56000000D03*
X74000000Y-56000000D03*
%TO.N,Net-(J4-Pin_2)*%
X84325000Y-46500000D03*
%TO.N,Net-(J5-Pin_2)*%
X87587500Y-46500000D03*
%TD*%
D27*
%TO.N,3.3V*%
X79500000Y-73415000D02*
X79500000Y-77000000D01*
X79000000Y-72915000D02*
X79500000Y-73415000D01*
X79500000Y-72415000D02*
X79500000Y-68500000D01*
X79500000Y-68500000D02*
X89500000Y-58500000D01*
X79500000Y-77000000D02*
X83500000Y-81000000D01*
X79000000Y-72915000D02*
X79500000Y-72415000D01*
D28*
%TO.N,9V*%
X69500000Y-81000000D02*
X69500000Y-78500000D01*
X44585000Y-81000000D02*
X36500000Y-72915000D01*
X69500000Y-78500000D02*
X74500000Y-73500000D01*
X69500000Y-81000000D02*
X44585000Y-81000000D01*
X74500000Y-73500000D02*
X74500000Y-70500000D01*
D27*
%TO.N,5V*%
X104475000Y-81025000D02*
X104500000Y-81000000D01*
X96500000Y-81025000D02*
X104475000Y-81025000D01*
%TD*%
M02*
