%TF.GenerationSoftware,KiCad,Pcbnew,7.0.8*%
%TF.CreationDate,2024-02-01T15:05:35+01:00*%
%TF.ProjectId,SMD Microcontroller Schematics,534d4420-4d69-4637-926f-636f6e74726f,rev?*%
%TF.SameCoordinates,Original*%
%TF.FileFunction,Legend,Top*%
%TF.FilePolarity,Positive*%
%FSLAX46Y46*%
G04 Gerber Fmt 4.6, Leading zero omitted, Abs format (unit mm)*
G04 Created by KiCad (PCBNEW 7.0.8) date 2024-02-01 15:05:35*
%MOMM*%
%LPD*%
G01*
G04 APERTURE LIST*
G04 Aperture macros list*
%AMRoundRect*
0 Rectangle with rounded corners*
0 $1 Rounding radius*
0 $2 $3 $4 $5 $6 $7 $8 $9 X,Y pos of 4 corners*
0 Add a 4 corners polygon primitive as box body*
4,1,4,$2,$3,$4,$5,$6,$7,$8,$9,$2,$3,0*
0 Add four circle primitives for the rounded corners*
1,1,$1+$1,$2,$3*
1,1,$1+$1,$4,$5*
1,1,$1+$1,$6,$7*
1,1,$1+$1,$8,$9*
0 Add four rect primitives between the rounded corners*
20,1,$1+$1,$2,$3,$4,$5,0*
20,1,$1+$1,$4,$5,$6,$7,0*
20,1,$1+$1,$6,$7,$8,$9,0*
20,1,$1+$1,$8,$9,$2,$3,0*%
G04 Aperture macros list end*
%ADD10C,0.150000*%
%ADD11C,0.300000*%
%ADD12C,0.120000*%
%ADD13C,0.127000*%
%ADD14C,0.200000*%
%ADD15RoundRect,0.250000X0.600000X0.750000X-0.600000X0.750000X-0.600000X-0.750000X0.600000X-0.750000X0*%
%ADD16O,1.700000X2.000000*%
%ADD17RoundRect,0.150000X0.825000X0.150000X-0.825000X0.150000X-0.825000X-0.150000X0.825000X-0.150000X0*%
%ADD18RoundRect,0.250000X-0.725000X0.600000X-0.725000X-0.600000X0.725000X-0.600000X0.725000X0.600000X0*%
%ADD19O,1.950000X1.700000*%
%ADD20RoundRect,0.250000X-0.450000X0.262500X-0.450000X-0.262500X0.450000X-0.262500X0.450000X0.262500X0*%
%ADD21RoundRect,0.102000X1.000000X1.000000X-1.000000X1.000000X-1.000000X-1.000000X1.000000X-1.000000X0*%
%ADD22C,2.204000*%
%ADD23RoundRect,0.250000X0.250000X0.475000X-0.250000X0.475000X-0.250000X-0.475000X0.250000X-0.475000X0*%
%ADD24R,0.250000X1.100000*%
%ADD25RoundRect,0.250000X0.475000X-0.250000X0.475000X0.250000X-0.475000X0.250000X-0.475000X-0.250000X0*%
%ADD26RoundRect,0.250000X-0.262500X-0.450000X0.262500X-0.450000X0.262500X0.450000X-0.262500X0.450000X0*%
%ADD27RoundRect,0.250000X0.262500X0.450000X-0.262500X0.450000X-0.262500X-0.450000X0.262500X-0.450000X0*%
%ADD28RoundRect,0.250000X-0.475000X0.250000X-0.475000X-0.250000X0.475000X-0.250000X0.475000X0.250000X0*%
%ADD29R,1.500000X2.500000*%
%ADD30O,1.500000X2.500000*%
%ADD31C,1.400000*%
%ADD32O,1.400000X1.400000*%
%ADD33RoundRect,0.250000X0.450000X-0.262500X0.450000X0.262500X-0.450000X0.262500X-0.450000X-0.262500X0*%
%ADD34RoundRect,0.250000X-0.250000X-0.475000X0.250000X-0.475000X0.250000X0.475000X-0.250000X0.475000X0*%
%ADD35RoundRect,0.250000X0.600000X0.725000X-0.600000X0.725000X-0.600000X-0.725000X0.600000X-0.725000X0*%
%ADD36O,1.700000X1.950000*%
%ADD37R,1.600000X1.600000*%
%ADD38O,1.600000X1.600000*%
G04 APERTURE END LIST*
D10*
X107000000Y-59500000D02*
X95750000Y-59500000D01*
X77750000Y-30800000D02*
X95250000Y-30800000D01*
X95250000Y-43300000D01*
X77750000Y-43300000D01*
X77750000Y-30800000D01*
X84500000Y-62000000D02*
X84500000Y-68000000D01*
X95750000Y-59500000D02*
X93250000Y-62000000D01*
X93250000Y-62000000D02*
X84500000Y-62000000D01*
X37012969Y-28595009D02*
X36898684Y-28533104D01*
X36898684Y-28533104D02*
X36727255Y-28533104D01*
X36727255Y-28533104D02*
X36555826Y-28595009D01*
X36555826Y-28595009D02*
X36441541Y-28718819D01*
X36441541Y-28718819D02*
X36384398Y-28842628D01*
X36384398Y-28842628D02*
X36327255Y-29090247D01*
X36327255Y-29090247D02*
X36327255Y-29275961D01*
X36327255Y-29275961D02*
X36384398Y-29523580D01*
X36384398Y-29523580D02*
X36441541Y-29647390D01*
X36441541Y-29647390D02*
X36555826Y-29771200D01*
X36555826Y-29771200D02*
X36727255Y-29833104D01*
X36727255Y-29833104D02*
X36841541Y-29833104D01*
X36841541Y-29833104D02*
X37012969Y-29771200D01*
X37012969Y-29771200D02*
X37070112Y-29709295D01*
X37070112Y-29709295D02*
X37070112Y-29275961D01*
X37070112Y-29275961D02*
X36841541Y-29275961D01*
X38270112Y-29833104D02*
X37870112Y-29214057D01*
X37584398Y-29833104D02*
X37584398Y-28533104D01*
X37584398Y-28533104D02*
X38041541Y-28533104D01*
X38041541Y-28533104D02*
X38155826Y-28595009D01*
X38155826Y-28595009D02*
X38212969Y-28656914D01*
X38212969Y-28656914D02*
X38270112Y-28780723D01*
X38270112Y-28780723D02*
X38270112Y-28966438D01*
X38270112Y-28966438D02*
X38212969Y-29090247D01*
X38212969Y-29090247D02*
X38155826Y-29152152D01*
X38155826Y-29152152D02*
X38041541Y-29214057D01*
X38041541Y-29214057D02*
X37584398Y-29214057D01*
X38784398Y-29152152D02*
X39184398Y-29152152D01*
X39355826Y-29833104D02*
X38784398Y-29833104D01*
X38784398Y-29833104D02*
X38784398Y-28533104D01*
X38784398Y-28533104D02*
X39355826Y-28533104D01*
X39870112Y-29152152D02*
X40270112Y-29152152D01*
X40441540Y-29833104D02*
X39870112Y-29833104D01*
X39870112Y-29833104D02*
X39870112Y-28533104D01*
X39870112Y-28533104D02*
X40441540Y-28533104D01*
X40955826Y-29833104D02*
X40955826Y-28533104D01*
X40955826Y-28533104D02*
X41641540Y-29833104D01*
X41641540Y-29833104D02*
X41641540Y-28533104D01*
X42212969Y-29833104D02*
X42212969Y-28533104D01*
X42212969Y-28533104D02*
X42670112Y-28533104D01*
X42670112Y-28533104D02*
X42784397Y-28595009D01*
X42784397Y-28595009D02*
X42841540Y-28656914D01*
X42841540Y-28656914D02*
X42898683Y-28780723D01*
X42898683Y-28780723D02*
X42898683Y-28966438D01*
X42898683Y-28966438D02*
X42841540Y-29090247D01*
X42841540Y-29090247D02*
X42784397Y-29152152D01*
X42784397Y-29152152D02*
X42670112Y-29214057D01*
X42670112Y-29214057D02*
X42212969Y-29214057D01*
X43641540Y-28533104D02*
X43870112Y-28533104D01*
X43870112Y-28533104D02*
X43984397Y-28595009D01*
X43984397Y-28595009D02*
X44098683Y-28718819D01*
X44098683Y-28718819D02*
X44155826Y-28966438D01*
X44155826Y-28966438D02*
X44155826Y-29399771D01*
X44155826Y-29399771D02*
X44098683Y-29647390D01*
X44098683Y-29647390D02*
X43984397Y-29771200D01*
X43984397Y-29771200D02*
X43870112Y-29833104D01*
X43870112Y-29833104D02*
X43641540Y-29833104D01*
X43641540Y-29833104D02*
X43527255Y-29771200D01*
X43527255Y-29771200D02*
X43412969Y-29647390D01*
X43412969Y-29647390D02*
X43355826Y-29399771D01*
X43355826Y-29399771D02*
X43355826Y-28966438D01*
X43355826Y-28966438D02*
X43412969Y-28718819D01*
X43412969Y-28718819D02*
X43527255Y-28595009D01*
X43527255Y-28595009D02*
X43641540Y-28533104D01*
X44555826Y-28533104D02*
X44841540Y-29833104D01*
X44841540Y-29833104D02*
X45070112Y-28904533D01*
X45070112Y-28904533D02*
X45298683Y-29833104D01*
X45298683Y-29833104D02*
X45584398Y-28533104D01*
X46041541Y-29152152D02*
X46441541Y-29152152D01*
X46612969Y-29833104D02*
X46041541Y-29833104D01*
X46041541Y-29833104D02*
X46041541Y-28533104D01*
X46041541Y-28533104D02*
X46612969Y-28533104D01*
X47812969Y-29833104D02*
X47412969Y-29214057D01*
X47127255Y-29833104D02*
X47127255Y-28533104D01*
X47127255Y-28533104D02*
X47584398Y-28533104D01*
X47584398Y-28533104D02*
X47698683Y-28595009D01*
X47698683Y-28595009D02*
X47755826Y-28656914D01*
X47755826Y-28656914D02*
X47812969Y-28780723D01*
X47812969Y-28780723D02*
X47812969Y-28966438D01*
X47812969Y-28966438D02*
X47755826Y-29090247D01*
X47755826Y-29090247D02*
X47698683Y-29152152D01*
X47698683Y-29152152D02*
X47584398Y-29214057D01*
X47584398Y-29214057D02*
X47127255Y-29214057D01*
X49641541Y-29152152D02*
X49241541Y-29152152D01*
X49241541Y-29833104D02*
X49241541Y-28533104D01*
X49241541Y-28533104D02*
X49812969Y-28533104D01*
X50212969Y-28656914D02*
X50270112Y-28595009D01*
X50270112Y-28595009D02*
X50384398Y-28533104D01*
X50384398Y-28533104D02*
X50670112Y-28533104D01*
X50670112Y-28533104D02*
X50784398Y-28595009D01*
X50784398Y-28595009D02*
X50841540Y-28656914D01*
X50841540Y-28656914D02*
X50898683Y-28780723D01*
X50898683Y-28780723D02*
X50898683Y-28904533D01*
X50898683Y-28904533D02*
X50841540Y-29090247D01*
X50841540Y-29090247D02*
X50155826Y-29833104D01*
X50155826Y-29833104D02*
X50898683Y-29833104D01*
X51927255Y-28966438D02*
X51927255Y-29833104D01*
X51641540Y-28471200D02*
X51355826Y-29399771D01*
X51355826Y-29399771D02*
X52098683Y-29399771D01*
X53470112Y-29337866D02*
X54384398Y-29337866D01*
X56555826Y-29833104D02*
X56155826Y-29214057D01*
X55870112Y-29833104D02*
X55870112Y-28533104D01*
X55870112Y-28533104D02*
X56327255Y-28533104D01*
X56327255Y-28533104D02*
X56441540Y-28595009D01*
X56441540Y-28595009D02*
X56498683Y-28656914D01*
X56498683Y-28656914D02*
X56555826Y-28780723D01*
X56555826Y-28780723D02*
X56555826Y-28966438D01*
X56555826Y-28966438D02*
X56498683Y-29090247D01*
X56498683Y-29090247D02*
X56441540Y-29152152D01*
X56441540Y-29152152D02*
X56327255Y-29214057D01*
X56327255Y-29214057D02*
X55870112Y-29214057D01*
X57070112Y-29152152D02*
X57470112Y-29152152D01*
X57641540Y-29833104D02*
X57070112Y-29833104D01*
X57070112Y-29833104D02*
X57070112Y-28533104D01*
X57070112Y-28533104D02*
X57641540Y-28533104D01*
X58098683Y-29461676D02*
X58670112Y-29461676D01*
X57984397Y-29833104D02*
X58384397Y-28533104D01*
X58384397Y-28533104D02*
X58784397Y-29833104D01*
X59870111Y-29833104D02*
X59470111Y-29214057D01*
X59184397Y-29833104D02*
X59184397Y-28533104D01*
X59184397Y-28533104D02*
X59641540Y-28533104D01*
X59641540Y-28533104D02*
X59755825Y-28595009D01*
X59755825Y-28595009D02*
X59812968Y-28656914D01*
X59812968Y-28656914D02*
X59870111Y-28780723D01*
X59870111Y-28780723D02*
X59870111Y-28966438D01*
X59870111Y-28966438D02*
X59812968Y-29090247D01*
X59812968Y-29090247D02*
X59755825Y-29152152D01*
X59755825Y-29152152D02*
X59641540Y-29214057D01*
X59641540Y-29214057D02*
X59184397Y-29214057D01*
X61298683Y-29833104D02*
X61298683Y-28533104D01*
X61298683Y-28533104D02*
X61698683Y-29461676D01*
X61698683Y-29461676D02*
X62098683Y-28533104D01*
X62098683Y-28533104D02*
X62098683Y-29833104D01*
X62670112Y-29833104D02*
X62670112Y-28533104D01*
X63927255Y-29709295D02*
X63870112Y-29771200D01*
X63870112Y-29771200D02*
X63698684Y-29833104D01*
X63698684Y-29833104D02*
X63584398Y-29833104D01*
X63584398Y-29833104D02*
X63412969Y-29771200D01*
X63412969Y-29771200D02*
X63298684Y-29647390D01*
X63298684Y-29647390D02*
X63241541Y-29523580D01*
X63241541Y-29523580D02*
X63184398Y-29275961D01*
X63184398Y-29275961D02*
X63184398Y-29090247D01*
X63184398Y-29090247D02*
X63241541Y-28842628D01*
X63241541Y-28842628D02*
X63298684Y-28718819D01*
X63298684Y-28718819D02*
X63412969Y-28595009D01*
X63412969Y-28595009D02*
X63584398Y-28533104D01*
X63584398Y-28533104D02*
X63698684Y-28533104D01*
X63698684Y-28533104D02*
X63870112Y-28595009D01*
X63870112Y-28595009D02*
X63927255Y-28656914D01*
X65127255Y-29833104D02*
X64727255Y-29214057D01*
X64441541Y-29833104D02*
X64441541Y-28533104D01*
X64441541Y-28533104D02*
X64898684Y-28533104D01*
X64898684Y-28533104D02*
X65012969Y-28595009D01*
X65012969Y-28595009D02*
X65070112Y-28656914D01*
X65070112Y-28656914D02*
X65127255Y-28780723D01*
X65127255Y-28780723D02*
X65127255Y-28966438D01*
X65127255Y-28966438D02*
X65070112Y-29090247D01*
X65070112Y-29090247D02*
X65012969Y-29152152D01*
X65012969Y-29152152D02*
X64898684Y-29214057D01*
X64898684Y-29214057D02*
X64441541Y-29214057D01*
X65870112Y-28533104D02*
X66098684Y-28533104D01*
X66098684Y-28533104D02*
X66212969Y-28595009D01*
X66212969Y-28595009D02*
X66327255Y-28718819D01*
X66327255Y-28718819D02*
X66384398Y-28966438D01*
X66384398Y-28966438D02*
X66384398Y-29399771D01*
X66384398Y-29399771D02*
X66327255Y-29647390D01*
X66327255Y-29647390D02*
X66212969Y-29771200D01*
X66212969Y-29771200D02*
X66098684Y-29833104D01*
X66098684Y-29833104D02*
X65870112Y-29833104D01*
X65870112Y-29833104D02*
X65755827Y-29771200D01*
X65755827Y-29771200D02*
X65641541Y-29647390D01*
X65641541Y-29647390D02*
X65584398Y-29399771D01*
X65584398Y-29399771D02*
X65584398Y-28966438D01*
X65584398Y-28966438D02*
X65641541Y-28718819D01*
X65641541Y-28718819D02*
X65755827Y-28595009D01*
X65755827Y-28595009D02*
X65870112Y-28533104D01*
X67584398Y-29709295D02*
X67527255Y-29771200D01*
X67527255Y-29771200D02*
X67355827Y-29833104D01*
X67355827Y-29833104D02*
X67241541Y-29833104D01*
X67241541Y-29833104D02*
X67070112Y-29771200D01*
X67070112Y-29771200D02*
X66955827Y-29647390D01*
X66955827Y-29647390D02*
X66898684Y-29523580D01*
X66898684Y-29523580D02*
X66841541Y-29275961D01*
X66841541Y-29275961D02*
X66841541Y-29090247D01*
X66841541Y-29090247D02*
X66898684Y-28842628D01*
X66898684Y-28842628D02*
X66955827Y-28718819D01*
X66955827Y-28718819D02*
X67070112Y-28595009D01*
X67070112Y-28595009D02*
X67241541Y-28533104D01*
X67241541Y-28533104D02*
X67355827Y-28533104D01*
X67355827Y-28533104D02*
X67527255Y-28595009D01*
X67527255Y-28595009D02*
X67584398Y-28656914D01*
X68327255Y-28533104D02*
X68555827Y-28533104D01*
X68555827Y-28533104D02*
X68670112Y-28595009D01*
X68670112Y-28595009D02*
X68784398Y-28718819D01*
X68784398Y-28718819D02*
X68841541Y-28966438D01*
X68841541Y-28966438D02*
X68841541Y-29399771D01*
X68841541Y-29399771D02*
X68784398Y-29647390D01*
X68784398Y-29647390D02*
X68670112Y-29771200D01*
X68670112Y-29771200D02*
X68555827Y-29833104D01*
X68555827Y-29833104D02*
X68327255Y-29833104D01*
X68327255Y-29833104D02*
X68212970Y-29771200D01*
X68212970Y-29771200D02*
X68098684Y-29647390D01*
X68098684Y-29647390D02*
X68041541Y-29399771D01*
X68041541Y-29399771D02*
X68041541Y-28966438D01*
X68041541Y-28966438D02*
X68098684Y-28718819D01*
X68098684Y-28718819D02*
X68212970Y-28595009D01*
X68212970Y-28595009D02*
X68327255Y-28533104D01*
X69355827Y-29833104D02*
X69355827Y-28533104D01*
X69355827Y-28533104D02*
X70041541Y-29833104D01*
X70041541Y-29833104D02*
X70041541Y-28533104D01*
X70441541Y-28533104D02*
X71127256Y-28533104D01*
X70784398Y-29833104D02*
X70784398Y-28533104D01*
X72212970Y-29833104D02*
X71812970Y-29214057D01*
X71527256Y-29833104D02*
X71527256Y-28533104D01*
X71527256Y-28533104D02*
X71984399Y-28533104D01*
X71984399Y-28533104D02*
X72098684Y-28595009D01*
X72098684Y-28595009D02*
X72155827Y-28656914D01*
X72155827Y-28656914D02*
X72212970Y-28780723D01*
X72212970Y-28780723D02*
X72212970Y-28966438D01*
X72212970Y-28966438D02*
X72155827Y-29090247D01*
X72155827Y-29090247D02*
X72098684Y-29152152D01*
X72098684Y-29152152D02*
X71984399Y-29214057D01*
X71984399Y-29214057D02*
X71527256Y-29214057D01*
X72955827Y-28533104D02*
X73184399Y-28533104D01*
X73184399Y-28533104D02*
X73298684Y-28595009D01*
X73298684Y-28595009D02*
X73412970Y-28718819D01*
X73412970Y-28718819D02*
X73470113Y-28966438D01*
X73470113Y-28966438D02*
X73470113Y-29399771D01*
X73470113Y-29399771D02*
X73412970Y-29647390D01*
X73412970Y-29647390D02*
X73298684Y-29771200D01*
X73298684Y-29771200D02*
X73184399Y-29833104D01*
X73184399Y-29833104D02*
X72955827Y-29833104D01*
X72955827Y-29833104D02*
X72841542Y-29771200D01*
X72841542Y-29771200D02*
X72727256Y-29647390D01*
X72727256Y-29647390D02*
X72670113Y-29399771D01*
X72670113Y-29399771D02*
X72670113Y-28966438D01*
X72670113Y-28966438D02*
X72727256Y-28718819D01*
X72727256Y-28718819D02*
X72841542Y-28595009D01*
X72841542Y-28595009D02*
X72955827Y-28533104D01*
X74555827Y-29833104D02*
X73984399Y-29833104D01*
X73984399Y-29833104D02*
X73984399Y-28533104D01*
X75527256Y-29833104D02*
X74955828Y-29833104D01*
X74955828Y-29833104D02*
X74955828Y-28533104D01*
X75927257Y-29152152D02*
X76327257Y-29152152D01*
X76498685Y-29833104D02*
X75927257Y-29833104D01*
X75927257Y-29833104D02*
X75927257Y-28533104D01*
X75927257Y-28533104D02*
X76498685Y-28533104D01*
X77698685Y-29833104D02*
X77298685Y-29214057D01*
X77012971Y-29833104D02*
X77012971Y-28533104D01*
X77012971Y-28533104D02*
X77470114Y-28533104D01*
X77470114Y-28533104D02*
X77584399Y-28595009D01*
X77584399Y-28595009D02*
X77641542Y-28656914D01*
X77641542Y-28656914D02*
X77698685Y-28780723D01*
X77698685Y-28780723D02*
X77698685Y-28966438D01*
X77698685Y-28966438D02*
X77641542Y-29090247D01*
X77641542Y-29090247D02*
X77584399Y-29152152D01*
X77584399Y-29152152D02*
X77470114Y-29214057D01*
X77470114Y-29214057D02*
X77012971Y-29214057D01*
X79070114Y-29771200D02*
X79241543Y-29833104D01*
X79241543Y-29833104D02*
X79527257Y-29833104D01*
X79527257Y-29833104D02*
X79641543Y-29771200D01*
X79641543Y-29771200D02*
X79698685Y-29709295D01*
X79698685Y-29709295D02*
X79755828Y-29585485D01*
X79755828Y-29585485D02*
X79755828Y-29461676D01*
X79755828Y-29461676D02*
X79698685Y-29337866D01*
X79698685Y-29337866D02*
X79641543Y-29275961D01*
X79641543Y-29275961D02*
X79527257Y-29214057D01*
X79527257Y-29214057D02*
X79298685Y-29152152D01*
X79298685Y-29152152D02*
X79184400Y-29090247D01*
X79184400Y-29090247D02*
X79127257Y-29028342D01*
X79127257Y-29028342D02*
X79070114Y-28904533D01*
X79070114Y-28904533D02*
X79070114Y-28780723D01*
X79070114Y-28780723D02*
X79127257Y-28656914D01*
X79127257Y-28656914D02*
X79184400Y-28595009D01*
X79184400Y-28595009D02*
X79298685Y-28533104D01*
X79298685Y-28533104D02*
X79584400Y-28533104D01*
X79584400Y-28533104D02*
X79755828Y-28595009D01*
X80498685Y-29214057D02*
X80498685Y-29833104D01*
X80098685Y-28533104D02*
X80498685Y-29214057D01*
X80498685Y-29214057D02*
X80898685Y-28533104D01*
X81241542Y-29771200D02*
X81412971Y-29833104D01*
X81412971Y-29833104D02*
X81698685Y-29833104D01*
X81698685Y-29833104D02*
X81812971Y-29771200D01*
X81812971Y-29771200D02*
X81870113Y-29709295D01*
X81870113Y-29709295D02*
X81927256Y-29585485D01*
X81927256Y-29585485D02*
X81927256Y-29461676D01*
X81927256Y-29461676D02*
X81870113Y-29337866D01*
X81870113Y-29337866D02*
X81812971Y-29275961D01*
X81812971Y-29275961D02*
X81698685Y-29214057D01*
X81698685Y-29214057D02*
X81470113Y-29152152D01*
X81470113Y-29152152D02*
X81355828Y-29090247D01*
X81355828Y-29090247D02*
X81298685Y-29028342D01*
X81298685Y-29028342D02*
X81241542Y-28904533D01*
X81241542Y-28904533D02*
X81241542Y-28780723D01*
X81241542Y-28780723D02*
X81298685Y-28656914D01*
X81298685Y-28656914D02*
X81355828Y-28595009D01*
X81355828Y-28595009D02*
X81470113Y-28533104D01*
X81470113Y-28533104D02*
X81755828Y-28533104D01*
X81755828Y-28533104D02*
X81927256Y-28595009D01*
X82270113Y-28533104D02*
X82955828Y-28533104D01*
X82612970Y-29833104D02*
X82612970Y-28533104D01*
X83355828Y-29152152D02*
X83755828Y-29152152D01*
X83927256Y-29833104D02*
X83355828Y-29833104D01*
X83355828Y-29833104D02*
X83355828Y-28533104D01*
X83355828Y-28533104D02*
X83927256Y-28533104D01*
X84441542Y-29833104D02*
X84441542Y-28533104D01*
X84441542Y-28533104D02*
X84841542Y-29461676D01*
X84841542Y-29461676D02*
X85241542Y-28533104D01*
X85241542Y-28533104D02*
X85241542Y-29833104D01*
X76869819Y-84663220D02*
X75869819Y-84663220D01*
X75869819Y-84663220D02*
X75869819Y-84282268D01*
X75869819Y-84282268D02*
X75917438Y-84187030D01*
X75917438Y-84187030D02*
X75965057Y-84139411D01*
X75965057Y-84139411D02*
X76060295Y-84091792D01*
X76060295Y-84091792D02*
X76203152Y-84091792D01*
X76203152Y-84091792D02*
X76298390Y-84139411D01*
X76298390Y-84139411D02*
X76346009Y-84187030D01*
X76346009Y-84187030D02*
X76393628Y-84282268D01*
X76393628Y-84282268D02*
X76393628Y-84663220D01*
X75869819Y-83758458D02*
X76869819Y-83520363D01*
X76869819Y-83520363D02*
X76155533Y-83329887D01*
X76155533Y-83329887D02*
X76869819Y-83139411D01*
X76869819Y-83139411D02*
X75869819Y-82901316D01*
X76869819Y-81948935D02*
X76393628Y-82282268D01*
X76869819Y-82520363D02*
X75869819Y-82520363D01*
X75869819Y-82520363D02*
X75869819Y-82139411D01*
X75869819Y-82139411D02*
X75917438Y-82044173D01*
X75917438Y-82044173D02*
X75965057Y-81996554D01*
X75965057Y-81996554D02*
X76060295Y-81948935D01*
X76060295Y-81948935D02*
X76203152Y-81948935D01*
X76203152Y-81948935D02*
X76298390Y-81996554D01*
X76298390Y-81996554D02*
X76346009Y-82044173D01*
X76346009Y-82044173D02*
X76393628Y-82139411D01*
X76393628Y-82139411D02*
X76393628Y-82520363D01*
X77250771Y-80472744D02*
X77203152Y-80520363D01*
X77203152Y-80520363D02*
X77060295Y-80615601D01*
X77060295Y-80615601D02*
X76965057Y-80663220D01*
X76965057Y-80663220D02*
X76822200Y-80710839D01*
X76822200Y-80710839D02*
X76584104Y-80758458D01*
X76584104Y-80758458D02*
X76393628Y-80758458D01*
X76393628Y-80758458D02*
X76155533Y-80710839D01*
X76155533Y-80710839D02*
X76012676Y-80663220D01*
X76012676Y-80663220D02*
X75917438Y-80615601D01*
X75917438Y-80615601D02*
X75774580Y-80520363D01*
X75774580Y-80520363D02*
X75726961Y-80472744D01*
X76488866Y-80234648D02*
X76441247Y-80187029D01*
X76441247Y-80187029D02*
X76393628Y-80091791D01*
X76393628Y-80091791D02*
X76488866Y-79901315D01*
X76488866Y-79901315D02*
X76441247Y-79806077D01*
X76441247Y-79806077D02*
X76393628Y-79758458D01*
X76869819Y-79329886D02*
X76869819Y-79139410D01*
X76869819Y-79139410D02*
X76822200Y-79044172D01*
X76822200Y-79044172D02*
X76774580Y-78996553D01*
X76774580Y-78996553D02*
X76631723Y-78901315D01*
X76631723Y-78901315D02*
X76441247Y-78853696D01*
X76441247Y-78853696D02*
X76060295Y-78853696D01*
X76060295Y-78853696D02*
X75965057Y-78901315D01*
X75965057Y-78901315D02*
X75917438Y-78948934D01*
X75917438Y-78948934D02*
X75869819Y-79044172D01*
X75869819Y-79044172D02*
X75869819Y-79234648D01*
X75869819Y-79234648D02*
X75917438Y-79329886D01*
X75917438Y-79329886D02*
X75965057Y-79377505D01*
X75965057Y-79377505D02*
X76060295Y-79425124D01*
X76060295Y-79425124D02*
X76298390Y-79425124D01*
X76298390Y-79425124D02*
X76393628Y-79377505D01*
X76393628Y-79377505D02*
X76441247Y-79329886D01*
X76441247Y-79329886D02*
X76488866Y-79234648D01*
X76488866Y-79234648D02*
X76488866Y-79044172D01*
X76488866Y-79044172D02*
X76441247Y-78948934D01*
X76441247Y-78948934D02*
X76393628Y-78901315D01*
X76393628Y-78901315D02*
X76298390Y-78853696D01*
X75869819Y-78567981D02*
X76869819Y-78234648D01*
X76869819Y-78234648D02*
X75869819Y-77901315D01*
X77250771Y-77663219D02*
X77203152Y-77615600D01*
X77203152Y-77615600D02*
X77060295Y-77520362D01*
X77060295Y-77520362D02*
X76965057Y-77472743D01*
X76965057Y-77472743D02*
X76822200Y-77425124D01*
X76822200Y-77425124D02*
X76584104Y-77377505D01*
X76584104Y-77377505D02*
X76393628Y-77377505D01*
X76393628Y-77377505D02*
X76155533Y-77425124D01*
X76155533Y-77425124D02*
X76012676Y-77472743D01*
X76012676Y-77472743D02*
X75917438Y-77520362D01*
X75917438Y-77520362D02*
X75774580Y-77615600D01*
X75774580Y-77615600D02*
X75726961Y-77663219D01*
X72408207Y-39369819D02*
X72074874Y-38893628D01*
X71836779Y-39369819D02*
X71836779Y-38369819D01*
X71836779Y-38369819D02*
X72217731Y-38369819D01*
X72217731Y-38369819D02*
X72312969Y-38417438D01*
X72312969Y-38417438D02*
X72360588Y-38465057D01*
X72360588Y-38465057D02*
X72408207Y-38560295D01*
X72408207Y-38560295D02*
X72408207Y-38703152D01*
X72408207Y-38703152D02*
X72360588Y-38798390D01*
X72360588Y-38798390D02*
X72312969Y-38846009D01*
X72312969Y-38846009D02*
X72217731Y-38893628D01*
X72217731Y-38893628D02*
X71836779Y-38893628D01*
X72741541Y-38369819D02*
X73408207Y-39369819D01*
X73408207Y-38369819D02*
X72741541Y-39369819D01*
X74408208Y-38369819D02*
X74979636Y-38369819D01*
X74693922Y-39369819D02*
X74693922Y-38369819D01*
X75217732Y-38369819D02*
X75884398Y-39369819D01*
X75884398Y-38369819D02*
X75217732Y-39369819D01*
X78086779Y-42919819D02*
X78086779Y-41919819D01*
X78086779Y-41919819D02*
X78420112Y-42634104D01*
X78420112Y-42634104D02*
X78753445Y-41919819D01*
X78753445Y-41919819D02*
X78753445Y-42919819D01*
X79372493Y-42919819D02*
X79277255Y-42872200D01*
X79277255Y-42872200D02*
X79229636Y-42824580D01*
X79229636Y-42824580D02*
X79182017Y-42729342D01*
X79182017Y-42729342D02*
X79182017Y-42443628D01*
X79182017Y-42443628D02*
X79229636Y-42348390D01*
X79229636Y-42348390D02*
X79277255Y-42300771D01*
X79277255Y-42300771D02*
X79372493Y-42253152D01*
X79372493Y-42253152D02*
X79515350Y-42253152D01*
X79515350Y-42253152D02*
X79610588Y-42300771D01*
X79610588Y-42300771D02*
X79658207Y-42348390D01*
X79658207Y-42348390D02*
X79705826Y-42443628D01*
X79705826Y-42443628D02*
X79705826Y-42729342D01*
X79705826Y-42729342D02*
X79658207Y-42824580D01*
X79658207Y-42824580D02*
X79610588Y-42872200D01*
X79610588Y-42872200D02*
X79515350Y-42919819D01*
X79515350Y-42919819D02*
X79372493Y-42919819D01*
X79991541Y-42253152D02*
X80372493Y-42253152D01*
X80134398Y-41919819D02*
X80134398Y-42776961D01*
X80134398Y-42776961D02*
X80182017Y-42872200D01*
X80182017Y-42872200D02*
X80277255Y-42919819D01*
X80277255Y-42919819D02*
X80372493Y-42919819D01*
X80848684Y-42919819D02*
X80753446Y-42872200D01*
X80753446Y-42872200D02*
X80705827Y-42824580D01*
X80705827Y-42824580D02*
X80658208Y-42729342D01*
X80658208Y-42729342D02*
X80658208Y-42443628D01*
X80658208Y-42443628D02*
X80705827Y-42348390D01*
X80705827Y-42348390D02*
X80753446Y-42300771D01*
X80753446Y-42300771D02*
X80848684Y-42253152D01*
X80848684Y-42253152D02*
X80991541Y-42253152D01*
X80991541Y-42253152D02*
X81086779Y-42300771D01*
X81086779Y-42300771D02*
X81134398Y-42348390D01*
X81134398Y-42348390D02*
X81182017Y-42443628D01*
X81182017Y-42443628D02*
X81182017Y-42729342D01*
X81182017Y-42729342D02*
X81134398Y-42824580D01*
X81134398Y-42824580D02*
X81086779Y-42872200D01*
X81086779Y-42872200D02*
X80991541Y-42919819D01*
X80991541Y-42919819D02*
X80848684Y-42919819D01*
X81610589Y-42919819D02*
X81610589Y-42253152D01*
X81610589Y-42443628D02*
X81658208Y-42348390D01*
X81658208Y-42348390D02*
X81705827Y-42300771D01*
X81705827Y-42300771D02*
X81801065Y-42253152D01*
X81801065Y-42253152D02*
X81896303Y-42253152D01*
X82991542Y-42919819D02*
X82991542Y-41919819D01*
X82991542Y-41919819D02*
X83229637Y-41919819D01*
X83229637Y-41919819D02*
X83372494Y-41967438D01*
X83372494Y-41967438D02*
X83467732Y-42062676D01*
X83467732Y-42062676D02*
X83515351Y-42157914D01*
X83515351Y-42157914D02*
X83562970Y-42348390D01*
X83562970Y-42348390D02*
X83562970Y-42491247D01*
X83562970Y-42491247D02*
X83515351Y-42681723D01*
X83515351Y-42681723D02*
X83467732Y-42776961D01*
X83467732Y-42776961D02*
X83372494Y-42872200D01*
X83372494Y-42872200D02*
X83229637Y-42919819D01*
X83229637Y-42919819D02*
X82991542Y-42919819D01*
X83991542Y-42919819D02*
X83991542Y-42253152D01*
X83991542Y-42443628D02*
X84039161Y-42348390D01*
X84039161Y-42348390D02*
X84086780Y-42300771D01*
X84086780Y-42300771D02*
X84182018Y-42253152D01*
X84182018Y-42253152D02*
X84277256Y-42253152D01*
X84610590Y-42919819D02*
X84610590Y-42253152D01*
X84610590Y-41919819D02*
X84562971Y-41967438D01*
X84562971Y-41967438D02*
X84610590Y-42015057D01*
X84610590Y-42015057D02*
X84658209Y-41967438D01*
X84658209Y-41967438D02*
X84610590Y-41919819D01*
X84610590Y-41919819D02*
X84610590Y-42015057D01*
X84991542Y-42253152D02*
X85229637Y-42919819D01*
X85229637Y-42919819D02*
X85467732Y-42253152D01*
X86229637Y-42872200D02*
X86134399Y-42919819D01*
X86134399Y-42919819D02*
X85943923Y-42919819D01*
X85943923Y-42919819D02*
X85848685Y-42872200D01*
X85848685Y-42872200D02*
X85801066Y-42776961D01*
X85801066Y-42776961D02*
X85801066Y-42396009D01*
X85801066Y-42396009D02*
X85848685Y-42300771D01*
X85848685Y-42300771D02*
X85943923Y-42253152D01*
X85943923Y-42253152D02*
X86134399Y-42253152D01*
X86134399Y-42253152D02*
X86229637Y-42300771D01*
X86229637Y-42300771D02*
X86277256Y-42396009D01*
X86277256Y-42396009D02*
X86277256Y-42491247D01*
X86277256Y-42491247D02*
X85801066Y-42586485D01*
X86705828Y-42919819D02*
X86705828Y-42253152D01*
X86705828Y-42443628D02*
X86753447Y-42348390D01*
X86753447Y-42348390D02*
X86801066Y-42300771D01*
X86801066Y-42300771D02*
X86896304Y-42253152D01*
X86896304Y-42253152D02*
X86991542Y-42253152D01*
X106675247Y-37244173D02*
X106713342Y-37129887D01*
X106713342Y-37129887D02*
X106751438Y-37091792D01*
X106751438Y-37091792D02*
X106827628Y-37053696D01*
X106827628Y-37053696D02*
X106941914Y-37053696D01*
X106941914Y-37053696D02*
X107018104Y-37091792D01*
X107018104Y-37091792D02*
X107056200Y-37129887D01*
X107056200Y-37129887D02*
X107094295Y-37206077D01*
X107094295Y-37206077D02*
X107094295Y-37510839D01*
X107094295Y-37510839D02*
X106294295Y-37510839D01*
X106294295Y-37510839D02*
X106294295Y-37244173D01*
X106294295Y-37244173D02*
X106332390Y-37167982D01*
X106332390Y-37167982D02*
X106370485Y-37129887D01*
X106370485Y-37129887D02*
X106446676Y-37091792D01*
X106446676Y-37091792D02*
X106522866Y-37091792D01*
X106522866Y-37091792D02*
X106599057Y-37129887D01*
X106599057Y-37129887D02*
X106637152Y-37167982D01*
X106637152Y-37167982D02*
X106675247Y-37244173D01*
X106675247Y-37244173D02*
X106675247Y-37510839D01*
X107094295Y-36367982D02*
X106675247Y-36367982D01*
X106675247Y-36367982D02*
X106599057Y-36406077D01*
X106599057Y-36406077D02*
X106560961Y-36482268D01*
X106560961Y-36482268D02*
X106560961Y-36634649D01*
X106560961Y-36634649D02*
X106599057Y-36710839D01*
X107056200Y-36367982D02*
X107094295Y-36444173D01*
X107094295Y-36444173D02*
X107094295Y-36634649D01*
X107094295Y-36634649D02*
X107056200Y-36710839D01*
X107056200Y-36710839D02*
X106980009Y-36748935D01*
X106980009Y-36748935D02*
X106903819Y-36748935D01*
X106903819Y-36748935D02*
X106827628Y-36710839D01*
X106827628Y-36710839D02*
X106789533Y-36634649D01*
X106789533Y-36634649D02*
X106789533Y-36444173D01*
X106789533Y-36444173D02*
X106751438Y-36367982D01*
X106560961Y-36101315D02*
X106560961Y-35796553D01*
X106294295Y-35987029D02*
X106980009Y-35987029D01*
X106980009Y-35987029D02*
X107056200Y-35948934D01*
X107056200Y-35948934D02*
X107094295Y-35872744D01*
X107094295Y-35872744D02*
X107094295Y-35796553D01*
X107094295Y-34501315D02*
X107094295Y-34958458D01*
X107094295Y-34729886D02*
X106294295Y-34729886D01*
X106294295Y-34729886D02*
X106408580Y-34806077D01*
X106408580Y-34806077D02*
X106484771Y-34882267D01*
X106484771Y-34882267D02*
X106522866Y-34958458D01*
X106294295Y-34272743D02*
X107094295Y-34006076D01*
X107094295Y-34006076D02*
X106294295Y-33739410D01*
X106675247Y-44044173D02*
X106713342Y-43929887D01*
X106713342Y-43929887D02*
X106751438Y-43891792D01*
X106751438Y-43891792D02*
X106827628Y-43853696D01*
X106827628Y-43853696D02*
X106941914Y-43853696D01*
X106941914Y-43853696D02*
X107018104Y-43891792D01*
X107018104Y-43891792D02*
X107056200Y-43929887D01*
X107056200Y-43929887D02*
X107094295Y-44006077D01*
X107094295Y-44006077D02*
X107094295Y-44310839D01*
X107094295Y-44310839D02*
X106294295Y-44310839D01*
X106294295Y-44310839D02*
X106294295Y-44044173D01*
X106294295Y-44044173D02*
X106332390Y-43967982D01*
X106332390Y-43967982D02*
X106370485Y-43929887D01*
X106370485Y-43929887D02*
X106446676Y-43891792D01*
X106446676Y-43891792D02*
X106522866Y-43891792D01*
X106522866Y-43891792D02*
X106599057Y-43929887D01*
X106599057Y-43929887D02*
X106637152Y-43967982D01*
X106637152Y-43967982D02*
X106675247Y-44044173D01*
X106675247Y-44044173D02*
X106675247Y-44310839D01*
X107094295Y-43167982D02*
X106675247Y-43167982D01*
X106675247Y-43167982D02*
X106599057Y-43206077D01*
X106599057Y-43206077D02*
X106560961Y-43282268D01*
X106560961Y-43282268D02*
X106560961Y-43434649D01*
X106560961Y-43434649D02*
X106599057Y-43510839D01*
X107056200Y-43167982D02*
X107094295Y-43244173D01*
X107094295Y-43244173D02*
X107094295Y-43434649D01*
X107094295Y-43434649D02*
X107056200Y-43510839D01*
X107056200Y-43510839D02*
X106980009Y-43548935D01*
X106980009Y-43548935D02*
X106903819Y-43548935D01*
X106903819Y-43548935D02*
X106827628Y-43510839D01*
X106827628Y-43510839D02*
X106789533Y-43434649D01*
X106789533Y-43434649D02*
X106789533Y-43244173D01*
X106789533Y-43244173D02*
X106751438Y-43167982D01*
X106560961Y-42901315D02*
X106560961Y-42596553D01*
X106294295Y-42787029D02*
X106980009Y-42787029D01*
X106980009Y-42787029D02*
X107056200Y-42748934D01*
X107056200Y-42748934D02*
X107094295Y-42672744D01*
X107094295Y-42672744D02*
X107094295Y-42596553D01*
X107094295Y-41301315D02*
X107094295Y-41758458D01*
X107094295Y-41529886D02*
X106294295Y-41529886D01*
X106294295Y-41529886D02*
X106408580Y-41606077D01*
X106408580Y-41606077D02*
X106484771Y-41682267D01*
X106484771Y-41682267D02*
X106522866Y-41758458D01*
X106789533Y-40958457D02*
X106789533Y-40348934D01*
X107094295Y-40653695D02*
X106484771Y-40653695D01*
X106370485Y-40006077D02*
X106332390Y-39967981D01*
X106332390Y-39967981D02*
X106294295Y-39891791D01*
X106294295Y-39891791D02*
X106294295Y-39701315D01*
X106294295Y-39701315D02*
X106332390Y-39625124D01*
X106332390Y-39625124D02*
X106370485Y-39587029D01*
X106370485Y-39587029D02*
X106446676Y-39548934D01*
X106446676Y-39548934D02*
X106522866Y-39548934D01*
X106522866Y-39548934D02*
X106637152Y-39587029D01*
X106637152Y-39587029D02*
X107094295Y-40044172D01*
X107094295Y-40044172D02*
X107094295Y-39548934D01*
X106294295Y-39320362D02*
X107094295Y-39053695D01*
X107094295Y-39053695D02*
X106294295Y-38787029D01*
X32771200Y-76672744D02*
X32833104Y-76501316D01*
X32833104Y-76501316D02*
X32833104Y-76215601D01*
X32833104Y-76215601D02*
X32771200Y-76101316D01*
X32771200Y-76101316D02*
X32709295Y-76044173D01*
X32709295Y-76044173D02*
X32585485Y-75987030D01*
X32585485Y-75987030D02*
X32461676Y-75987030D01*
X32461676Y-75987030D02*
X32337866Y-76044173D01*
X32337866Y-76044173D02*
X32275961Y-76101316D01*
X32275961Y-76101316D02*
X32214057Y-76215601D01*
X32214057Y-76215601D02*
X32152152Y-76444173D01*
X32152152Y-76444173D02*
X32090247Y-76558458D01*
X32090247Y-76558458D02*
X32028342Y-76615601D01*
X32028342Y-76615601D02*
X31904533Y-76672744D01*
X31904533Y-76672744D02*
X31780723Y-76672744D01*
X31780723Y-76672744D02*
X31656914Y-76615601D01*
X31656914Y-76615601D02*
X31595009Y-76558458D01*
X31595009Y-76558458D02*
X31533104Y-76444173D01*
X31533104Y-76444173D02*
X31533104Y-76158458D01*
X31533104Y-76158458D02*
X31595009Y-75987030D01*
X32833104Y-75472744D02*
X31966438Y-75472744D01*
X31533104Y-75472744D02*
X31595009Y-75529887D01*
X31595009Y-75529887D02*
X31656914Y-75472744D01*
X31656914Y-75472744D02*
X31595009Y-75415601D01*
X31595009Y-75415601D02*
X31533104Y-75472744D01*
X31533104Y-75472744D02*
X31656914Y-75472744D01*
X32833104Y-74729887D02*
X32771200Y-74844172D01*
X32771200Y-74844172D02*
X32647390Y-74901315D01*
X32647390Y-74901315D02*
X31533104Y-74901315D01*
X31966438Y-74387030D02*
X32833104Y-74101316D01*
X32833104Y-74101316D02*
X31966438Y-73815601D01*
X32771200Y-72901315D02*
X32833104Y-73015601D01*
X32833104Y-73015601D02*
X32833104Y-73244173D01*
X32833104Y-73244173D02*
X32771200Y-73358458D01*
X32771200Y-73358458D02*
X32647390Y-73415601D01*
X32647390Y-73415601D02*
X32152152Y-73415601D01*
X32152152Y-73415601D02*
X32028342Y-73358458D01*
X32028342Y-73358458D02*
X31966438Y-73244173D01*
X31966438Y-73244173D02*
X31966438Y-73015601D01*
X31966438Y-73015601D02*
X32028342Y-72901315D01*
X32028342Y-72901315D02*
X32152152Y-72844173D01*
X32152152Y-72844173D02*
X32275961Y-72844173D01*
X32275961Y-72844173D02*
X32399771Y-73415601D01*
X32833104Y-72329887D02*
X31966438Y-72329887D01*
X32214057Y-72329887D02*
X32090247Y-72272744D01*
X32090247Y-72272744D02*
X32028342Y-72215602D01*
X32028342Y-72215602D02*
X31966438Y-72101316D01*
X31966438Y-72101316D02*
X31966438Y-71987030D01*
X32833104Y-71587030D02*
X31533104Y-71587030D01*
X32028342Y-71587030D02*
X31966438Y-71472745D01*
X31966438Y-71472745D02*
X31966438Y-71244173D01*
X31966438Y-71244173D02*
X32028342Y-71129887D01*
X32028342Y-71129887D02*
X32090247Y-71072745D01*
X32090247Y-71072745D02*
X32214057Y-71015602D01*
X32214057Y-71015602D02*
X32585485Y-71015602D01*
X32585485Y-71015602D02*
X32709295Y-71072745D01*
X32709295Y-71072745D02*
X32771200Y-71129887D01*
X32771200Y-71129887D02*
X32833104Y-71244173D01*
X32833104Y-71244173D02*
X32833104Y-71472745D01*
X32833104Y-71472745D02*
X32771200Y-71587030D01*
X32833104Y-69987031D02*
X32152152Y-69987031D01*
X32152152Y-69987031D02*
X32028342Y-70044173D01*
X32028342Y-70044173D02*
X31966438Y-70158459D01*
X31966438Y-70158459D02*
X31966438Y-70387031D01*
X31966438Y-70387031D02*
X32028342Y-70501316D01*
X32771200Y-69987031D02*
X32833104Y-70101316D01*
X32833104Y-70101316D02*
X32833104Y-70387031D01*
X32833104Y-70387031D02*
X32771200Y-70501316D01*
X32771200Y-70501316D02*
X32647390Y-70558459D01*
X32647390Y-70558459D02*
X32523580Y-70558459D01*
X32523580Y-70558459D02*
X32399771Y-70501316D01*
X32399771Y-70501316D02*
X32337866Y-70387031D01*
X32337866Y-70387031D02*
X32337866Y-70101316D01*
X32337866Y-70101316D02*
X32275961Y-69987031D01*
X32771200Y-68901317D02*
X32833104Y-69015602D01*
X32833104Y-69015602D02*
X32833104Y-69244174D01*
X32833104Y-69244174D02*
X32771200Y-69358459D01*
X32771200Y-69358459D02*
X32709295Y-69415602D01*
X32709295Y-69415602D02*
X32585485Y-69472745D01*
X32585485Y-69472745D02*
X32214057Y-69472745D01*
X32214057Y-69472745D02*
X32090247Y-69415602D01*
X32090247Y-69415602D02*
X32028342Y-69358459D01*
X32028342Y-69358459D02*
X31966438Y-69244174D01*
X31966438Y-69244174D02*
X31966438Y-69015602D01*
X31966438Y-69015602D02*
X32028342Y-68901317D01*
X32833104Y-68387031D02*
X31533104Y-68387031D01*
X32337866Y-68272746D02*
X32833104Y-67929888D01*
X31966438Y-67929888D02*
X32461676Y-68387031D01*
X32771200Y-67472745D02*
X32833104Y-67358459D01*
X32833104Y-67358459D02*
X32833104Y-67129888D01*
X32833104Y-67129888D02*
X32771200Y-67015602D01*
X32771200Y-67015602D02*
X32647390Y-66958459D01*
X32647390Y-66958459D02*
X32585485Y-66958459D01*
X32585485Y-66958459D02*
X32461676Y-67015602D01*
X32461676Y-67015602D02*
X32399771Y-67129888D01*
X32399771Y-67129888D02*
X32399771Y-67301317D01*
X32399771Y-67301317D02*
X32337866Y-67415602D01*
X32337866Y-67415602D02*
X32214057Y-67472745D01*
X32214057Y-67472745D02*
X32152152Y-67472745D01*
X32152152Y-67472745D02*
X32028342Y-67415602D01*
X32028342Y-67415602D02*
X31966438Y-67301317D01*
X31966438Y-67301317D02*
X31966438Y-67129888D01*
X31966438Y-67129888D02*
X32028342Y-67015602D01*
X32152152Y-65529887D02*
X32152152Y-65129887D01*
X32833104Y-64958459D02*
X32833104Y-65529887D01*
X32833104Y-65529887D02*
X31533104Y-65529887D01*
X31533104Y-65529887D02*
X31533104Y-64958459D01*
X31966438Y-64444173D02*
X32833104Y-64444173D01*
X32090247Y-64444173D02*
X32028342Y-64387030D01*
X32028342Y-64387030D02*
X31966438Y-64272745D01*
X31966438Y-64272745D02*
X31966438Y-64101316D01*
X31966438Y-64101316D02*
X32028342Y-63987030D01*
X32028342Y-63987030D02*
X32152152Y-63929888D01*
X32152152Y-63929888D02*
X32833104Y-63929888D01*
X31966438Y-62844174D02*
X33018819Y-62844174D01*
X33018819Y-62844174D02*
X33142628Y-62901316D01*
X33142628Y-62901316D02*
X33204533Y-62958459D01*
X33204533Y-62958459D02*
X33266438Y-63072745D01*
X33266438Y-63072745D02*
X33266438Y-63244174D01*
X33266438Y-63244174D02*
X33204533Y-63358459D01*
X32771200Y-62844174D02*
X32833104Y-62958459D01*
X32833104Y-62958459D02*
X32833104Y-63187031D01*
X32833104Y-63187031D02*
X32771200Y-63301316D01*
X32771200Y-63301316D02*
X32709295Y-63358459D01*
X32709295Y-63358459D02*
X32585485Y-63415602D01*
X32585485Y-63415602D02*
X32214057Y-63415602D01*
X32214057Y-63415602D02*
X32090247Y-63358459D01*
X32090247Y-63358459D02*
X32028342Y-63301316D01*
X32028342Y-63301316D02*
X31966438Y-63187031D01*
X31966438Y-63187031D02*
X31966438Y-62958459D01*
X31966438Y-62958459D02*
X32028342Y-62844174D01*
X32833104Y-62272745D02*
X31966438Y-62272745D01*
X31533104Y-62272745D02*
X31595009Y-62329888D01*
X31595009Y-62329888D02*
X31656914Y-62272745D01*
X31656914Y-62272745D02*
X31595009Y-62215602D01*
X31595009Y-62215602D02*
X31533104Y-62272745D01*
X31533104Y-62272745D02*
X31656914Y-62272745D01*
X31966438Y-61701316D02*
X32833104Y-61701316D01*
X32090247Y-61701316D02*
X32028342Y-61644173D01*
X32028342Y-61644173D02*
X31966438Y-61529888D01*
X31966438Y-61529888D02*
X31966438Y-61358459D01*
X31966438Y-61358459D02*
X32028342Y-61244173D01*
X32028342Y-61244173D02*
X32152152Y-61187031D01*
X32152152Y-61187031D02*
X32833104Y-61187031D01*
X32771200Y-60158459D02*
X32833104Y-60272745D01*
X32833104Y-60272745D02*
X32833104Y-60501317D01*
X32833104Y-60501317D02*
X32771200Y-60615602D01*
X32771200Y-60615602D02*
X32647390Y-60672745D01*
X32647390Y-60672745D02*
X32152152Y-60672745D01*
X32152152Y-60672745D02*
X32028342Y-60615602D01*
X32028342Y-60615602D02*
X31966438Y-60501317D01*
X31966438Y-60501317D02*
X31966438Y-60272745D01*
X31966438Y-60272745D02*
X32028342Y-60158459D01*
X32028342Y-60158459D02*
X32152152Y-60101317D01*
X32152152Y-60101317D02*
X32275961Y-60101317D01*
X32275961Y-60101317D02*
X32399771Y-60672745D01*
X32771200Y-59129888D02*
X32833104Y-59244174D01*
X32833104Y-59244174D02*
X32833104Y-59472746D01*
X32833104Y-59472746D02*
X32771200Y-59587031D01*
X32771200Y-59587031D02*
X32647390Y-59644174D01*
X32647390Y-59644174D02*
X32152152Y-59644174D01*
X32152152Y-59644174D02*
X32028342Y-59587031D01*
X32028342Y-59587031D02*
X31966438Y-59472746D01*
X31966438Y-59472746D02*
X31966438Y-59244174D01*
X31966438Y-59244174D02*
X32028342Y-59129888D01*
X32028342Y-59129888D02*
X32152152Y-59072746D01*
X32152152Y-59072746D02*
X32275961Y-59072746D01*
X32275961Y-59072746D02*
X32399771Y-59644174D01*
X32833104Y-58558460D02*
X31966438Y-58558460D01*
X32214057Y-58558460D02*
X32090247Y-58501317D01*
X32090247Y-58501317D02*
X32028342Y-58444175D01*
X32028342Y-58444175D02*
X31966438Y-58329889D01*
X31966438Y-58329889D02*
X31966438Y-58215603D01*
X32833104Y-57815603D02*
X31966438Y-57815603D01*
X31533104Y-57815603D02*
X31595009Y-57872746D01*
X31595009Y-57872746D02*
X31656914Y-57815603D01*
X31656914Y-57815603D02*
X31595009Y-57758460D01*
X31595009Y-57758460D02*
X31533104Y-57815603D01*
X31533104Y-57815603D02*
X31656914Y-57815603D01*
X31966438Y-57244174D02*
X32833104Y-57244174D01*
X32090247Y-57244174D02*
X32028342Y-57187031D01*
X32028342Y-57187031D02*
X31966438Y-57072746D01*
X31966438Y-57072746D02*
X31966438Y-56901317D01*
X31966438Y-56901317D02*
X32028342Y-56787031D01*
X32028342Y-56787031D02*
X32152152Y-56729889D01*
X32152152Y-56729889D02*
X32833104Y-56729889D01*
X31966438Y-55644175D02*
X33018819Y-55644175D01*
X33018819Y-55644175D02*
X33142628Y-55701317D01*
X33142628Y-55701317D02*
X33204533Y-55758460D01*
X33204533Y-55758460D02*
X33266438Y-55872746D01*
X33266438Y-55872746D02*
X33266438Y-56044175D01*
X33266438Y-56044175D02*
X33204533Y-56158460D01*
X32771200Y-55644175D02*
X32833104Y-55758460D01*
X32833104Y-55758460D02*
X32833104Y-55987032D01*
X32833104Y-55987032D02*
X32771200Y-56101317D01*
X32771200Y-56101317D02*
X32709295Y-56158460D01*
X32709295Y-56158460D02*
X32585485Y-56215603D01*
X32585485Y-56215603D02*
X32214057Y-56215603D01*
X32214057Y-56215603D02*
X32090247Y-56158460D01*
X32090247Y-56158460D02*
X32028342Y-56101317D01*
X32028342Y-56101317D02*
X31966438Y-55987032D01*
X31966438Y-55987032D02*
X31966438Y-55758460D01*
X31966438Y-55758460D02*
X32028342Y-55644175D01*
X32337866Y-54158460D02*
X32337866Y-53244175D01*
X32833104Y-51758460D02*
X31533104Y-51758460D01*
X32771200Y-51244174D02*
X32833104Y-51072746D01*
X32833104Y-51072746D02*
X32833104Y-50787031D01*
X32833104Y-50787031D02*
X32771200Y-50672746D01*
X32771200Y-50672746D02*
X32709295Y-50615603D01*
X32709295Y-50615603D02*
X32585485Y-50558460D01*
X32585485Y-50558460D02*
X32461676Y-50558460D01*
X32461676Y-50558460D02*
X32337866Y-50615603D01*
X32337866Y-50615603D02*
X32275961Y-50672746D01*
X32275961Y-50672746D02*
X32214057Y-50787031D01*
X32214057Y-50787031D02*
X32152152Y-51015603D01*
X32152152Y-51015603D02*
X32090247Y-51129888D01*
X32090247Y-51129888D02*
X32028342Y-51187031D01*
X32028342Y-51187031D02*
X31904533Y-51244174D01*
X31904533Y-51244174D02*
X31780723Y-51244174D01*
X31780723Y-51244174D02*
X31656914Y-51187031D01*
X31656914Y-51187031D02*
X31595009Y-51129888D01*
X31595009Y-51129888D02*
X31533104Y-51015603D01*
X31533104Y-51015603D02*
X31533104Y-50729888D01*
X31533104Y-50729888D02*
X31595009Y-50558460D01*
X32833104Y-50044174D02*
X31533104Y-50044174D01*
X32152152Y-50044174D02*
X32152152Y-49358460D01*
X32833104Y-49358460D02*
X31533104Y-49358460D01*
X32337866Y-47872745D02*
X32337866Y-46958460D01*
X31656914Y-45529888D02*
X31595009Y-45472745D01*
X31595009Y-45472745D02*
X31533104Y-45358460D01*
X31533104Y-45358460D02*
X31533104Y-45072745D01*
X31533104Y-45072745D02*
X31595009Y-44958460D01*
X31595009Y-44958460D02*
X31656914Y-44901317D01*
X31656914Y-44901317D02*
X31780723Y-44844174D01*
X31780723Y-44844174D02*
X31904533Y-44844174D01*
X31904533Y-44844174D02*
X32090247Y-44901317D01*
X32090247Y-44901317D02*
X32833104Y-45587031D01*
X32833104Y-45587031D02*
X32833104Y-44844174D01*
X31533104Y-44101317D02*
X31533104Y-43987031D01*
X31533104Y-43987031D02*
X31595009Y-43872745D01*
X31595009Y-43872745D02*
X31656914Y-43815603D01*
X31656914Y-43815603D02*
X31780723Y-43758460D01*
X31780723Y-43758460D02*
X32028342Y-43701317D01*
X32028342Y-43701317D02*
X32337866Y-43701317D01*
X32337866Y-43701317D02*
X32585485Y-43758460D01*
X32585485Y-43758460D02*
X32709295Y-43815603D01*
X32709295Y-43815603D02*
X32771200Y-43872745D01*
X32771200Y-43872745D02*
X32833104Y-43987031D01*
X32833104Y-43987031D02*
X32833104Y-44101317D01*
X32833104Y-44101317D02*
X32771200Y-44215603D01*
X32771200Y-44215603D02*
X32709295Y-44272745D01*
X32709295Y-44272745D02*
X32585485Y-44329888D01*
X32585485Y-44329888D02*
X32337866Y-44387031D01*
X32337866Y-44387031D02*
X32028342Y-44387031D01*
X32028342Y-44387031D02*
X31780723Y-44329888D01*
X31780723Y-44329888D02*
X31656914Y-44272745D01*
X31656914Y-44272745D02*
X31595009Y-44215603D01*
X31595009Y-44215603D02*
X31533104Y-44101317D01*
X31656914Y-43244174D02*
X31595009Y-43187031D01*
X31595009Y-43187031D02*
X31533104Y-43072746D01*
X31533104Y-43072746D02*
X31533104Y-42787031D01*
X31533104Y-42787031D02*
X31595009Y-42672746D01*
X31595009Y-42672746D02*
X31656914Y-42615603D01*
X31656914Y-42615603D02*
X31780723Y-42558460D01*
X31780723Y-42558460D02*
X31904533Y-42558460D01*
X31904533Y-42558460D02*
X32090247Y-42615603D01*
X32090247Y-42615603D02*
X32833104Y-43301317D01*
X32833104Y-43301317D02*
X32833104Y-42558460D01*
X31533104Y-42158460D02*
X31533104Y-41415603D01*
X31533104Y-41415603D02*
X32028342Y-41815603D01*
X32028342Y-41815603D02*
X32028342Y-41644174D01*
X32028342Y-41644174D02*
X32090247Y-41529889D01*
X32090247Y-41529889D02*
X32152152Y-41472746D01*
X32152152Y-41472746D02*
X32275961Y-41415603D01*
X32275961Y-41415603D02*
X32585485Y-41415603D01*
X32585485Y-41415603D02*
X32709295Y-41472746D01*
X32709295Y-41472746D02*
X32771200Y-41529889D01*
X32771200Y-41529889D02*
X32833104Y-41644174D01*
X32833104Y-41644174D02*
X32833104Y-41987031D01*
X32833104Y-41987031D02*
X32771200Y-42101317D01*
X32771200Y-42101317D02*
X32709295Y-42158460D01*
X31471200Y-40044174D02*
X33142628Y-41072746D01*
X31656914Y-39701317D02*
X31595009Y-39644174D01*
X31595009Y-39644174D02*
X31533104Y-39529889D01*
X31533104Y-39529889D02*
X31533104Y-39244174D01*
X31533104Y-39244174D02*
X31595009Y-39129889D01*
X31595009Y-39129889D02*
X31656914Y-39072746D01*
X31656914Y-39072746D02*
X31780723Y-39015603D01*
X31780723Y-39015603D02*
X31904533Y-39015603D01*
X31904533Y-39015603D02*
X32090247Y-39072746D01*
X32090247Y-39072746D02*
X32833104Y-39758460D01*
X32833104Y-39758460D02*
X32833104Y-39015603D01*
X31966438Y-37987032D02*
X32833104Y-37987032D01*
X31471200Y-38272746D02*
X32399771Y-38558460D01*
X32399771Y-38558460D02*
X32399771Y-37815603D01*
X107094295Y-51110839D02*
X106294295Y-51110839D01*
X106294295Y-51110839D02*
X106865723Y-50844173D01*
X106865723Y-50844173D02*
X106294295Y-50577506D01*
X106294295Y-50577506D02*
X107094295Y-50577506D01*
X107018104Y-49739410D02*
X107056200Y-49777506D01*
X107056200Y-49777506D02*
X107094295Y-49891791D01*
X107094295Y-49891791D02*
X107094295Y-49967982D01*
X107094295Y-49967982D02*
X107056200Y-50082268D01*
X107056200Y-50082268D02*
X106980009Y-50158458D01*
X106980009Y-50158458D02*
X106903819Y-50196553D01*
X106903819Y-50196553D02*
X106751438Y-50234649D01*
X106751438Y-50234649D02*
X106637152Y-50234649D01*
X106637152Y-50234649D02*
X106484771Y-50196553D01*
X106484771Y-50196553D02*
X106408580Y-50158458D01*
X106408580Y-50158458D02*
X106332390Y-50082268D01*
X106332390Y-50082268D02*
X106294295Y-49967982D01*
X106294295Y-49967982D02*
X106294295Y-49891791D01*
X106294295Y-49891791D02*
X106332390Y-49777506D01*
X106332390Y-49777506D02*
X106370485Y-49739410D01*
X106294295Y-48901315D02*
X106294295Y-48444172D01*
X107094295Y-48672744D02*
X106294295Y-48672744D01*
X107056200Y-47872743D02*
X107094295Y-47948934D01*
X107094295Y-47948934D02*
X107094295Y-48101315D01*
X107094295Y-48101315D02*
X107056200Y-48177505D01*
X107056200Y-48177505D02*
X106980009Y-48215601D01*
X106980009Y-48215601D02*
X106675247Y-48215601D01*
X106675247Y-48215601D02*
X106599057Y-48177505D01*
X106599057Y-48177505D02*
X106560961Y-48101315D01*
X106560961Y-48101315D02*
X106560961Y-47948934D01*
X106560961Y-47948934D02*
X106599057Y-47872743D01*
X106599057Y-47872743D02*
X106675247Y-47834648D01*
X106675247Y-47834648D02*
X106751438Y-47834648D01*
X106751438Y-47834648D02*
X106827628Y-48215601D01*
X107094295Y-47491791D02*
X106560961Y-47491791D01*
X106637152Y-47491791D02*
X106599057Y-47453696D01*
X106599057Y-47453696D02*
X106560961Y-47377506D01*
X106560961Y-47377506D02*
X106560961Y-47263220D01*
X106560961Y-47263220D02*
X106599057Y-47187029D01*
X106599057Y-47187029D02*
X106675247Y-47148934D01*
X106675247Y-47148934D02*
X107094295Y-47148934D01*
X106675247Y-47148934D02*
X106599057Y-47110839D01*
X106599057Y-47110839D02*
X106560961Y-47034648D01*
X106560961Y-47034648D02*
X106560961Y-46920363D01*
X106560961Y-46920363D02*
X106599057Y-46844172D01*
X106599057Y-46844172D02*
X106675247Y-46806077D01*
X106675247Y-46806077D02*
X107094295Y-46806077D01*
X106560961Y-46425124D02*
X107360961Y-46425124D01*
X106599057Y-46425124D02*
X106560961Y-46348934D01*
X106560961Y-46348934D02*
X106560961Y-46196553D01*
X106560961Y-46196553D02*
X106599057Y-46120362D01*
X106599057Y-46120362D02*
X106637152Y-46082267D01*
X106637152Y-46082267D02*
X106713342Y-46044172D01*
X106713342Y-46044172D02*
X106941914Y-46044172D01*
X106941914Y-46044172D02*
X107018104Y-46082267D01*
X107018104Y-46082267D02*
X107056200Y-46120362D01*
X107056200Y-46120362D02*
X107094295Y-46196553D01*
X107094295Y-46196553D02*
X107094295Y-46348934D01*
X107094295Y-46348934D02*
X107056200Y-46425124D01*
X80836779Y-55759819D02*
X80836779Y-54759819D01*
X80836779Y-54759819D02*
X81074874Y-54759819D01*
X81074874Y-54759819D02*
X81217731Y-54807438D01*
X81217731Y-54807438D02*
X81312969Y-54902676D01*
X81312969Y-54902676D02*
X81360588Y-54997914D01*
X81360588Y-54997914D02*
X81408207Y-55188390D01*
X81408207Y-55188390D02*
X81408207Y-55331247D01*
X81408207Y-55331247D02*
X81360588Y-55521723D01*
X81360588Y-55521723D02*
X81312969Y-55616961D01*
X81312969Y-55616961D02*
X81217731Y-55712200D01*
X81217731Y-55712200D02*
X81074874Y-55759819D01*
X81074874Y-55759819D02*
X80836779Y-55759819D01*
X82217731Y-55712200D02*
X82122493Y-55759819D01*
X82122493Y-55759819D02*
X81932017Y-55759819D01*
X81932017Y-55759819D02*
X81836779Y-55712200D01*
X81836779Y-55712200D02*
X81789160Y-55616961D01*
X81789160Y-55616961D02*
X81789160Y-55236009D01*
X81789160Y-55236009D02*
X81836779Y-55140771D01*
X81836779Y-55140771D02*
X81932017Y-55093152D01*
X81932017Y-55093152D02*
X82122493Y-55093152D01*
X82122493Y-55093152D02*
X82217731Y-55140771D01*
X82217731Y-55140771D02*
X82265350Y-55236009D01*
X82265350Y-55236009D02*
X82265350Y-55331247D01*
X82265350Y-55331247D02*
X81789160Y-55426485D01*
X82646303Y-55712200D02*
X82741541Y-55759819D01*
X82741541Y-55759819D02*
X82932017Y-55759819D01*
X82932017Y-55759819D02*
X83027255Y-55712200D01*
X83027255Y-55712200D02*
X83074874Y-55616961D01*
X83074874Y-55616961D02*
X83074874Y-55569342D01*
X83074874Y-55569342D02*
X83027255Y-55474104D01*
X83027255Y-55474104D02*
X82932017Y-55426485D01*
X82932017Y-55426485D02*
X82789160Y-55426485D01*
X82789160Y-55426485D02*
X82693922Y-55378866D01*
X82693922Y-55378866D02*
X82646303Y-55283628D01*
X82646303Y-55283628D02*
X82646303Y-55236009D01*
X82646303Y-55236009D02*
X82693922Y-55140771D01*
X82693922Y-55140771D02*
X82789160Y-55093152D01*
X82789160Y-55093152D02*
X82932017Y-55093152D01*
X82932017Y-55093152D02*
X83027255Y-55140771D01*
X83503446Y-55759819D02*
X83503446Y-55093152D01*
X83503446Y-54759819D02*
X83455827Y-54807438D01*
X83455827Y-54807438D02*
X83503446Y-54855057D01*
X83503446Y-54855057D02*
X83551065Y-54807438D01*
X83551065Y-54807438D02*
X83503446Y-54759819D01*
X83503446Y-54759819D02*
X83503446Y-54855057D01*
X84408207Y-55093152D02*
X84408207Y-55902676D01*
X84408207Y-55902676D02*
X84360588Y-55997914D01*
X84360588Y-55997914D02*
X84312969Y-56045533D01*
X84312969Y-56045533D02*
X84217731Y-56093152D01*
X84217731Y-56093152D02*
X84074874Y-56093152D01*
X84074874Y-56093152D02*
X83979636Y-56045533D01*
X84408207Y-55712200D02*
X84312969Y-55759819D01*
X84312969Y-55759819D02*
X84122493Y-55759819D01*
X84122493Y-55759819D02*
X84027255Y-55712200D01*
X84027255Y-55712200D02*
X83979636Y-55664580D01*
X83979636Y-55664580D02*
X83932017Y-55569342D01*
X83932017Y-55569342D02*
X83932017Y-55283628D01*
X83932017Y-55283628D02*
X83979636Y-55188390D01*
X83979636Y-55188390D02*
X84027255Y-55140771D01*
X84027255Y-55140771D02*
X84122493Y-55093152D01*
X84122493Y-55093152D02*
X84312969Y-55093152D01*
X84312969Y-55093152D02*
X84408207Y-55140771D01*
X84884398Y-55093152D02*
X84884398Y-55759819D01*
X84884398Y-55188390D02*
X84932017Y-55140771D01*
X84932017Y-55140771D02*
X85027255Y-55093152D01*
X85027255Y-55093152D02*
X85170112Y-55093152D01*
X85170112Y-55093152D02*
X85265350Y-55140771D01*
X85265350Y-55140771D02*
X85312969Y-55236009D01*
X85312969Y-55236009D02*
X85312969Y-55759819D01*
X86170112Y-55712200D02*
X86074874Y-55759819D01*
X86074874Y-55759819D02*
X85884398Y-55759819D01*
X85884398Y-55759819D02*
X85789160Y-55712200D01*
X85789160Y-55712200D02*
X85741541Y-55616961D01*
X85741541Y-55616961D02*
X85741541Y-55236009D01*
X85741541Y-55236009D02*
X85789160Y-55140771D01*
X85789160Y-55140771D02*
X85884398Y-55093152D01*
X85884398Y-55093152D02*
X86074874Y-55093152D01*
X86074874Y-55093152D02*
X86170112Y-55140771D01*
X86170112Y-55140771D02*
X86217731Y-55236009D01*
X86217731Y-55236009D02*
X86217731Y-55331247D01*
X86217731Y-55331247D02*
X85741541Y-55426485D01*
X87074874Y-55759819D02*
X87074874Y-54759819D01*
X87074874Y-55712200D02*
X86979636Y-55759819D01*
X86979636Y-55759819D02*
X86789160Y-55759819D01*
X86789160Y-55759819D02*
X86693922Y-55712200D01*
X86693922Y-55712200D02*
X86646303Y-55664580D01*
X86646303Y-55664580D02*
X86598684Y-55569342D01*
X86598684Y-55569342D02*
X86598684Y-55283628D01*
X86598684Y-55283628D02*
X86646303Y-55188390D01*
X86646303Y-55188390D02*
X86693922Y-55140771D01*
X86693922Y-55140771D02*
X86789160Y-55093152D01*
X86789160Y-55093152D02*
X86979636Y-55093152D01*
X86979636Y-55093152D02*
X87074874Y-55140771D01*
X88312970Y-55759819D02*
X88312970Y-54759819D01*
X88312970Y-55140771D02*
X88408208Y-55093152D01*
X88408208Y-55093152D02*
X88598684Y-55093152D01*
X88598684Y-55093152D02*
X88693922Y-55140771D01*
X88693922Y-55140771D02*
X88741541Y-55188390D01*
X88741541Y-55188390D02*
X88789160Y-55283628D01*
X88789160Y-55283628D02*
X88789160Y-55569342D01*
X88789160Y-55569342D02*
X88741541Y-55664580D01*
X88741541Y-55664580D02*
X88693922Y-55712200D01*
X88693922Y-55712200D02*
X88598684Y-55759819D01*
X88598684Y-55759819D02*
X88408208Y-55759819D01*
X88408208Y-55759819D02*
X88312970Y-55712200D01*
X89122494Y-55093152D02*
X89360589Y-55759819D01*
X89598684Y-55093152D02*
X89360589Y-55759819D01*
X89360589Y-55759819D02*
X89265351Y-55997914D01*
X89265351Y-55997914D02*
X89217732Y-56045533D01*
X89217732Y-56045533D02*
X89122494Y-56093152D01*
X89979637Y-55664580D02*
X90027256Y-55712200D01*
X90027256Y-55712200D02*
X89979637Y-55759819D01*
X89979637Y-55759819D02*
X89932018Y-55712200D01*
X89932018Y-55712200D02*
X89979637Y-55664580D01*
X89979637Y-55664580D02*
X89979637Y-55759819D01*
X89979637Y-55140771D02*
X90027256Y-55188390D01*
X90027256Y-55188390D02*
X89979637Y-55236009D01*
X89979637Y-55236009D02*
X89932018Y-55188390D01*
X89932018Y-55188390D02*
X89979637Y-55140771D01*
X89979637Y-55140771D02*
X89979637Y-55236009D01*
X80693922Y-56369819D02*
X81265350Y-56369819D01*
X80979636Y-57369819D02*
X80979636Y-56369819D01*
X81741541Y-57369819D02*
X81646303Y-57322200D01*
X81646303Y-57322200D02*
X81598684Y-57274580D01*
X81598684Y-57274580D02*
X81551065Y-57179342D01*
X81551065Y-57179342D02*
X81551065Y-56893628D01*
X81551065Y-56893628D02*
X81598684Y-56798390D01*
X81598684Y-56798390D02*
X81646303Y-56750771D01*
X81646303Y-56750771D02*
X81741541Y-56703152D01*
X81741541Y-56703152D02*
X81884398Y-56703152D01*
X81884398Y-56703152D02*
X81979636Y-56750771D01*
X81979636Y-56750771D02*
X82027255Y-56798390D01*
X82027255Y-56798390D02*
X82074874Y-56893628D01*
X82074874Y-56893628D02*
X82074874Y-57179342D01*
X82074874Y-57179342D02*
X82027255Y-57274580D01*
X82027255Y-57274580D02*
X81979636Y-57322200D01*
X81979636Y-57322200D02*
X81884398Y-57369819D01*
X81884398Y-57369819D02*
X81741541Y-57369819D01*
X82503446Y-57369819D02*
X82503446Y-56703152D01*
X82503446Y-56798390D02*
X82551065Y-56750771D01*
X82551065Y-56750771D02*
X82646303Y-56703152D01*
X82646303Y-56703152D02*
X82789160Y-56703152D01*
X82789160Y-56703152D02*
X82884398Y-56750771D01*
X82884398Y-56750771D02*
X82932017Y-56846009D01*
X82932017Y-56846009D02*
X82932017Y-57369819D01*
X82932017Y-56846009D02*
X82979636Y-56750771D01*
X82979636Y-56750771D02*
X83074874Y-56703152D01*
X83074874Y-56703152D02*
X83217731Y-56703152D01*
X83217731Y-56703152D02*
X83312970Y-56750771D01*
X83312970Y-56750771D02*
X83360589Y-56846009D01*
X83360589Y-56846009D02*
X83360589Y-57369819D01*
X84932017Y-56846009D02*
X85074874Y-56893628D01*
X85074874Y-56893628D02*
X85122493Y-56941247D01*
X85122493Y-56941247D02*
X85170112Y-57036485D01*
X85170112Y-57036485D02*
X85170112Y-57179342D01*
X85170112Y-57179342D02*
X85122493Y-57274580D01*
X85122493Y-57274580D02*
X85074874Y-57322200D01*
X85074874Y-57322200D02*
X84979636Y-57369819D01*
X84979636Y-57369819D02*
X84598684Y-57369819D01*
X84598684Y-57369819D02*
X84598684Y-56369819D01*
X84598684Y-56369819D02*
X84932017Y-56369819D01*
X84932017Y-56369819D02*
X85027255Y-56417438D01*
X85027255Y-56417438D02*
X85074874Y-56465057D01*
X85074874Y-56465057D02*
X85122493Y-56560295D01*
X85122493Y-56560295D02*
X85122493Y-56655533D01*
X85122493Y-56655533D02*
X85074874Y-56750771D01*
X85074874Y-56750771D02*
X85027255Y-56798390D01*
X85027255Y-56798390D02*
X84932017Y-56846009D01*
X84932017Y-56846009D02*
X84598684Y-56846009D01*
X85598684Y-57369819D02*
X85598684Y-56703152D01*
X85598684Y-56893628D02*
X85646303Y-56798390D01*
X85646303Y-56798390D02*
X85693922Y-56750771D01*
X85693922Y-56750771D02*
X85789160Y-56703152D01*
X85789160Y-56703152D02*
X85884398Y-56703152D01*
X86360589Y-57369819D02*
X86265351Y-57322200D01*
X86265351Y-57322200D02*
X86217732Y-57274580D01*
X86217732Y-57274580D02*
X86170113Y-57179342D01*
X86170113Y-57179342D02*
X86170113Y-56893628D01*
X86170113Y-56893628D02*
X86217732Y-56798390D01*
X86217732Y-56798390D02*
X86265351Y-56750771D01*
X86265351Y-56750771D02*
X86360589Y-56703152D01*
X86360589Y-56703152D02*
X86503446Y-56703152D01*
X86503446Y-56703152D02*
X86598684Y-56750771D01*
X86598684Y-56750771D02*
X86646303Y-56798390D01*
X86646303Y-56798390D02*
X86693922Y-56893628D01*
X86693922Y-56893628D02*
X86693922Y-57179342D01*
X86693922Y-57179342D02*
X86646303Y-57274580D01*
X86646303Y-57274580D02*
X86598684Y-57322200D01*
X86598684Y-57322200D02*
X86503446Y-57369819D01*
X86503446Y-57369819D02*
X86360589Y-57369819D01*
X87551065Y-56703152D02*
X87551065Y-57369819D01*
X87122494Y-56703152D02*
X87122494Y-57226961D01*
X87122494Y-57226961D02*
X87170113Y-57322200D01*
X87170113Y-57322200D02*
X87265351Y-57369819D01*
X87265351Y-57369819D02*
X87408208Y-57369819D01*
X87408208Y-57369819D02*
X87503446Y-57322200D01*
X87503446Y-57322200D02*
X87551065Y-57274580D01*
X87932018Y-56703152D02*
X88122494Y-57369819D01*
X88122494Y-57369819D02*
X88312970Y-56893628D01*
X88312970Y-56893628D02*
X88503446Y-57369819D01*
X88503446Y-57369819D02*
X88693922Y-56703152D01*
X89455827Y-57322200D02*
X89360589Y-57369819D01*
X89360589Y-57369819D02*
X89170113Y-57369819D01*
X89170113Y-57369819D02*
X89074875Y-57322200D01*
X89074875Y-57322200D02*
X89027256Y-57226961D01*
X89027256Y-57226961D02*
X89027256Y-56846009D01*
X89027256Y-56846009D02*
X89074875Y-56750771D01*
X89074875Y-56750771D02*
X89170113Y-56703152D01*
X89170113Y-56703152D02*
X89360589Y-56703152D01*
X89360589Y-56703152D02*
X89455827Y-56750771D01*
X89455827Y-56750771D02*
X89503446Y-56846009D01*
X89503446Y-56846009D02*
X89503446Y-56941247D01*
X89503446Y-56941247D02*
X89027256Y-57036485D01*
X89932018Y-57369819D02*
X89932018Y-56703152D01*
X89932018Y-56893628D02*
X89979637Y-56798390D01*
X89979637Y-56798390D02*
X90027256Y-56750771D01*
X90027256Y-56750771D02*
X90122494Y-56703152D01*
X90122494Y-56703152D02*
X90217732Y-56703152D01*
X90503447Y-57322200D02*
X90598685Y-57369819D01*
X90598685Y-57369819D02*
X90789161Y-57369819D01*
X90789161Y-57369819D02*
X90884399Y-57322200D01*
X90884399Y-57322200D02*
X90932018Y-57226961D01*
X90932018Y-57226961D02*
X90932018Y-57179342D01*
X90932018Y-57179342D02*
X90884399Y-57084104D01*
X90884399Y-57084104D02*
X90789161Y-57036485D01*
X90789161Y-57036485D02*
X90646304Y-57036485D01*
X90646304Y-57036485D02*
X90551066Y-56988866D01*
X90551066Y-56988866D02*
X90503447Y-56893628D01*
X90503447Y-56893628D02*
X90503447Y-56846009D01*
X90503447Y-56846009D02*
X90551066Y-56750771D01*
X90551066Y-56750771D02*
X90646304Y-56703152D01*
X90646304Y-56703152D02*
X90789161Y-56703152D01*
X90789161Y-56703152D02*
X90884399Y-56750771D01*
X81408207Y-85369819D02*
X81074874Y-84893628D01*
X80836779Y-85369819D02*
X80836779Y-84369819D01*
X80836779Y-84369819D02*
X81217731Y-84369819D01*
X81217731Y-84369819D02*
X81312969Y-84417438D01*
X81312969Y-84417438D02*
X81360588Y-84465057D01*
X81360588Y-84465057D02*
X81408207Y-84560295D01*
X81408207Y-84560295D02*
X81408207Y-84703152D01*
X81408207Y-84703152D02*
X81360588Y-84798390D01*
X81360588Y-84798390D02*
X81312969Y-84846009D01*
X81312969Y-84846009D02*
X81217731Y-84893628D01*
X81217731Y-84893628D02*
X80836779Y-84893628D01*
X81836779Y-85369819D02*
X81836779Y-84369819D01*
X81836779Y-84369819D02*
X82217731Y-84369819D01*
X82217731Y-84369819D02*
X82312969Y-84417438D01*
X82312969Y-84417438D02*
X82360588Y-84465057D01*
X82360588Y-84465057D02*
X82408207Y-84560295D01*
X82408207Y-84560295D02*
X82408207Y-84703152D01*
X82408207Y-84703152D02*
X82360588Y-84798390D01*
X82360588Y-84798390D02*
X82312969Y-84846009D01*
X82312969Y-84846009D02*
X82217731Y-84893628D01*
X82217731Y-84893628D02*
X81836779Y-84893628D01*
X82836779Y-85369819D02*
X82836779Y-84369819D01*
X82836779Y-84369819D02*
X83170112Y-85084104D01*
X83170112Y-85084104D02*
X83503445Y-84369819D01*
X83503445Y-84369819D02*
X83503445Y-85369819D01*
X96408207Y-60774580D02*
X96360588Y-60822200D01*
X96360588Y-60822200D02*
X96217731Y-60869819D01*
X96217731Y-60869819D02*
X96122493Y-60869819D01*
X96122493Y-60869819D02*
X95979636Y-60822200D01*
X95979636Y-60822200D02*
X95884398Y-60726961D01*
X95884398Y-60726961D02*
X95836779Y-60631723D01*
X95836779Y-60631723D02*
X95789160Y-60441247D01*
X95789160Y-60441247D02*
X95789160Y-60298390D01*
X95789160Y-60298390D02*
X95836779Y-60107914D01*
X95836779Y-60107914D02*
X95884398Y-60012676D01*
X95884398Y-60012676D02*
X95979636Y-59917438D01*
X95979636Y-59917438D02*
X96122493Y-59869819D01*
X96122493Y-59869819D02*
X96217731Y-59869819D01*
X96217731Y-59869819D02*
X96360588Y-59917438D01*
X96360588Y-59917438D02*
X96408207Y-59965057D01*
X97265350Y-60203152D02*
X97265350Y-60869819D01*
X96836779Y-60203152D02*
X96836779Y-60726961D01*
X96836779Y-60726961D02*
X96884398Y-60822200D01*
X96884398Y-60822200D02*
X96979636Y-60869819D01*
X96979636Y-60869819D02*
X97122493Y-60869819D01*
X97122493Y-60869819D02*
X97217731Y-60822200D01*
X97217731Y-60822200D02*
X97265350Y-60774580D01*
X97741541Y-60869819D02*
X97741541Y-60203152D01*
X97741541Y-60393628D02*
X97789160Y-60298390D01*
X97789160Y-60298390D02*
X97836779Y-60250771D01*
X97836779Y-60250771D02*
X97932017Y-60203152D01*
X97932017Y-60203152D02*
X98027255Y-60203152D01*
X98360589Y-60869819D02*
X98360589Y-60203152D01*
X98360589Y-60393628D02*
X98408208Y-60298390D01*
X98408208Y-60298390D02*
X98455827Y-60250771D01*
X98455827Y-60250771D02*
X98551065Y-60203152D01*
X98551065Y-60203152D02*
X98646303Y-60203152D01*
X99360589Y-60822200D02*
X99265351Y-60869819D01*
X99265351Y-60869819D02*
X99074875Y-60869819D01*
X99074875Y-60869819D02*
X98979637Y-60822200D01*
X98979637Y-60822200D02*
X98932018Y-60726961D01*
X98932018Y-60726961D02*
X98932018Y-60346009D01*
X98932018Y-60346009D02*
X98979637Y-60250771D01*
X98979637Y-60250771D02*
X99074875Y-60203152D01*
X99074875Y-60203152D02*
X99265351Y-60203152D01*
X99265351Y-60203152D02*
X99360589Y-60250771D01*
X99360589Y-60250771D02*
X99408208Y-60346009D01*
X99408208Y-60346009D02*
X99408208Y-60441247D01*
X99408208Y-60441247D02*
X98932018Y-60536485D01*
X99836780Y-60203152D02*
X99836780Y-60869819D01*
X99836780Y-60298390D02*
X99884399Y-60250771D01*
X99884399Y-60250771D02*
X99979637Y-60203152D01*
X99979637Y-60203152D02*
X100122494Y-60203152D01*
X100122494Y-60203152D02*
X100217732Y-60250771D01*
X100217732Y-60250771D02*
X100265351Y-60346009D01*
X100265351Y-60346009D02*
X100265351Y-60869819D01*
X100598685Y-60203152D02*
X100979637Y-60203152D01*
X100741542Y-59869819D02*
X100741542Y-60726961D01*
X100741542Y-60726961D02*
X100789161Y-60822200D01*
X100789161Y-60822200D02*
X100884399Y-60869819D01*
X100884399Y-60869819D02*
X100979637Y-60869819D01*
X102027257Y-60822200D02*
X102170114Y-60869819D01*
X102170114Y-60869819D02*
X102408209Y-60869819D01*
X102408209Y-60869819D02*
X102503447Y-60822200D01*
X102503447Y-60822200D02*
X102551066Y-60774580D01*
X102551066Y-60774580D02*
X102598685Y-60679342D01*
X102598685Y-60679342D02*
X102598685Y-60584104D01*
X102598685Y-60584104D02*
X102551066Y-60488866D01*
X102551066Y-60488866D02*
X102503447Y-60441247D01*
X102503447Y-60441247D02*
X102408209Y-60393628D01*
X102408209Y-60393628D02*
X102217733Y-60346009D01*
X102217733Y-60346009D02*
X102122495Y-60298390D01*
X102122495Y-60298390D02*
X102074876Y-60250771D01*
X102074876Y-60250771D02*
X102027257Y-60155533D01*
X102027257Y-60155533D02*
X102027257Y-60060295D01*
X102027257Y-60060295D02*
X102074876Y-59965057D01*
X102074876Y-59965057D02*
X102122495Y-59917438D01*
X102122495Y-59917438D02*
X102217733Y-59869819D01*
X102217733Y-59869819D02*
X102455828Y-59869819D01*
X102455828Y-59869819D02*
X102598685Y-59917438D01*
X103408209Y-60822200D02*
X103312971Y-60869819D01*
X103312971Y-60869819D02*
X103122495Y-60869819D01*
X103122495Y-60869819D02*
X103027257Y-60822200D01*
X103027257Y-60822200D02*
X102979638Y-60726961D01*
X102979638Y-60726961D02*
X102979638Y-60346009D01*
X102979638Y-60346009D02*
X103027257Y-60250771D01*
X103027257Y-60250771D02*
X103122495Y-60203152D01*
X103122495Y-60203152D02*
X103312971Y-60203152D01*
X103312971Y-60203152D02*
X103408209Y-60250771D01*
X103408209Y-60250771D02*
X103455828Y-60346009D01*
X103455828Y-60346009D02*
X103455828Y-60441247D01*
X103455828Y-60441247D02*
X102979638Y-60536485D01*
X103884400Y-60203152D02*
X103884400Y-60869819D01*
X103884400Y-60298390D02*
X103932019Y-60250771D01*
X103932019Y-60250771D02*
X104027257Y-60203152D01*
X104027257Y-60203152D02*
X104170114Y-60203152D01*
X104170114Y-60203152D02*
X104265352Y-60250771D01*
X104265352Y-60250771D02*
X104312971Y-60346009D01*
X104312971Y-60346009D02*
X104312971Y-60869819D01*
X104741543Y-60822200D02*
X104836781Y-60869819D01*
X104836781Y-60869819D02*
X105027257Y-60869819D01*
X105027257Y-60869819D02*
X105122495Y-60822200D01*
X105122495Y-60822200D02*
X105170114Y-60726961D01*
X105170114Y-60726961D02*
X105170114Y-60679342D01*
X105170114Y-60679342D02*
X105122495Y-60584104D01*
X105122495Y-60584104D02*
X105027257Y-60536485D01*
X105027257Y-60536485D02*
X104884400Y-60536485D01*
X104884400Y-60536485D02*
X104789162Y-60488866D01*
X104789162Y-60488866D02*
X104741543Y-60393628D01*
X104741543Y-60393628D02*
X104741543Y-60346009D01*
X104741543Y-60346009D02*
X104789162Y-60250771D01*
X104789162Y-60250771D02*
X104884400Y-60203152D01*
X104884400Y-60203152D02*
X105027257Y-60203152D01*
X105027257Y-60203152D02*
X105122495Y-60250771D01*
X100693922Y-84369819D02*
X101265350Y-84369819D01*
X100979636Y-85369819D02*
X100979636Y-84369819D01*
X101598684Y-85369819D02*
X101598684Y-84369819D01*
X102027255Y-85369819D02*
X102027255Y-84846009D01*
X102027255Y-84846009D02*
X101979636Y-84750771D01*
X101979636Y-84750771D02*
X101884398Y-84703152D01*
X101884398Y-84703152D02*
X101741541Y-84703152D01*
X101741541Y-84703152D02*
X101646303Y-84750771D01*
X101646303Y-84750771D02*
X101598684Y-84798390D01*
X102503446Y-85369819D02*
X102503446Y-84703152D01*
X102503446Y-84893628D02*
X102551065Y-84798390D01*
X102551065Y-84798390D02*
X102598684Y-84750771D01*
X102598684Y-84750771D02*
X102693922Y-84703152D01*
X102693922Y-84703152D02*
X102789160Y-84703152D01*
X103265351Y-85369819D02*
X103170113Y-85322200D01*
X103170113Y-85322200D02*
X103122494Y-85274580D01*
X103122494Y-85274580D02*
X103074875Y-85179342D01*
X103074875Y-85179342D02*
X103074875Y-84893628D01*
X103074875Y-84893628D02*
X103122494Y-84798390D01*
X103122494Y-84798390D02*
X103170113Y-84750771D01*
X103170113Y-84750771D02*
X103265351Y-84703152D01*
X103265351Y-84703152D02*
X103408208Y-84703152D01*
X103408208Y-84703152D02*
X103503446Y-84750771D01*
X103503446Y-84750771D02*
X103551065Y-84798390D01*
X103551065Y-84798390D02*
X103598684Y-84893628D01*
X103598684Y-84893628D02*
X103598684Y-85179342D01*
X103598684Y-85179342D02*
X103551065Y-85274580D01*
X103551065Y-85274580D02*
X103503446Y-85322200D01*
X103503446Y-85322200D02*
X103408208Y-85369819D01*
X103408208Y-85369819D02*
X103265351Y-85369819D01*
X103884399Y-84703152D02*
X104265351Y-84703152D01*
X104027256Y-84369819D02*
X104027256Y-85226961D01*
X104027256Y-85226961D02*
X104074875Y-85322200D01*
X104074875Y-85322200D02*
X104170113Y-85369819D01*
X104170113Y-85369819D02*
X104265351Y-85369819D01*
X104455828Y-84703152D02*
X104836780Y-84703152D01*
X104598685Y-84369819D02*
X104598685Y-85226961D01*
X104598685Y-85226961D02*
X104646304Y-85322200D01*
X104646304Y-85322200D02*
X104741542Y-85369819D01*
X104741542Y-85369819D02*
X104836780Y-85369819D01*
X105312971Y-85369819D02*
X105217733Y-85322200D01*
X105217733Y-85322200D02*
X105170114Y-85226961D01*
X105170114Y-85226961D02*
X105170114Y-84369819D01*
X106074876Y-85322200D02*
X105979638Y-85369819D01*
X105979638Y-85369819D02*
X105789162Y-85369819D01*
X105789162Y-85369819D02*
X105693924Y-85322200D01*
X105693924Y-85322200D02*
X105646305Y-85226961D01*
X105646305Y-85226961D02*
X105646305Y-84846009D01*
X105646305Y-84846009D02*
X105693924Y-84750771D01*
X105693924Y-84750771D02*
X105789162Y-84703152D01*
X105789162Y-84703152D02*
X105979638Y-84703152D01*
X105979638Y-84703152D02*
X106074876Y-84750771D01*
X106074876Y-84750771D02*
X106122495Y-84846009D01*
X106122495Y-84846009D02*
X106122495Y-84941247D01*
X106122495Y-84941247D02*
X105646305Y-85036485D01*
X107094295Y-57910839D02*
X106294295Y-57910839D01*
X106294295Y-57910839D02*
X106865723Y-57644173D01*
X106865723Y-57644173D02*
X106294295Y-57377506D01*
X106294295Y-57377506D02*
X107094295Y-57377506D01*
X106294295Y-56501315D02*
X106294295Y-56044172D01*
X107094295Y-56272744D02*
X106294295Y-56272744D01*
X107056200Y-55472743D02*
X107094295Y-55548934D01*
X107094295Y-55548934D02*
X107094295Y-55701315D01*
X107094295Y-55701315D02*
X107056200Y-55777505D01*
X107056200Y-55777505D02*
X106980009Y-55815601D01*
X106980009Y-55815601D02*
X106675247Y-55815601D01*
X106675247Y-55815601D02*
X106599057Y-55777505D01*
X106599057Y-55777505D02*
X106560961Y-55701315D01*
X106560961Y-55701315D02*
X106560961Y-55548934D01*
X106560961Y-55548934D02*
X106599057Y-55472743D01*
X106599057Y-55472743D02*
X106675247Y-55434648D01*
X106675247Y-55434648D02*
X106751438Y-55434648D01*
X106751438Y-55434648D02*
X106827628Y-55815601D01*
X107094295Y-55091791D02*
X106560961Y-55091791D01*
X106637152Y-55091791D02*
X106599057Y-55053696D01*
X106599057Y-55053696D02*
X106560961Y-54977506D01*
X106560961Y-54977506D02*
X106560961Y-54863220D01*
X106560961Y-54863220D02*
X106599057Y-54787029D01*
X106599057Y-54787029D02*
X106675247Y-54748934D01*
X106675247Y-54748934D02*
X107094295Y-54748934D01*
X106675247Y-54748934D02*
X106599057Y-54710839D01*
X106599057Y-54710839D02*
X106560961Y-54634648D01*
X106560961Y-54634648D02*
X106560961Y-54520363D01*
X106560961Y-54520363D02*
X106599057Y-54444172D01*
X106599057Y-54444172D02*
X106675247Y-54406077D01*
X106675247Y-54406077D02*
X107094295Y-54406077D01*
X106560961Y-54025124D02*
X107360961Y-54025124D01*
X106599057Y-54025124D02*
X106560961Y-53948934D01*
X106560961Y-53948934D02*
X106560961Y-53796553D01*
X106560961Y-53796553D02*
X106599057Y-53720362D01*
X106599057Y-53720362D02*
X106637152Y-53682267D01*
X106637152Y-53682267D02*
X106713342Y-53644172D01*
X106713342Y-53644172D02*
X106941914Y-53644172D01*
X106941914Y-53644172D02*
X107018104Y-53682267D01*
X107018104Y-53682267D02*
X107056200Y-53720362D01*
X107056200Y-53720362D02*
X107094295Y-53796553D01*
X107094295Y-53796553D02*
X107094295Y-53948934D01*
X107094295Y-53948934D02*
X107056200Y-54025124D01*
X47533333Y-72831009D02*
X47866666Y-72831009D01*
X48009523Y-73354819D02*
X47533333Y-73354819D01*
X47533333Y-73354819D02*
X47533333Y-72354819D01*
X47533333Y-72354819D02*
X48009523Y-72354819D01*
X48390476Y-73307200D02*
X48533333Y-73354819D01*
X48533333Y-73354819D02*
X48771428Y-73354819D01*
X48771428Y-73354819D02*
X48866666Y-73307200D01*
X48866666Y-73307200D02*
X48914285Y-73259580D01*
X48914285Y-73259580D02*
X48961904Y-73164342D01*
X48961904Y-73164342D02*
X48961904Y-73069104D01*
X48961904Y-73069104D02*
X48914285Y-72973866D01*
X48914285Y-72973866D02*
X48866666Y-72926247D01*
X48866666Y-72926247D02*
X48771428Y-72878628D01*
X48771428Y-72878628D02*
X48580952Y-72831009D01*
X48580952Y-72831009D02*
X48485714Y-72783390D01*
X48485714Y-72783390D02*
X48438095Y-72735771D01*
X48438095Y-72735771D02*
X48390476Y-72640533D01*
X48390476Y-72640533D02*
X48390476Y-72545295D01*
X48390476Y-72545295D02*
X48438095Y-72450057D01*
X48438095Y-72450057D02*
X48485714Y-72402438D01*
X48485714Y-72402438D02*
X48580952Y-72354819D01*
X48580952Y-72354819D02*
X48819047Y-72354819D01*
X48819047Y-72354819D02*
X48961904Y-72402438D01*
X49390476Y-73354819D02*
X49390476Y-72354819D01*
X49390476Y-72354819D02*
X49771428Y-72354819D01*
X49771428Y-72354819D02*
X49866666Y-72402438D01*
X49866666Y-72402438D02*
X49914285Y-72450057D01*
X49914285Y-72450057D02*
X49961904Y-72545295D01*
X49961904Y-72545295D02*
X49961904Y-72688152D01*
X49961904Y-72688152D02*
X49914285Y-72783390D01*
X49914285Y-72783390D02*
X49866666Y-72831009D01*
X49866666Y-72831009D02*
X49771428Y-72878628D01*
X49771428Y-72878628D02*
X49390476Y-72878628D01*
X50914285Y-73354819D02*
X50342857Y-73354819D01*
X50628571Y-73354819D02*
X50628571Y-72354819D01*
X50628571Y-72354819D02*
X50533333Y-72497676D01*
X50533333Y-72497676D02*
X50438095Y-72592914D01*
X50438095Y-72592914D02*
X50342857Y-72640533D01*
D11*
X68678572Y-43249757D02*
X68535715Y-43178328D01*
X68535715Y-43178328D02*
X68321429Y-43178328D01*
X68321429Y-43178328D02*
X68107143Y-43249757D01*
X68107143Y-43249757D02*
X67964286Y-43392614D01*
X67964286Y-43392614D02*
X67892857Y-43535471D01*
X67892857Y-43535471D02*
X67821429Y-43821185D01*
X67821429Y-43821185D02*
X67821429Y-44035471D01*
X67821429Y-44035471D02*
X67892857Y-44321185D01*
X67892857Y-44321185D02*
X67964286Y-44464042D01*
X67964286Y-44464042D02*
X68107143Y-44606900D01*
X68107143Y-44606900D02*
X68321429Y-44678328D01*
X68321429Y-44678328D02*
X68464286Y-44678328D01*
X68464286Y-44678328D02*
X68678572Y-44606900D01*
X68678572Y-44606900D02*
X68750000Y-44535471D01*
X68750000Y-44535471D02*
X68750000Y-44035471D01*
X68750000Y-44035471D02*
X68464286Y-44035471D01*
X69607143Y-43178328D02*
X69607143Y-43535471D01*
X69250000Y-43392614D02*
X69607143Y-43535471D01*
X69607143Y-43535471D02*
X69964286Y-43392614D01*
X69392857Y-43821185D02*
X69607143Y-43535471D01*
X69607143Y-43535471D02*
X69821429Y-43821185D01*
X70750000Y-43178328D02*
X70750000Y-43535471D01*
X70392857Y-43392614D02*
X70750000Y-43535471D01*
X70750000Y-43535471D02*
X71107143Y-43392614D01*
X70535714Y-43821185D02*
X70750000Y-43535471D01*
X70750000Y-43535471D02*
X70964286Y-43821185D01*
X71892857Y-43178328D02*
X71892857Y-43535471D01*
X71535714Y-43392614D02*
X71892857Y-43535471D01*
X71892857Y-43535471D02*
X72250000Y-43392614D01*
X71678571Y-43821185D02*
X71892857Y-43535471D01*
X71892857Y-43535471D02*
X72107143Y-43821185D01*
D12*
%TO.C,J2*%
X75850000Y-37750000D02*
X75850000Y-36500000D01*
X75560000Y-37460000D02*
X75560000Y-31490000D01*
X75560000Y-31490000D02*
X67940000Y-31490000D01*
X75550000Y-37450000D02*
X75550000Y-36700000D01*
X75550000Y-36700000D02*
X73750000Y-36700000D01*
X75550000Y-35200000D02*
X74800000Y-35200000D01*
X74800000Y-35200000D02*
X74800000Y-32250000D01*
X74800000Y-32250000D02*
X71750000Y-32250000D01*
X74600000Y-37750000D02*
X75850000Y-37750000D01*
X73750000Y-37450000D02*
X75550000Y-37450000D01*
X73750000Y-36700000D02*
X73750000Y-37450000D01*
X72250000Y-37450000D02*
X72250000Y-36700000D01*
X72250000Y-36700000D02*
X71250000Y-36700000D01*
X71250000Y-37450000D02*
X72250000Y-37450000D01*
X71250000Y-36700000D02*
X71250000Y-37450000D01*
X69750000Y-37450000D02*
X69750000Y-36700000D01*
X69750000Y-36700000D02*
X67950000Y-36700000D01*
X68700000Y-35200000D02*
X68700000Y-32250000D01*
X68700000Y-32250000D02*
X71750000Y-32250000D01*
X67950000Y-37450000D02*
X69750000Y-37450000D01*
X67950000Y-36700000D02*
X67950000Y-37450000D01*
X67950000Y-35200000D02*
X68700000Y-35200000D01*
X67940000Y-37460000D02*
X75560000Y-37460000D01*
X67940000Y-31490000D02*
X67940000Y-37460000D01*
%TO.C,U2*%
X89200000Y-67960000D02*
X92650000Y-67960000D01*
X89200000Y-67960000D02*
X87250000Y-67960000D01*
X89200000Y-62840000D02*
X91150000Y-62840000D01*
X89200000Y-62840000D02*
X87250000Y-62840000D01*
%TO.C,J10*%
X107250000Y-73150000D02*
X106000000Y-73150000D01*
X106960000Y-73440000D02*
X100990000Y-73440000D01*
X100990000Y-73440000D02*
X100990000Y-83560000D01*
X106950000Y-73450000D02*
X106200000Y-73450000D01*
X106200000Y-73450000D02*
X106200000Y-75250000D01*
X104700000Y-73450000D02*
X104700000Y-74200000D01*
X104700000Y-74200000D02*
X101750000Y-74200000D01*
X101750000Y-74200000D02*
X101750000Y-78500000D01*
X107250000Y-74400000D02*
X107250000Y-73150000D01*
X106950000Y-75250000D02*
X106950000Y-73450000D01*
X106200000Y-75250000D02*
X106950000Y-75250000D01*
X106950000Y-76750000D02*
X106200000Y-76750000D01*
X106200000Y-76750000D02*
X106200000Y-80250000D01*
X106950000Y-80250000D02*
X106950000Y-76750000D01*
X106200000Y-80250000D02*
X106950000Y-80250000D01*
X106950000Y-81750000D02*
X106200000Y-81750000D01*
X106200000Y-81750000D02*
X106200000Y-83550000D01*
X104700000Y-82800000D02*
X101750000Y-82800000D01*
X101750000Y-82800000D02*
X101750000Y-78500000D01*
X106950000Y-83550000D02*
X106950000Y-81750000D01*
X106200000Y-83550000D02*
X106950000Y-83550000D01*
X104700000Y-83550000D02*
X104700000Y-82800000D01*
X106960000Y-83560000D02*
X106960000Y-73440000D01*
X100990000Y-83560000D02*
X106960000Y-83560000D01*
%TO.C,R18*%
X70735000Y-54772936D02*
X70735000Y-55227064D01*
X69265000Y-54772936D02*
X69265000Y-55227064D01*
%TO.C,J5*%
X105850000Y-44525000D02*
X105850000Y-43275000D01*
X105560000Y-44235000D02*
X105560000Y-38265000D01*
X105560000Y-38265000D02*
X97940000Y-38265000D01*
X105550000Y-44225000D02*
X105550000Y-43475000D01*
X105550000Y-43475000D02*
X103750000Y-43475000D01*
X105550000Y-41975000D02*
X104800000Y-41975000D01*
X104800000Y-41975000D02*
X104800000Y-39025000D01*
X104800000Y-39025000D02*
X101750000Y-39025000D01*
X104600000Y-44525000D02*
X105850000Y-44525000D01*
X103750000Y-44225000D02*
X105550000Y-44225000D01*
X103750000Y-43475000D02*
X103750000Y-44225000D01*
X102250000Y-44225000D02*
X102250000Y-43475000D01*
X102250000Y-43475000D02*
X101250000Y-43475000D01*
X101250000Y-44225000D02*
X102250000Y-44225000D01*
X101250000Y-43475000D02*
X101250000Y-44225000D01*
X99750000Y-44225000D02*
X99750000Y-43475000D01*
X99750000Y-43475000D02*
X97950000Y-43475000D01*
X98700000Y-41975000D02*
X98700000Y-39025000D01*
X98700000Y-39025000D02*
X101750000Y-39025000D01*
X97950000Y-44225000D02*
X99750000Y-44225000D01*
X97950000Y-43475000D02*
X97950000Y-44225000D01*
X97950000Y-41975000D02*
X98700000Y-41975000D01*
X97940000Y-44235000D02*
X105560000Y-44235000D01*
X97940000Y-38265000D02*
X97940000Y-44235000D01*
D13*
%TO.C,ESP1*%
X63480000Y-82875000D02*
X52411000Y-82875000D01*
X63480000Y-82875000D02*
X34970000Y-82875000D01*
X63480000Y-31925000D02*
X63480000Y-82875000D01*
X63480000Y-31925000D02*
X63480000Y-82875000D01*
X63480000Y-31925000D02*
X58110000Y-31925000D01*
X58110000Y-31925000D02*
X40420000Y-31925000D01*
X52411000Y-82875000D02*
X45700000Y-82875000D01*
X45700000Y-82875000D02*
X34970000Y-82875000D01*
X40420000Y-31925000D02*
X34970000Y-31925000D01*
X34970000Y-82875000D02*
X34970000Y-31925000D01*
X34970000Y-82875000D02*
X34970000Y-31925000D01*
X34970000Y-31925000D02*
X63480000Y-31925000D01*
D14*
X64150000Y-72915000D02*
G75*
G03*
X64150000Y-72915000I-100000J0D01*
G01*
D12*
%TO.C,C2*%
X88761252Y-54235000D02*
X88238748Y-54235000D01*
X88761252Y-52765000D02*
X88238748Y-52765000D01*
D10*
%TO.C,U5*%
X74575000Y-64125000D02*
X74750000Y-64125000D01*
X74575000Y-64125000D02*
X74575000Y-60875000D01*
X74750000Y-64125000D02*
X74750000Y-65200000D01*
X77825000Y-64125000D02*
X77550000Y-64125000D01*
X77825000Y-64125000D02*
X77825000Y-60875000D01*
X74575000Y-60875000D02*
X74850000Y-60875000D01*
X77825000Y-60875000D02*
X77550000Y-60875000D01*
D12*
%TO.C,C4*%
X71765000Y-51261252D02*
X71765000Y-50738748D01*
X73235000Y-51261252D02*
X73235000Y-50738748D01*
%TO.C,R8*%
X96472936Y-65165000D02*
X96927064Y-65165000D01*
X96472936Y-66635000D02*
X96927064Y-66635000D01*
%TO.C,J4*%
X105850000Y-37750000D02*
X105850000Y-36500000D01*
X105560000Y-37460000D02*
X105560000Y-31490000D01*
X105560000Y-31490000D02*
X97940000Y-31490000D01*
X105550000Y-37450000D02*
X105550000Y-36700000D01*
X105550000Y-36700000D02*
X103750000Y-36700000D01*
X105550000Y-35200000D02*
X104800000Y-35200000D01*
X104800000Y-35200000D02*
X104800000Y-32250000D01*
X104800000Y-32250000D02*
X101750000Y-32250000D01*
X104600000Y-37750000D02*
X105850000Y-37750000D01*
X103750000Y-37450000D02*
X105550000Y-37450000D01*
X103750000Y-36700000D02*
X103750000Y-37450000D01*
X102250000Y-37450000D02*
X102250000Y-36700000D01*
X102250000Y-36700000D02*
X101250000Y-36700000D01*
X101250000Y-37450000D02*
X102250000Y-37450000D01*
X101250000Y-36700000D02*
X101250000Y-37450000D01*
X99750000Y-37450000D02*
X99750000Y-36700000D01*
X99750000Y-36700000D02*
X97950000Y-36700000D01*
X98700000Y-35200000D02*
X98700000Y-32250000D01*
X98700000Y-32250000D02*
X101750000Y-32250000D01*
X97950000Y-37450000D02*
X99750000Y-37450000D01*
X97950000Y-36700000D02*
X97950000Y-37450000D01*
X97950000Y-35200000D02*
X98700000Y-35200000D01*
X97940000Y-37460000D02*
X105560000Y-37460000D01*
X97940000Y-31490000D02*
X97940000Y-37460000D01*
%TO.C,R11*%
X88972936Y-72665000D02*
X89427064Y-72665000D01*
X88972936Y-74135000D02*
X89427064Y-74135000D01*
%TO.C,R3*%
X88272936Y-47765000D02*
X88727064Y-47765000D01*
X88272936Y-49235000D02*
X88727064Y-49235000D01*
%TO.C,R1*%
X83639564Y-49235000D02*
X83185436Y-49235000D01*
X83639564Y-47765000D02*
X83185436Y-47765000D01*
%TO.C,C5*%
X73235000Y-62238748D02*
X73235000Y-62761252D01*
X71765000Y-62238748D02*
X71765000Y-62761252D01*
%TO.C,J7*%
X105850000Y-51325000D02*
X105850000Y-50075000D01*
X105560000Y-51035000D02*
X105560000Y-45065000D01*
X105560000Y-45065000D02*
X97940000Y-45065000D01*
X105550000Y-51025000D02*
X105550000Y-50275000D01*
X105550000Y-50275000D02*
X103750000Y-50275000D01*
X105550000Y-48775000D02*
X104800000Y-48775000D01*
X104800000Y-48775000D02*
X104800000Y-45825000D01*
X104800000Y-45825000D02*
X101750000Y-45825000D01*
X104600000Y-51325000D02*
X105850000Y-51325000D01*
X103750000Y-51025000D02*
X105550000Y-51025000D01*
X103750000Y-50275000D02*
X103750000Y-51025000D01*
X102250000Y-51025000D02*
X102250000Y-50275000D01*
X102250000Y-50275000D02*
X101250000Y-50275000D01*
X101250000Y-51025000D02*
X102250000Y-51025000D01*
X101250000Y-50275000D02*
X101250000Y-51025000D01*
X99750000Y-51025000D02*
X99750000Y-50275000D01*
X99750000Y-50275000D02*
X97950000Y-50275000D01*
X98700000Y-48775000D02*
X98700000Y-45825000D01*
X98700000Y-45825000D02*
X101750000Y-45825000D01*
X97950000Y-51025000D02*
X99750000Y-51025000D01*
X97950000Y-50275000D02*
X97950000Y-51025000D01*
X97950000Y-48775000D02*
X98700000Y-48775000D01*
X97940000Y-51035000D02*
X105560000Y-51035000D01*
X97940000Y-45065000D02*
X97940000Y-51035000D01*
%TO.C,U1*%
X78250000Y-70500000D02*
X78250000Y-68050000D01*
X78250000Y-68050000D02*
X75920000Y-68050000D01*
X77920000Y-76230000D02*
X65980000Y-76230000D01*
X77920000Y-68380000D02*
X77920000Y-76230000D01*
X65980000Y-76230000D02*
X65980000Y-68380000D01*
X65980000Y-68380000D02*
X77920000Y-68380000D01*
D10*
%TO.C,U4*%
X77825000Y-49375000D02*
X77650000Y-49375000D01*
X77825000Y-49375000D02*
X77825000Y-52625000D01*
X77650000Y-49375000D02*
X77650000Y-48300000D01*
X74575000Y-49375000D02*
X74850000Y-49375000D01*
X74575000Y-49375000D02*
X74575000Y-52625000D01*
X77825000Y-52625000D02*
X77550000Y-52625000D01*
X74575000Y-52625000D02*
X74850000Y-52625000D01*
D12*
%TO.C,R9*%
X96472936Y-67665000D02*
X96927064Y-67665000D01*
X96472936Y-69135000D02*
X96927064Y-69135000D01*
%TO.C,R19*%
X73235000Y-54772936D02*
X73235000Y-55227064D01*
X71765000Y-54772936D02*
X71765000Y-55227064D01*
%TO.C,R20*%
X105000000Y-69370000D02*
X105000000Y-68420000D01*
X104080000Y-68420000D02*
X105920000Y-68420000D01*
X105920000Y-68420000D02*
X105920000Y-64580000D01*
X104080000Y-64580000D02*
X104080000Y-68420000D01*
X105920000Y-64580000D02*
X104080000Y-64580000D01*
X105000000Y-63630000D02*
X105000000Y-64580000D01*
%TO.C,R6*%
X93272936Y-55265000D02*
X93727064Y-55265000D01*
X93272936Y-56735000D02*
X93727064Y-56735000D01*
%TO.C,J9*%
X94700000Y-30975000D02*
X93450000Y-30975000D01*
X94410000Y-31265000D02*
X88440000Y-31265000D01*
X88440000Y-31265000D02*
X88440000Y-41385000D01*
X94400000Y-31275000D02*
X93650000Y-31275000D01*
X93650000Y-31275000D02*
X93650000Y-33075000D01*
X92150000Y-31275000D02*
X92150000Y-32025000D01*
X92150000Y-32025000D02*
X89200000Y-32025000D01*
X89200000Y-32025000D02*
X89200000Y-36325000D01*
X94700000Y-32225000D02*
X94700000Y-30975000D01*
X94400000Y-33075000D02*
X94400000Y-31275000D01*
X93650000Y-33075000D02*
X94400000Y-33075000D01*
X94400000Y-34575000D02*
X93650000Y-34575000D01*
X93650000Y-34575000D02*
X93650000Y-38075000D01*
X94400000Y-38075000D02*
X94400000Y-34575000D01*
X93650000Y-38075000D02*
X94400000Y-38075000D01*
X94400000Y-39575000D02*
X93650000Y-39575000D01*
X93650000Y-39575000D02*
X93650000Y-41375000D01*
X92150000Y-40625000D02*
X89200000Y-40625000D01*
X89200000Y-40625000D02*
X89200000Y-36325000D01*
X94400000Y-41375000D02*
X94400000Y-39575000D01*
X93650000Y-41375000D02*
X94400000Y-41375000D01*
X92150000Y-41375000D02*
X92150000Y-40625000D01*
X94410000Y-41385000D02*
X94410000Y-31265000D01*
X88440000Y-41385000D02*
X94410000Y-41385000D01*
%TO.C,R17*%
X70735000Y-62272936D02*
X70735000Y-62727064D01*
X69265000Y-62272936D02*
X69265000Y-62727064D01*
%TO.C,R16*%
X69265000Y-51227064D02*
X69265000Y-50772936D01*
X70735000Y-51227064D02*
X70735000Y-50772936D01*
%TO.C,R21*%
X101500000Y-69370000D02*
X101500000Y-68420000D01*
X100580000Y-68420000D02*
X102420000Y-68420000D01*
X102420000Y-68420000D02*
X102420000Y-64580000D01*
X100580000Y-64580000D02*
X100580000Y-68420000D01*
X102420000Y-64580000D02*
X100580000Y-64580000D01*
X101500000Y-63630000D02*
X101500000Y-64580000D01*
%TO.C,C1*%
X83151248Y-52765000D02*
X83673752Y-52765000D01*
X83151248Y-54235000D02*
X83673752Y-54235000D01*
%TO.C,J6*%
X105850000Y-58125000D02*
X105850000Y-56875000D01*
X105560000Y-57835000D02*
X105560000Y-51865000D01*
X105560000Y-51865000D02*
X97940000Y-51865000D01*
X105550000Y-57825000D02*
X105550000Y-57075000D01*
X105550000Y-57075000D02*
X103750000Y-57075000D01*
X105550000Y-55575000D02*
X104800000Y-55575000D01*
X104800000Y-55575000D02*
X104800000Y-52625000D01*
X104800000Y-52625000D02*
X101750000Y-52625000D01*
X104600000Y-58125000D02*
X105850000Y-58125000D01*
X103750000Y-57825000D02*
X105550000Y-57825000D01*
X103750000Y-57075000D02*
X103750000Y-57825000D01*
X102250000Y-57825000D02*
X102250000Y-57075000D01*
X102250000Y-57075000D02*
X101250000Y-57075000D01*
X101250000Y-57825000D02*
X102250000Y-57825000D01*
X101250000Y-57075000D02*
X101250000Y-57825000D01*
X99750000Y-57825000D02*
X99750000Y-57075000D01*
X99750000Y-57075000D02*
X97950000Y-57075000D01*
X98700000Y-55575000D02*
X98700000Y-52625000D01*
X98700000Y-52625000D02*
X101750000Y-52625000D01*
X97950000Y-57825000D02*
X99750000Y-57825000D01*
X97950000Y-57075000D02*
X97950000Y-57825000D01*
X97950000Y-55575000D02*
X98700000Y-55575000D01*
X97940000Y-57835000D02*
X105560000Y-57835000D01*
X97940000Y-51865000D02*
X97940000Y-57835000D01*
%TO.C,R12*%
X84765000Y-38527064D02*
X84765000Y-38072936D01*
X86235000Y-38527064D02*
X86235000Y-38072936D01*
%TO.C,G\u002A\u002A\u002A*%
G36*
X66095980Y-43184195D02*
G01*
X66058960Y-43227709D01*
X66016147Y-43266708D01*
X66017240Y-43253982D01*
X66042339Y-43211088D01*
X66081900Y-43159831D01*
X66104961Y-43151108D01*
X66095980Y-43184195D01*
G37*
G36*
X71607728Y-44951260D02*
G01*
X71623777Y-44998764D01*
X71631446Y-45093020D01*
X71633106Y-45216143D01*
X71630651Y-45358769D01*
X71621744Y-45444365D01*
X71604071Y-45485269D01*
X71580985Y-45494118D01*
X71554243Y-45481025D01*
X71538194Y-45433521D01*
X71530524Y-45339265D01*
X71528865Y-45216143D01*
X71531320Y-45073516D01*
X71540227Y-44987920D01*
X71557900Y-44947016D01*
X71580985Y-44938167D01*
X71607728Y-44951260D01*
G37*
G36*
X73588302Y-44951260D02*
G01*
X73604351Y-44998764D01*
X73612021Y-45093020D01*
X73613680Y-45216143D01*
X73611225Y-45358769D01*
X73602318Y-45444365D01*
X73584645Y-45485269D01*
X73561560Y-45494118D01*
X73534817Y-45481025D01*
X73518768Y-45433521D01*
X73511099Y-45339265D01*
X73509439Y-45216143D01*
X73511894Y-45073516D01*
X73520801Y-44987920D01*
X73538474Y-44947016D01*
X73561560Y-44938167D01*
X73588302Y-44951260D01*
G37*
G36*
X70801556Y-44039847D02*
G01*
X70821808Y-44064696D01*
X70829920Y-44123617D01*
X70829159Y-44230934D01*
X70826701Y-44301247D01*
X70813493Y-44464428D01*
X70788692Y-44559802D01*
X70751990Y-44588132D01*
X70718827Y-44568257D01*
X70707185Y-44524091D01*
X70698682Y-44429831D01*
X70694981Y-44304864D01*
X70694939Y-44289558D01*
X70696593Y-44158223D01*
X70704266Y-44081760D01*
X70722021Y-44045575D01*
X70753922Y-44035073D01*
X70765894Y-44034747D01*
X70801556Y-44039847D01*
G37*
G36*
X70984338Y-44054509D02*
G01*
X71003478Y-44121130D01*
X71014383Y-44245620D01*
X71014690Y-44251915D01*
X71022150Y-44370680D01*
X71035495Y-44436859D01*
X71062703Y-44467333D01*
X71111753Y-44478978D01*
X71122648Y-44480277D01*
X71194032Y-44500243D01*
X71205442Y-44530061D01*
X71163656Y-44560259D01*
X71075455Y-44581367D01*
X71048394Y-44584009D01*
X70903420Y-44594694D01*
X70903420Y-44314720D01*
X70906011Y-44170517D01*
X70915207Y-44083807D01*
X70933145Y-44042735D01*
X70953883Y-44034747D01*
X70984338Y-44054509D01*
G37*
G36*
X73973487Y-44054996D02*
G01*
X74014550Y-44090770D01*
X74003771Y-44130390D01*
X73954878Y-44154690D01*
X73904006Y-44151996D01*
X73802029Y-44159059D01*
X73751268Y-44192375D01*
X73691992Y-44278743D01*
X73693981Y-44361203D01*
X73749753Y-44425659D01*
X73851832Y-44458012D01*
X73892859Y-44459288D01*
X73968921Y-44473990D01*
X73997430Y-44511682D01*
X73970579Y-44554448D01*
X73940934Y-44569607D01*
X73820290Y-44588298D01*
X73706172Y-44543328D01*
X73661947Y-44509330D01*
X73587109Y-44409057D01*
X73569214Y-44299820D01*
X73599296Y-44194692D01*
X73668392Y-44106748D01*
X73767536Y-44049060D01*
X73887763Y-44034703D01*
X73973487Y-44054996D01*
G37*
G36*
X70325457Y-44950162D02*
G01*
X70380218Y-44978717D01*
X70384013Y-45012690D01*
X70330716Y-45040935D01*
X70286662Y-45048787D01*
X70210332Y-45076121D01*
X70192392Y-45120211D01*
X70232511Y-45160649D01*
X70288722Y-45175216D01*
X70358125Y-45199141D01*
X70368400Y-45235046D01*
X70322408Y-45263496D01*
X70274928Y-45268920D01*
X70206970Y-45287278D01*
X70192028Y-45326808D01*
X70227944Y-45366432D01*
X70286662Y-45383498D01*
X70367544Y-45405558D01*
X70388588Y-45438341D01*
X70355919Y-45470703D01*
X70275663Y-45491501D01*
X70225855Y-45494118D01*
X70069494Y-45494118D01*
X70069494Y-45216143D01*
X70069494Y-44938167D01*
X70225855Y-44938167D01*
X70325457Y-44950162D01*
G37*
G36*
X72042470Y-44043354D02*
G01*
X72082293Y-44071883D01*
X72084816Y-44086868D01*
X72054610Y-44128787D01*
X71997948Y-44138988D01*
X71928083Y-44157111D01*
X71911081Y-44191108D01*
X71941287Y-44233028D01*
X71997948Y-44243229D01*
X72067814Y-44261352D01*
X72084816Y-44295349D01*
X72054610Y-44337268D01*
X71997948Y-44347469D01*
X71929830Y-44363757D01*
X71911081Y-44416963D01*
X71931440Y-44471458D01*
X71997948Y-44486457D01*
X72067814Y-44504581D01*
X72084816Y-44538578D01*
X72061865Y-44574818D01*
X71985786Y-44589752D01*
X71945828Y-44590698D01*
X71806840Y-44590698D01*
X71806840Y-44312723D01*
X71806840Y-44034747D01*
X71945828Y-44034747D01*
X72042470Y-44043354D01*
G37*
G36*
X72946047Y-44961798D02*
G01*
X72953489Y-44988290D01*
X72923542Y-45032253D01*
X72866621Y-45042408D01*
X72798503Y-45058695D01*
X72779754Y-45111902D01*
X72799363Y-45165751D01*
X72868113Y-45181393D01*
X72869517Y-45181396D01*
X72935042Y-45194991D01*
X72944181Y-45224829D01*
X72901754Y-45258588D01*
X72854418Y-45265504D01*
X72792412Y-45284913D01*
X72779754Y-45326311D01*
X72803722Y-45377129D01*
X72866621Y-45389877D01*
X72936487Y-45408001D01*
X72953489Y-45441998D01*
X72933203Y-45476207D01*
X72864106Y-45491896D01*
X72795666Y-45494118D01*
X72637843Y-45494118D01*
X72647991Y-45224829D01*
X72658140Y-44955541D01*
X72805814Y-44944856D01*
X72902276Y-44943719D01*
X72946047Y-44961798D01*
G37*
G36*
X71733184Y-44047820D02*
G01*
X71737346Y-44064213D01*
X71723541Y-44122989D01*
X71688023Y-44218424D01*
X71639639Y-44331147D01*
X71587235Y-44441790D01*
X71539656Y-44530981D01*
X71505750Y-44579352D01*
X71500518Y-44582773D01*
X71461065Y-44563599D01*
X71417512Y-44498343D01*
X71409584Y-44480831D01*
X71365559Y-44376991D01*
X71311533Y-44250597D01*
X71289699Y-44199795D01*
X71249654Y-44103410D01*
X71237263Y-44054489D01*
X71252013Y-44036962D01*
X71284443Y-44034747D01*
X71335064Y-44057980D01*
X71384350Y-44134066D01*
X71419316Y-44217169D01*
X71488358Y-44399590D01*
X71538228Y-44277976D01*
X71577295Y-44180469D01*
X71607072Y-44102379D01*
X71609512Y-44095554D01*
X71645555Y-44052119D01*
X71696492Y-44033827D01*
X71733184Y-44047820D01*
G37*
G36*
X71854838Y-44975767D02*
G01*
X71931086Y-45078833D01*
X71955950Y-45118051D01*
X72067442Y-45297934D01*
X72077945Y-45118051D01*
X72091397Y-45002551D01*
X72116501Y-44946790D01*
X72138752Y-44938167D01*
X72164761Y-44952742D01*
X72180362Y-45004352D01*
X72187695Y-45104824D01*
X72189056Y-45216143D01*
X72183580Y-45375039D01*
X72164849Y-45466948D01*
X72129406Y-45493678D01*
X72073797Y-45457041D01*
X71994566Y-45358848D01*
X71973557Y-45329070D01*
X71858961Y-45164022D01*
X71848370Y-45329070D01*
X71833182Y-45439945D01*
X71804257Y-45489671D01*
X71787563Y-45494118D01*
X71761588Y-45479464D01*
X71746008Y-45427638D01*
X71738693Y-45326840D01*
X71737346Y-45216143D01*
X71743470Y-45055964D01*
X71763468Y-44963238D01*
X71799778Y-44936870D01*
X71854838Y-44975767D01*
G37*
G36*
X72563831Y-44961798D02*
G01*
X72571273Y-44988290D01*
X72541326Y-45032253D01*
X72484405Y-45042408D01*
X72416287Y-45058695D01*
X72397538Y-45111902D01*
X72417147Y-45165751D01*
X72485896Y-45181393D01*
X72487301Y-45181396D01*
X72552826Y-45194991D01*
X72561965Y-45224829D01*
X72519538Y-45258588D01*
X72472202Y-45265504D01*
X72410196Y-45284913D01*
X72397538Y-45326311D01*
X72421506Y-45377129D01*
X72484405Y-45389877D01*
X72554271Y-45408001D01*
X72571273Y-45441998D01*
X72541828Y-45476042D01*
X72470962Y-45493633D01*
X72384878Y-45494329D01*
X72309780Y-45477688D01*
X72273045Y-45447024D01*
X72265145Y-45389279D01*
X72262665Y-45286086D01*
X72265448Y-45177736D01*
X72275924Y-44955541D01*
X72423598Y-44944856D01*
X72520060Y-44943719D01*
X72563831Y-44961798D01*
G37*
G36*
X73830108Y-44975752D02*
G01*
X73901511Y-45078544D01*
X73916251Y-45103215D01*
X74013270Y-45268263D01*
X74030643Y-45111902D01*
X74052242Y-45003455D01*
X74087249Y-44957844D01*
X74100137Y-44955541D01*
X74128053Y-44970507D01*
X74146262Y-45023352D01*
X74157519Y-45125997D01*
X74162406Y-45224829D01*
X74165866Y-45361137D01*
X74161736Y-45442079D01*
X74147314Y-45481611D01*
X74119897Y-45493690D01*
X74110285Y-45494056D01*
X74055023Y-45465056D01*
X73984431Y-45387772D01*
X73943776Y-45329008D01*
X73839535Y-45164022D01*
X73828945Y-45329070D01*
X73813757Y-45439945D01*
X73784831Y-45489671D01*
X73768137Y-45494118D01*
X73742162Y-45479464D01*
X73726583Y-45427638D01*
X73719268Y-45326840D01*
X73717921Y-45216143D01*
X73723937Y-45056043D01*
X73743312Y-44963368D01*
X73778039Y-44936982D01*
X73830108Y-44975752D01*
G37*
G36*
X70537429Y-44048727D02*
G01*
X70598696Y-44082115D01*
X70603615Y-44122300D01*
X70559636Y-44148528D01*
X70502090Y-44147160D01*
X70434417Y-44149203D01*
X70418395Y-44182667D01*
X70452205Y-44234579D01*
X70521424Y-44285046D01*
X70603888Y-44355936D01*
X70625445Y-44431498D01*
X70596164Y-44518017D01*
X70521208Y-44572690D01*
X70419910Y-44588242D01*
X70311601Y-44557395D01*
X70303305Y-44552759D01*
X70260001Y-44509225D01*
X70274784Y-44475307D01*
X70336286Y-44463055D01*
X70382216Y-44469084D01*
X70453510Y-44470258D01*
X70505710Y-44448946D01*
X70522856Y-44417655D01*
X70488991Y-44388894D01*
X70485897Y-44387821D01*
X70429150Y-44353288D01*
X70358361Y-44292020D01*
X70356784Y-44290449D01*
X70303379Y-44224498D01*
X70299492Y-44169483D01*
X70313649Y-44137258D01*
X70383547Y-44058203D01*
X70482051Y-44039126D01*
X70537429Y-44048727D01*
G37*
G36*
X70878042Y-44951260D02*
G01*
X70894092Y-44998764D01*
X70901761Y-45093020D01*
X70903420Y-45216143D01*
X70897021Y-45376821D01*
X70876629Y-45470178D01*
X70840455Y-45497305D01*
X70786707Y-45459296D01*
X70713595Y-45357242D01*
X70702289Y-45338855D01*
X70644559Y-45251067D01*
X70598669Y-45194270D01*
X70582011Y-45182494D01*
X70566476Y-45212866D01*
X70557152Y-45290981D01*
X70555951Y-45337757D01*
X70549130Y-45440816D01*
X70525937Y-45487760D01*
X70503831Y-45494118D01*
X70477088Y-45481025D01*
X70461039Y-45433521D01*
X70453369Y-45339265D01*
X70451710Y-45216143D01*
X70457263Y-45056978D01*
X70476223Y-44965116D01*
X70512046Y-44939082D01*
X70568188Y-44977401D01*
X70648102Y-45078597D01*
X70676642Y-45120125D01*
X70799179Y-45302082D01*
X70799179Y-45120125D01*
X70804299Y-45008008D01*
X70822146Y-44951773D01*
X70851300Y-44938167D01*
X70878042Y-44951260D01*
G37*
G36*
X74491784Y-44039564D02*
G01*
X74493721Y-44063086D01*
X74455796Y-44118919D01*
X74420156Y-44163993D01*
X74316472Y-44293238D01*
X74438345Y-44441968D01*
X74504732Y-44526779D01*
X74528793Y-44571851D01*
X74514856Y-44588952D01*
X74493040Y-44590698D01*
X74427950Y-44566792D01*
X74347610Y-44507142D01*
X74323806Y-44483921D01*
X74221751Y-44377144D01*
X74204378Y-44472368D01*
X74173619Y-44554182D01*
X74127530Y-44585447D01*
X74089279Y-44568257D01*
X74077636Y-44524091D01*
X74069134Y-44429831D01*
X74065433Y-44304864D01*
X74065390Y-44289558D01*
X74067104Y-44158103D01*
X74074891Y-44081560D01*
X74092719Y-44045379D01*
X74124556Y-44035011D01*
X74134884Y-44034747D01*
X74184272Y-44049718D01*
X74203190Y-44106782D01*
X74204763Y-44147675D01*
X74205148Y-44260602D01*
X74294149Y-44147675D01*
X74366736Y-44075993D01*
X74437459Y-44037075D01*
X74453495Y-44034747D01*
X74491784Y-44039564D01*
G37*
G36*
X71356121Y-44973444D02*
G01*
X71401459Y-45021535D01*
X71403036Y-45058236D01*
X71376167Y-45089073D01*
X71320752Y-45078320D01*
X71296007Y-45067642D01*
X71226276Y-45046568D01*
X71175021Y-45071775D01*
X71142567Y-45108314D01*
X71090106Y-45182882D01*
X71085434Y-45238431D01*
X71128192Y-45306055D01*
X71140119Y-45320948D01*
X71208061Y-45376521D01*
X71279107Y-45374576D01*
X71344648Y-45339444D01*
X71342640Y-45302593D01*
X71282140Y-45274654D01*
X71231941Y-45246592D01*
X71239108Y-45213640D01*
X71293691Y-45188165D01*
X71357181Y-45181396D01*
X71430082Y-45190503D01*
X71456554Y-45232614D01*
X71459371Y-45283666D01*
X71431129Y-45389959D01*
X71358204Y-45460106D01*
X71258292Y-45488586D01*
X71149093Y-45469876D01*
X71058202Y-45408830D01*
X70990503Y-45302964D01*
X70977336Y-45190535D01*
X71009415Y-45085115D01*
X71077454Y-45000273D01*
X71172167Y-44949583D01*
X71284267Y-44946614D01*
X71356121Y-44973444D01*
G37*
G36*
X73329011Y-44078027D02*
G01*
X73380941Y-44165257D01*
X73439143Y-44288056D01*
X73496097Y-44431134D01*
X73527025Y-44521874D01*
X73526111Y-44576704D01*
X73489787Y-44591180D01*
X73439138Y-44565418D01*
X73405199Y-44521204D01*
X73340633Y-44464290D01*
X73283584Y-44451710D01*
X73199419Y-44479786D01*
X73161970Y-44521204D01*
X73119099Y-44567531D01*
X73065706Y-44592285D01*
X73027926Y-44586120D01*
X73022982Y-44570909D01*
X73035462Y-44531734D01*
X73068622Y-44445159D01*
X73110134Y-44342401D01*
X73233001Y-44342401D01*
X73255743Y-44378306D01*
X73283584Y-44382216D01*
X73329432Y-44358934D01*
X73335173Y-44338783D01*
X73317111Y-44271306D01*
X73305261Y-44249002D01*
X73276833Y-44223713D01*
X73253673Y-44260531D01*
X73233001Y-44342401D01*
X73110134Y-44342401D01*
X73116043Y-44327773D01*
X73131207Y-44291153D01*
X73198937Y-44143658D01*
X73252475Y-44061497D01*
X73290870Y-44041653D01*
X73329011Y-44078027D01*
G37*
G36*
X72405226Y-44050131D02*
G01*
X72484437Y-44104280D01*
X72485289Y-44105217D01*
X72528184Y-44161017D01*
X72529846Y-44209226D01*
X72494689Y-44279116D01*
X72458703Y-44352311D01*
X72462501Y-44403529D01*
X72504268Y-44464356D01*
X72558338Y-44541059D01*
X72564886Y-44579467D01*
X72525305Y-44590648D01*
X72520192Y-44590698D01*
X72467862Y-44564749D01*
X72403359Y-44500612D01*
X72389891Y-44483256D01*
X72310671Y-44375815D01*
X72293297Y-44471703D01*
X72263935Y-44549227D01*
X72221087Y-44584162D01*
X72180642Y-44566878D01*
X72169913Y-44546494D01*
X72161424Y-44487109D01*
X72158552Y-44382647D01*
X72161208Y-44274316D01*
X72164312Y-44208482D01*
X72293297Y-44208482D01*
X72315023Y-44265077D01*
X72345418Y-44277976D01*
X72387864Y-44249007D01*
X72397538Y-44208482D01*
X72375812Y-44151886D01*
X72345418Y-44138988D01*
X72302971Y-44167956D01*
X72293297Y-44208482D01*
X72164312Y-44208482D01*
X72171683Y-44052121D01*
X72295073Y-44041748D01*
X72405226Y-44050131D01*
G37*
G36*
X72871203Y-44056755D02*
G01*
X72935916Y-44117175D01*
X72943573Y-44207599D01*
X72942280Y-44212843D01*
X72947907Y-44296607D01*
X72972926Y-44337124D01*
X73014201Y-44389569D01*
X73022982Y-44412804D01*
X72991211Y-44484942D01*
X72907794Y-44544811D01*
X72790581Y-44579740D01*
X72787222Y-44580204D01*
X72640766Y-44599848D01*
X72640766Y-44416963D01*
X72745007Y-44416963D01*
X72762593Y-44473992D01*
X72805814Y-44479842D01*
X72857507Y-44445580D01*
X72866621Y-44416963D01*
X72837736Y-44367901D01*
X72805814Y-44354084D01*
X72756562Y-44366171D01*
X72745007Y-44416963D01*
X72640766Y-44416963D01*
X72640766Y-44317298D01*
X72640766Y-44191108D01*
X72745007Y-44191108D01*
X72772821Y-44237175D01*
X72797127Y-44243229D01*
X72843194Y-44215415D01*
X72849248Y-44191108D01*
X72821434Y-44145042D01*
X72797127Y-44138988D01*
X72751061Y-44166802D01*
X72745007Y-44191108D01*
X72640766Y-44191108D01*
X72640766Y-44034747D01*
X72758126Y-44034747D01*
X72871203Y-44056755D01*
G37*
G36*
X74548248Y-44955628D02*
G01*
X74615721Y-44997596D01*
X74646447Y-45048451D01*
X74640929Y-45073571D01*
X74604777Y-45097091D01*
X74567795Y-45075971D01*
X74492982Y-45051997D01*
X74415590Y-45079729D01*
X74362586Y-45147974D01*
X74357865Y-45163102D01*
X74356169Y-45263700D01*
X74395179Y-45341039D01*
X74459491Y-45383355D01*
X74533702Y-45378889D01*
X74586594Y-45337757D01*
X74608975Y-45297820D01*
X74572959Y-45285922D01*
X74556102Y-45285636D01*
X74496190Y-45264888D01*
X74482353Y-45233516D01*
X74508725Y-45194967D01*
X74592891Y-45181490D01*
X74603967Y-45181396D01*
X74686280Y-45187956D01*
X74719963Y-45217183D01*
X74725582Y-45266909D01*
X74695163Y-45368994D01*
X74617635Y-45445733D01*
X74513591Y-45487456D01*
X74403627Y-45484493D01*
X74334198Y-45450684D01*
X74270948Y-45372826D01*
X74229999Y-45268679D01*
X74223577Y-45172172D01*
X74227904Y-45155637D01*
X74282996Y-45059385D01*
X74363823Y-44980370D01*
X74447302Y-44939821D01*
X74464395Y-44938167D01*
X74548248Y-44955628D01*
G37*
G36*
X73275331Y-44965562D02*
G01*
X73338377Y-45004053D01*
X73392040Y-45053201D01*
X73402977Y-45094830D01*
X73374832Y-45158723D01*
X73360471Y-45184611D01*
X73321928Y-45260785D01*
X73320060Y-45308036D01*
X73356312Y-45357340D01*
X73369158Y-45371127D01*
X73427908Y-45444056D01*
X73431072Y-45482642D01*
X73379192Y-45493518D01*
X73379138Y-45493517D01*
X73321258Y-45466508D01*
X73254550Y-45400382D01*
X73240151Y-45381079D01*
X73161970Y-45269242D01*
X73161970Y-45381680D01*
X73152906Y-45461358D01*
X73117876Y-45491641D01*
X73091015Y-45494118D01*
X73055496Y-45489065D01*
X73035242Y-45464405D01*
X73027032Y-45405884D01*
X73027648Y-45299247D01*
X73030208Y-45224829D01*
X73034573Y-45109006D01*
X73161970Y-45109006D01*
X73184043Y-45168738D01*
X73216638Y-45181396D01*
X73258386Y-45155344D01*
X73260072Y-45123468D01*
X73231055Y-45065548D01*
X73190907Y-45052607D01*
X73163888Y-45088221D01*
X73161970Y-45109006D01*
X73034573Y-45109006D01*
X73040356Y-44955541D01*
X73147269Y-44945101D01*
X73275331Y-44965562D01*
G37*
G36*
X70621683Y-40636757D02*
G01*
X70653320Y-40671962D01*
X70666419Y-40755532D01*
X70666781Y-40759850D01*
X70676937Y-40839343D01*
X70703295Y-40878930D01*
X70765735Y-40894909D01*
X70838421Y-40900570D01*
X70936708Y-40904316D01*
X70986997Y-40889919D01*
X71010615Y-40844073D01*
X71022814Y-40785525D01*
X71044755Y-40702693D01*
X71080094Y-40670872D01*
X71139934Y-40670865D01*
X71201113Y-40686642D01*
X71230868Y-40729168D01*
X71243643Y-40819531D01*
X71243872Y-40822611D01*
X71256065Y-40913913D01*
X71288775Y-40962215D01*
X71362884Y-40992298D01*
X71394087Y-41000883D01*
X71483868Y-41021453D01*
X71533374Y-41012467D01*
X71569277Y-40963012D01*
X71589962Y-40920748D01*
X71637995Y-40835700D01*
X71684530Y-40807394D01*
X71749877Y-40826592D01*
X71771971Y-40837965D01*
X71814327Y-40874634D01*
X71817326Y-40933723D01*
X71805440Y-40981900D01*
X71787044Y-41071770D01*
X71804592Y-41130238D01*
X71869745Y-41180341D01*
X71919510Y-41207232D01*
X71990107Y-41239742D01*
X72036355Y-41237217D01*
X72085361Y-41192002D01*
X72119601Y-41150706D01*
X72181522Y-41081474D01*
X72225520Y-41060011D01*
X72274090Y-41077555D01*
X72287109Y-41085458D01*
X72343855Y-41128456D01*
X72358003Y-41174437D01*
X72332253Y-41246790D01*
X72310686Y-41289710D01*
X72281688Y-41354367D01*
X72286220Y-41398624D01*
X72333024Y-41446486D01*
X72381561Y-41484270D01*
X72504541Y-41578071D01*
X72598714Y-41487937D01*
X72663004Y-41430905D01*
X72706165Y-41418372D01*
X72756586Y-41446081D01*
X72776865Y-41461222D01*
X72860843Y-41524640D01*
X72785552Y-41620358D01*
X72726943Y-41706766D01*
X72718625Y-41771886D01*
X72762099Y-41842080D01*
X72800563Y-41884024D01*
X72890867Y-41978281D01*
X73003509Y-41911820D01*
X73079011Y-41870417D01*
X73122846Y-41865370D01*
X73162937Y-41897282D01*
X73179735Y-41915618D01*
X73217005Y-41963003D01*
X73217523Y-42001673D01*
X73176319Y-42055365D01*
X73143126Y-42090454D01*
X73042934Y-42195032D01*
X73109059Y-42317819D01*
X73157873Y-42392681D01*
X73211632Y-42422943D01*
X73290821Y-42413317D01*
X73383789Y-42381009D01*
X73438457Y-42390947D01*
X73482163Y-42456282D01*
X73507681Y-42528341D01*
X73495164Y-42561349D01*
X73483435Y-42566671D01*
X73425250Y-42598666D01*
X73370796Y-42638924D01*
X73327490Y-42684370D01*
X73318771Y-42736700D01*
X73340399Y-42824055D01*
X73342086Y-42829479D01*
X73373183Y-42913721D01*
X73412398Y-42949541D01*
X73485621Y-42954286D01*
X73524627Y-42951775D01*
X73614441Y-42948783D01*
X73654823Y-42965851D01*
X73665461Y-43015819D01*
X73665801Y-43043841D01*
X73654353Y-43118231D01*
X73606446Y-43159753D01*
X73550326Y-43179217D01*
X73472693Y-43210058D01*
X73449184Y-43250673D01*
X73454297Y-43284759D01*
X73470932Y-43382277D01*
X73474218Y-43435363D01*
X73492220Y-43496306D01*
X73556545Y-43513536D01*
X73558718Y-43513543D01*
X73675082Y-43527827D01*
X73736537Y-43575133D01*
X73752668Y-43651409D01*
X73747207Y-43707796D01*
X73719300Y-43739614D01*
X73651661Y-43758008D01*
X73570247Y-43769003D01*
X73424878Y-43785809D01*
X73335207Y-43788823D01*
X73287763Y-43770974D01*
X73269074Y-43725191D01*
X73265671Y-43644404D01*
X73265608Y-43609097D01*
X73230537Y-43239543D01*
X73131388Y-42877930D01*
X72973570Y-42531344D01*
X72762492Y-42206873D01*
X72503564Y-41911603D01*
X72202197Y-41652619D01*
X71863799Y-41437008D01*
X71493780Y-41271856D01*
X71476744Y-41265820D01*
X71364726Y-41228186D01*
X71268127Y-41201737D01*
X71170660Y-41184549D01*
X71056036Y-41174699D01*
X70907965Y-41170261D01*
X70710160Y-41169313D01*
X70660192Y-41169379D01*
X70448718Y-41170673D01*
X70290327Y-41174969D01*
X70168617Y-41184224D01*
X70067186Y-41200394D01*
X69969631Y-41225436D01*
X69859548Y-41261308D01*
X69843639Y-41266807D01*
X69670878Y-41334652D01*
X69484180Y-41420166D01*
X69323700Y-41504943D01*
X69322435Y-41505683D01*
X69144078Y-41628088D01*
X68951362Y-41790064D01*
X68762142Y-41974023D01*
X68594270Y-42162375D01*
X68465600Y-42337532D01*
X68446762Y-42368373D01*
X68367015Y-42507116D01*
X68321918Y-42597176D01*
X68309571Y-42648975D01*
X68328073Y-42672936D01*
X68375523Y-42679480D01*
X68389990Y-42679617D01*
X68473836Y-42689034D01*
X68597232Y-42713714D01*
X68732490Y-42748052D01*
X68974966Y-42816487D01*
X69036060Y-42743848D01*
X69073224Y-42705045D01*
X69113177Y-42688770D01*
X69176183Y-42693552D01*
X69282505Y-42717920D01*
X69307339Y-42724155D01*
X69423861Y-42751854D01*
X69495706Y-42759969D01*
X69545395Y-42746641D01*
X69595449Y-42710007D01*
X69607961Y-42699310D01*
X69661659Y-42647346D01*
X69681520Y-42598166D01*
X69673248Y-42524710D01*
X69658091Y-42461447D01*
X69627032Y-42323056D01*
X69623135Y-42232692D01*
X69653011Y-42171997D01*
X69723272Y-42122614D01*
X69792412Y-42088501D01*
X69967040Y-42006710D01*
X70117937Y-42154804D01*
X70216496Y-42242708D01*
X70292022Y-42285026D01*
X70363003Y-42291900D01*
X70367035Y-42291463D01*
X70427832Y-42274699D01*
X70473955Y-42230517D01*
X70519430Y-42142651D01*
X70541665Y-42088920D01*
X70618094Y-41897811D01*
X70800466Y-41887137D01*
X70910103Y-41887146D01*
X70991718Y-41898817D01*
X71016926Y-41910551D01*
X71041901Y-41961322D01*
X71070979Y-42057057D01*
X71091048Y-42144486D01*
X71119074Y-42261777D01*
X71150933Y-42328947D01*
X71197651Y-42364994D01*
X71225238Y-42375718D01*
X71287185Y-42387556D01*
X71347314Y-42371131D01*
X71426461Y-42318335D01*
X71477495Y-42277553D01*
X71569707Y-42207391D01*
X71641003Y-42176860D01*
X71710716Y-42187657D01*
X71798176Y-42241481D01*
X71890411Y-42313825D01*
X71991354Y-42395474D01*
X71911898Y-42607938D01*
X71870235Y-42723483D01*
X71852636Y-42793937D01*
X71857912Y-42838950D01*
X71884874Y-42878172D01*
X71894865Y-42889378D01*
X71939275Y-42927359D01*
X71996691Y-42944307D01*
X72088336Y-42943840D01*
X72171005Y-42936458D01*
X72384723Y-42914562D01*
X72461152Y-43114282D01*
X72499673Y-43214536D01*
X72516107Y-43280660D01*
X72503068Y-43329968D01*
X72453172Y-43379771D01*
X72359035Y-43447382D01*
X72302221Y-43486866D01*
X72217664Y-43566354D01*
X72189484Y-43654181D01*
X72189294Y-43662952D01*
X72186056Y-43717554D01*
X72165524Y-43745500D01*
X72110952Y-43754090D01*
X72005597Y-43750628D01*
X71990086Y-43749819D01*
X71791115Y-43739398D01*
X71765216Y-43586884D01*
X71690829Y-43347365D01*
X71557066Y-43124776D01*
X71373951Y-42932402D01*
X71164022Y-42790057D01*
X71071128Y-42745368D01*
X70983973Y-42717808D01*
X70880691Y-42703362D01*
X70739415Y-42698012D01*
X70660192Y-42697505D01*
X70489468Y-42700217D01*
X70366381Y-42711321D01*
X70269249Y-42734328D01*
X70176387Y-42772747D01*
X70166964Y-42777344D01*
X69997000Y-42885280D01*
X69833562Y-43031002D01*
X69700343Y-43191681D01*
X69649856Y-43275558D01*
X69583319Y-43405981D01*
X69696260Y-43492125D01*
X69825247Y-43579251D01*
X69939749Y-43623171D01*
X70065339Y-43628931D01*
X70227588Y-43601576D01*
X70238538Y-43599108D01*
X70483612Y-43556683D01*
X70726574Y-43538696D01*
X70952269Y-43544577D01*
X71145546Y-43573761D01*
X71291251Y-43625679D01*
X71314366Y-43639403D01*
X71366590Y-43684986D01*
X71359353Y-43715845D01*
X71290275Y-43732686D01*
X71156981Y-43736212D01*
X71007916Y-43730231D01*
X70704872Y-43731226D01*
X70352612Y-43765037D01*
X70278905Y-43775432D01*
X70092103Y-43802016D01*
X69951506Y-43814367D01*
X69841114Y-43806926D01*
X69744930Y-43774137D01*
X69646956Y-43710444D01*
X69531195Y-43610289D01*
X69381648Y-43468115D01*
X69374556Y-43461301D01*
X69252649Y-43348948D01*
X69136393Y-43250070D01*
X69042400Y-43178413D01*
X69003220Y-43154006D01*
X68928617Y-43119742D01*
X68883193Y-43124069D01*
X68837294Y-43174821D01*
X68816890Y-43203230D01*
X68770814Y-43278496D01*
X68759103Y-43345045D01*
X68777118Y-43437030D01*
X68782490Y-43456538D01*
X68808433Y-43581813D01*
X68826692Y-43729559D01*
X68830695Y-43793153D01*
X68836292Y-43897136D01*
X68853732Y-43954224D01*
X68898495Y-43974460D01*
X68986064Y-43967885D01*
X69077565Y-43953290D01*
X69101142Y-43981443D01*
X69142869Y-44060524D01*
X69196571Y-44176361D01*
X69256072Y-44314785D01*
X69315196Y-44461626D01*
X69367766Y-44602713D01*
X69393224Y-44677565D01*
X69412109Y-44722693D01*
X69435440Y-44715511D01*
X69473330Y-44664908D01*
X69515633Y-44588414D01*
X69566868Y-44473418D01*
X69606861Y-44369559D01*
X69682806Y-44156361D01*
X69685042Y-44387807D01*
X69668468Y-44611552D01*
X69620672Y-44831626D01*
X69618232Y-44839517D01*
X69583200Y-44952406D01*
X69558199Y-45035121D01*
X69548739Y-45069360D01*
X69575289Y-45061921D01*
X69640793Y-45031060D01*
X69650806Y-45025927D01*
X69727073Y-44989581D01*
X69773648Y-44973013D01*
X69775181Y-44972914D01*
X69786769Y-45003334D01*
X69768904Y-45091668D01*
X69722919Y-45233530D01*
X69650147Y-45424532D01*
X69602664Y-45540614D01*
X69500355Y-45797536D01*
X69432114Y-45996506D01*
X69397351Y-46139807D01*
X69395477Y-46229721D01*
X69416110Y-46264034D01*
X69547249Y-46318349D01*
X69719855Y-46348607D01*
X69910039Y-46354372D01*
X70093914Y-46335210D01*
X70247591Y-46290685D01*
X70270859Y-46279604D01*
X70345525Y-46245717D01*
X70377233Y-46248040D01*
X70382216Y-46270777D01*
X70368609Y-46320428D01*
X70320728Y-46361175D01*
X70227988Y-46398338D01*
X70079800Y-46437238D01*
X70027496Y-46449041D01*
X69877727Y-46478714D01*
X69771857Y-46489301D01*
X69687245Y-46481763D01*
X69627907Y-46466015D01*
X69365586Y-46354724D01*
X69105165Y-46194208D01*
X68881752Y-46009207D01*
X68749807Y-45887808D01*
X68661513Y-45819968D01*
X68616528Y-45805447D01*
X68610123Y-45819970D01*
X68622229Y-45857335D01*
X68652297Y-45933795D01*
X68662213Y-45957769D01*
X68744788Y-46095148D01*
X68874984Y-46240833D01*
X69036048Y-46376962D01*
X69092197Y-46416135D01*
X69222869Y-46502609D01*
X69190554Y-46753038D01*
X69175121Y-46883222D01*
X69172446Y-46962653D01*
X69185418Y-47009364D01*
X69216927Y-47041391D01*
X69239201Y-47056658D01*
X69328775Y-47121151D01*
X69401297Y-47179344D01*
X69482432Y-47248837D01*
X69406488Y-47431259D01*
X69330543Y-47613680D01*
X68886339Y-47613680D01*
X68442134Y-47613680D01*
X68318491Y-47240151D01*
X68235884Y-46983841D01*
X68176239Y-46779277D01*
X68137292Y-46613453D01*
X68116778Y-46473360D01*
X68112435Y-46345992D01*
X68121998Y-46218342D01*
X68130143Y-46157955D01*
X68155882Y-46013206D01*
X68190108Y-45906886D01*
X68245924Y-45809240D01*
X68335407Y-45691784D01*
X68437983Y-45552062D01*
X68532708Y-45400950D01*
X68610552Y-45255230D01*
X68662485Y-45131684D01*
X68679617Y-45052029D01*
X68663650Y-45047186D01*
X68622058Y-45092355D01*
X68571553Y-45165906D01*
X68497052Y-45270215D01*
X68391379Y-45400467D01*
X68273145Y-45534119D01*
X68228477Y-45581438D01*
X68139155Y-45674222D01*
X68074023Y-45747955D01*
X68028145Y-45816304D01*
X67996585Y-45892933D01*
X67974407Y-45991508D01*
X67956676Y-46125694D01*
X67938456Y-46309158D01*
X67928814Y-46411099D01*
X67905665Y-46568040D01*
X67862656Y-46704423D01*
X67788540Y-46853827D01*
X67769051Y-46888128D01*
X67690850Y-47037602D01*
X67656819Y-47146415D01*
X67666735Y-47227374D01*
X67720373Y-47293284D01*
X67761459Y-47323253D01*
X67821559Y-47382376D01*
X67844273Y-47469765D01*
X67845691Y-47513436D01*
X67845691Y-47648427D01*
X67246307Y-47648299D01*
X66646922Y-47648170D01*
X66533995Y-47429757D01*
X66476645Y-47311322D01*
X66448668Y-47229974D01*
X66560055Y-47229974D01*
X66643802Y-47191816D01*
X66723660Y-47172609D01*
X66800141Y-47204627D01*
X66808550Y-47210394D01*
X66867552Y-47245731D01*
X66898129Y-47231171D01*
X66921616Y-47171116D01*
X66930468Y-47110937D01*
X66938619Y-46991785D01*
X66945697Y-46824182D01*
X66951329Y-46618648D01*
X66955145Y-46385704D01*
X66956662Y-46179775D01*
X66957432Y-45898370D01*
X66956800Y-45681248D01*
X66953504Y-45523198D01*
X66946280Y-45419009D01*
X66933867Y-45363470D01*
X66915002Y-45351370D01*
X66888423Y-45377499D01*
X66852867Y-45436645D01*
X66807071Y-45523598D01*
X66800677Y-45535945D01*
X66763502Y-45634917D01*
X66723076Y-45787667D01*
X66682042Y-45978730D01*
X66643045Y-46192640D01*
X66608729Y-46413932D01*
X66581738Y-46627140D01*
X66564718Y-46816801D01*
X66560055Y-46943179D01*
X66560055Y-47229974D01*
X66448668Y-47229974D01*
X66442773Y-47212832D01*
X66426400Y-47107062D01*
X66421545Y-46966790D01*
X66421435Y-46917368D01*
X66428349Y-46742388D01*
X66446933Y-46530893D01*
X66474518Y-46301399D01*
X66508434Y-46072419D01*
X66546010Y-45862468D01*
X66584577Y-45690060D01*
X66611485Y-45599497D01*
X66664703Y-45471188D01*
X66733139Y-45332859D01*
X66758945Y-45286775D01*
X66804891Y-45201167D01*
X66831525Y-45123440D01*
X66842990Y-45030860D01*
X66843429Y-44900697D01*
X66841475Y-44833926D01*
X66833487Y-44634032D01*
X66824094Y-44492306D01*
X66811805Y-44397423D01*
X66795129Y-44338057D01*
X66772578Y-44302884D01*
X66771447Y-44301734D01*
X66721450Y-44282466D01*
X66656804Y-44270397D01*
X66985550Y-44270397D01*
X66988891Y-44417477D01*
X66996322Y-44545686D01*
X67007143Y-44640707D01*
X67020653Y-44688223D01*
X67028737Y-44689177D01*
X67043561Y-44653294D01*
X67074485Y-44565922D01*
X67116408Y-44441753D01*
X67147399Y-44347469D01*
X67202162Y-44190474D01*
X67259382Y-44044894D01*
X67310134Y-43932744D01*
X67330499Y-43895760D01*
X67378856Y-43821727D01*
X67404366Y-43801794D01*
X67419845Y-43830415D01*
X67426139Y-43854377D01*
X67451923Y-43918008D01*
X67488548Y-43924136D01*
X67543389Y-43870748D01*
X67587342Y-43810421D01*
X67665460Y-43696720D01*
X67747563Y-43577200D01*
X67759371Y-43560009D01*
X67809866Y-43470307D01*
X67832922Y-43396076D01*
X67832094Y-43377588D01*
X67813713Y-43303259D01*
X67795012Y-43222394D01*
X67772621Y-43122353D01*
X67900174Y-43197611D01*
X67984151Y-43243002D01*
X68038592Y-43253034D01*
X68092219Y-43230228D01*
X68113950Y-43216373D01*
X68200173Y-43159877D01*
X68073128Y-43073548D01*
X67918783Y-42980352D01*
X67764577Y-42907245D01*
X67630996Y-42863088D01*
X67565845Y-42854115D01*
X67477281Y-42883548D01*
X67373197Y-42965944D01*
X67265624Y-43090466D01*
X67206076Y-43178201D01*
X67107003Y-43389844D01*
X67035631Y-43657558D01*
X66994247Y-43972734D01*
X66993932Y-43976888D01*
X66986997Y-44118761D01*
X66985550Y-44270397D01*
X66656804Y-44270397D01*
X66620933Y-44263700D01*
X66488816Y-44248695D01*
X66444085Y-44245296D01*
X66245835Y-44222480D01*
X66114237Y-44184776D01*
X66047955Y-44131694D01*
X66038851Y-44096780D01*
X66013349Y-44032970D01*
X65951786Y-43955784D01*
X65876575Y-43889397D01*
X65818945Y-43859588D01*
X65751319Y-43810343D01*
X65731873Y-43755347D01*
X65724374Y-43727194D01*
X65768927Y-43727194D01*
X65777250Y-43764984D01*
X65830085Y-43790218D01*
X65925715Y-43807669D01*
X66035739Y-43827714D01*
X66121283Y-43851924D01*
X66144754Y-43862775D01*
X66213345Y-43893181D01*
X66242660Y-43877368D01*
X66239649Y-43852326D01*
X66196630Y-43804567D01*
X66109178Y-43752738D01*
X66000643Y-43708100D01*
X65894372Y-43681917D01*
X65883725Y-43680637D01*
X65801530Y-43685885D01*
X65768927Y-43727194D01*
X65724374Y-43727194D01*
X65710759Y-43676082D01*
X65688440Y-43636895D01*
X65658450Y-43563597D01*
X65664664Y-43539604D01*
X65726259Y-43539604D01*
X65755541Y-43573643D01*
X65804309Y-43583484D01*
X65879226Y-43598517D01*
X65986169Y-43636538D01*
X66056225Y-43667611D01*
X66169537Y-43721323D01*
X66235433Y-43745592D01*
X66269381Y-43740556D01*
X66286847Y-43706353D01*
X66296387Y-43669751D01*
X66292175Y-43560282D01*
X66265634Y-43502462D01*
X66237508Y-43411811D01*
X66255466Y-43321576D01*
X66309932Y-43255454D01*
X66373379Y-43235839D01*
X66454874Y-43211535D01*
X66492008Y-43181704D01*
X66517747Y-43129926D01*
X66487701Y-43078963D01*
X66481174Y-43072301D01*
X66430359Y-43037249D01*
X66368536Y-43042299D01*
X66322263Y-43059581D01*
X66226108Y-43084575D01*
X66146676Y-43063744D01*
X66144932Y-43062818D01*
X66058884Y-43038025D01*
X65987049Y-43051228D01*
X65949833Y-43095157D01*
X65952055Y-43131551D01*
X65946891Y-43199399D01*
X65922965Y-43224302D01*
X65870995Y-43274819D01*
X65809979Y-43359983D01*
X65756644Y-43452983D01*
X65727717Y-43527005D01*
X65726259Y-43539604D01*
X65664664Y-43539604D01*
X65685060Y-43460860D01*
X65744076Y-43359642D01*
X65793183Y-43276247D01*
X65815327Y-43215774D01*
X65813953Y-43202369D01*
X65822089Y-43160114D01*
X65848126Y-43131010D01*
X65895894Y-43064245D01*
X65876993Y-43008772D01*
X66145232Y-43008772D01*
X66166257Y-43038669D01*
X66217620Y-43059476D01*
X66276105Y-43016739D01*
X66282080Y-43009713D01*
X66303167Y-42971951D01*
X66270338Y-42958622D01*
X66234214Y-42957593D01*
X66159871Y-42971457D01*
X66145232Y-43008772D01*
X65876993Y-43008772D01*
X65874259Y-43000748D01*
X65830370Y-42965656D01*
X65771067Y-42905622D01*
X65772580Y-42836767D01*
X65813926Y-42836767D01*
X65826179Y-42886543D01*
X65865351Y-42920567D01*
X65880122Y-42922846D01*
X65931501Y-42912217D01*
X66029167Y-42884079D01*
X66153874Y-42844055D01*
X66180321Y-42835134D01*
X66349303Y-42784724D01*
X66479060Y-42764333D01*
X66583529Y-42769216D01*
X66683443Y-42777371D01*
X66756259Y-42771236D01*
X66768919Y-42766248D01*
X66777214Y-42729185D01*
X66742129Y-42672303D01*
X66679960Y-42611398D01*
X66607000Y-42562265D01*
X66539544Y-42540702D01*
X66536181Y-42540630D01*
X66472006Y-42521951D01*
X66455814Y-42490281D01*
X66434329Y-42479156D01*
X66373568Y-42518186D01*
X66325513Y-42559867D01*
X66146490Y-42683711D01*
X65905821Y-42783641D01*
X65839642Y-42803746D01*
X65813926Y-42836767D01*
X65772580Y-42836767D01*
X65772711Y-42830788D01*
X65823753Y-42745110D01*
X65871428Y-42661204D01*
X65890483Y-42592750D01*
X65909783Y-42528677D01*
X65956571Y-42428308D01*
X66018714Y-42316819D01*
X66090768Y-42190879D01*
X66131247Y-42093368D01*
X66147507Y-41995149D01*
X66146902Y-41867088D01*
X66144530Y-41818460D01*
X66154599Y-41681275D01*
X66207224Y-41571579D01*
X66311379Y-41477483D01*
X66467062Y-41391322D01*
X66606416Y-41328562D01*
X66696377Y-41297391D01*
X66748139Y-41295352D01*
X66772891Y-41319989D01*
X66774328Y-41323871D01*
X66813726Y-41341149D01*
X66890151Y-41329925D01*
X67010915Y-41320668D01*
X67114368Y-41338535D01*
X67199278Y-41379437D01*
X67301971Y-41449580D01*
X67406173Y-41534880D01*
X67495611Y-41621253D01*
X67554014Y-41694613D01*
X67567716Y-41730922D01*
X67585476Y-41783974D01*
X67631759Y-41873908D01*
X67688573Y-41968466D01*
X67773714Y-42109055D01*
X67863711Y-42269009D01*
X67914928Y-42366386D01*
X67970161Y-42471479D01*
X68013768Y-42546529D01*
X68036356Y-42575375D01*
X68036407Y-42575376D01*
X68061156Y-42547810D01*
X68101603Y-42479888D01*
X68110019Y-42463931D01*
X68144053Y-42390653D01*
X68142192Y-42343590D01*
X68097281Y-42294170D01*
X68059487Y-42262187D01*
X67992503Y-42201300D01*
X67973111Y-42159032D01*
X67993482Y-42112072D01*
X68003930Y-42096783D01*
X68042034Y-42050110D01*
X68081350Y-42040552D01*
X68148240Y-42065559D01*
X68178599Y-42079885D01*
X68300661Y-42138092D01*
X68384649Y-42035325D01*
X68447927Y-41949464D01*
X68464055Y-41889334D01*
X68434266Y-41830783D01*
X68397246Y-41788891D01*
X68345951Y-41703144D01*
X68350827Y-41632762D01*
X68398605Y-41590421D01*
X68476015Y-41588793D01*
X68560502Y-41632967D01*
X68651911Y-41704870D01*
X68770005Y-41614795D01*
X68850959Y-41548803D01*
X68881747Y-41502344D01*
X68869043Y-41454973D01*
X68837083Y-41409309D01*
X68789391Y-41314004D01*
X68807194Y-41236831D01*
X68844665Y-41200289D01*
X68891012Y-41178242D01*
X68939320Y-41194766D01*
X69009836Y-41255782D01*
X69114201Y-41356267D01*
X69227005Y-41284845D01*
X69308611Y-41221446D01*
X69336047Y-41155484D01*
X69317021Y-41061974D01*
X69305528Y-41030363D01*
X69289027Y-40962794D01*
X69318383Y-40925100D01*
X69365612Y-40904319D01*
X69443302Y-40885887D01*
X69472128Y-40904891D01*
X69501721Y-40957492D01*
X69544779Y-41016058D01*
X69591942Y-41063030D01*
X69643807Y-41072482D01*
X69729867Y-41049657D01*
X69731250Y-41049201D01*
X69812364Y-41015540D01*
X69851010Y-40968978D01*
X69866119Y-40883562D01*
X69867803Y-40862022D01*
X69879488Y-40769332D01*
X69904836Y-40727145D01*
X69956380Y-40716480D01*
X69963953Y-40716416D01*
X70029381Y-40732441D01*
X70069720Y-40792606D01*
X70082904Y-40832821D01*
X70108750Y-40906542D01*
X70144944Y-40935441D01*
X70216054Y-40933006D01*
X70254625Y-40927106D01*
X70366003Y-40905601D01*
X70424912Y-40876876D01*
X70447944Y-40825948D01*
X70451710Y-40749112D01*
X70457846Y-40668267D01*
X70488304Y-40635472D01*
X70553854Y-40629549D01*
X70621683Y-40636757D01*
G37*
%TO.C,J8*%
X99250000Y-70675000D02*
X98000000Y-70675000D01*
X98960000Y-70965000D02*
X92990000Y-70965000D01*
X92990000Y-70965000D02*
X92990000Y-83585000D01*
X98950000Y-70975000D02*
X98200000Y-70975000D01*
X98200000Y-70975000D02*
X98200000Y-72775000D01*
X96700000Y-70975000D02*
X96700000Y-71725000D01*
X96700000Y-71725000D02*
X93750000Y-71725000D01*
X93750000Y-71725000D02*
X93750000Y-77275000D01*
X99250000Y-71925000D02*
X99250000Y-70675000D01*
X98950000Y-72775000D02*
X98950000Y-70975000D01*
X98200000Y-72775000D02*
X98950000Y-72775000D01*
X98950000Y-74275000D02*
X98200000Y-74275000D01*
X98200000Y-74275000D02*
X98200000Y-80275000D01*
X98950000Y-80275000D02*
X98950000Y-74275000D01*
X98200000Y-80275000D02*
X98950000Y-80275000D01*
X98950000Y-81775000D02*
X98200000Y-81775000D01*
X98200000Y-81775000D02*
X98200000Y-83575000D01*
X96700000Y-82825000D02*
X93750000Y-82825000D01*
X93750000Y-82825000D02*
X93750000Y-77275000D01*
X98950000Y-83575000D02*
X98950000Y-81775000D01*
X98200000Y-83575000D02*
X98950000Y-83575000D01*
X96700000Y-83575000D02*
X96700000Y-82825000D01*
X98960000Y-83585000D02*
X98960000Y-70965000D01*
X92990000Y-83585000D02*
X98960000Y-83585000D01*
%TO.C,R15*%
X68335000Y-62272936D02*
X68335000Y-62727064D01*
X66865000Y-62272936D02*
X66865000Y-62727064D01*
%TO.C,J1*%
X74850000Y-83750000D02*
X74850000Y-82500000D01*
X74560000Y-83460000D02*
X74560000Y-77490000D01*
X74560000Y-77490000D02*
X66940000Y-77490000D01*
X74550000Y-83450000D02*
X74550000Y-82700000D01*
X74550000Y-82700000D02*
X72750000Y-82700000D01*
X74550000Y-81200000D02*
X73800000Y-81200000D01*
X73800000Y-81200000D02*
X73800000Y-78250000D01*
X73800000Y-78250000D02*
X70750000Y-78250000D01*
X73600000Y-83750000D02*
X74850000Y-83750000D01*
X72750000Y-83450000D02*
X74550000Y-83450000D01*
X72750000Y-82700000D02*
X72750000Y-83450000D01*
X71250000Y-83450000D02*
X71250000Y-82700000D01*
X71250000Y-82700000D02*
X70250000Y-82700000D01*
X70250000Y-83450000D02*
X71250000Y-83450000D01*
X70250000Y-82700000D02*
X70250000Y-83450000D01*
X68750000Y-83450000D02*
X68750000Y-82700000D01*
X68750000Y-82700000D02*
X66950000Y-82700000D01*
X67700000Y-81200000D02*
X67700000Y-78250000D01*
X67700000Y-78250000D02*
X70750000Y-78250000D01*
X66950000Y-83450000D02*
X68750000Y-83450000D01*
X66950000Y-82700000D02*
X66950000Y-83450000D01*
X66950000Y-81200000D02*
X67700000Y-81200000D01*
X66940000Y-83460000D02*
X74560000Y-83460000D01*
X66940000Y-77490000D02*
X66940000Y-83460000D01*
%TO.C,R5*%
X93272936Y-57765000D02*
X93727064Y-57765000D01*
X93272936Y-59235000D02*
X93727064Y-59235000D01*
%TO.C,C3*%
X83461252Y-71135000D02*
X82938748Y-71135000D01*
X83461252Y-69665000D02*
X82938748Y-69665000D01*
%TO.C,R14*%
X83427064Y-74135000D02*
X82972936Y-74135000D01*
X83427064Y-72665000D02*
X82972936Y-72665000D01*
%TO.C,R2*%
X83185436Y-50265000D02*
X83639564Y-50265000D01*
X83185436Y-51735000D02*
X83639564Y-51735000D01*
%TO.C,J3*%
X91350000Y-83750000D02*
X91350000Y-82500000D01*
X91060000Y-83460000D02*
X91060000Y-77490000D01*
X91060000Y-77490000D02*
X80940000Y-77490000D01*
X91050000Y-83450000D02*
X91050000Y-82700000D01*
X91050000Y-82700000D02*
X89250000Y-82700000D01*
X91050000Y-81200000D02*
X90300000Y-81200000D01*
X90300000Y-81200000D02*
X90300000Y-78250000D01*
X90300000Y-78250000D02*
X86000000Y-78250000D01*
X90100000Y-83750000D02*
X91350000Y-83750000D01*
X89250000Y-83450000D02*
X91050000Y-83450000D01*
X89250000Y-82700000D02*
X89250000Y-83450000D01*
X87750000Y-83450000D02*
X87750000Y-82700000D01*
X87750000Y-82700000D02*
X84250000Y-82700000D01*
X84250000Y-83450000D02*
X87750000Y-83450000D01*
X84250000Y-82700000D02*
X84250000Y-83450000D01*
X82750000Y-83450000D02*
X82750000Y-82700000D01*
X82750000Y-82700000D02*
X80950000Y-82700000D01*
X81700000Y-81200000D02*
X81700000Y-78250000D01*
X81700000Y-78250000D02*
X86000000Y-78250000D01*
X80950000Y-83450000D02*
X82750000Y-83450000D01*
X80950000Y-82700000D02*
X80950000Y-83450000D01*
X80950000Y-81200000D02*
X81700000Y-81200000D01*
X80940000Y-83460000D02*
X91060000Y-83460000D01*
X80940000Y-77490000D02*
X80940000Y-83460000D01*
%TO.C,R10*%
X89427064Y-71135000D02*
X88972936Y-71135000D01*
X89427064Y-69665000D02*
X88972936Y-69665000D01*
%TO.C,R13*%
X86235000Y-33072936D02*
X86235000Y-33527064D01*
X84765000Y-33072936D02*
X84765000Y-33527064D01*
%TO.C,R7*%
X96472936Y-62665000D02*
X96927064Y-62665000D01*
X96472936Y-64135000D02*
X96927064Y-64135000D01*
%TO.C,U3*%
X83605000Y-33660000D02*
X78405000Y-33660000D01*
X78405000Y-33660000D02*
X78405000Y-38960000D01*
X83605000Y-35310000D02*
X83605000Y-33660000D01*
X83605000Y-38960000D02*
X83605000Y-37310000D01*
X78405000Y-38960000D02*
X83605000Y-38960000D01*
X83605000Y-35310000D02*
G75*
G03*
X83605000Y-37310000I0J-1000000D01*
G01*
%TO.C,R4*%
X88727064Y-51735000D02*
X88272936Y-51735000D01*
X88727064Y-50265000D02*
X88272936Y-50265000D01*
%TD*%
%LPC*%
D15*
%TO.C,J2*%
X73000000Y-35000000D03*
D16*
X70500000Y-35000000D03*
%TD*%
D17*
%TO.C,U2*%
X91675000Y-67305000D03*
X91675000Y-66035000D03*
X91675000Y-64765000D03*
X91675000Y-63495000D03*
X86725000Y-63495000D03*
X86725000Y-64765000D03*
X86725000Y-66035000D03*
X86725000Y-67305000D03*
%TD*%
D18*
%TO.C,J10*%
X104500000Y-76000000D03*
D19*
X104500000Y-78500000D03*
X104500000Y-81000000D03*
%TD*%
D20*
%TO.C,R18*%
X70000000Y-54087500D03*
X70000000Y-55912500D03*
%TD*%
D15*
%TO.C,J5*%
X103000000Y-41775000D03*
D16*
X100500000Y-41775000D03*
%TD*%
D21*
%TO.C,ESP1*%
X61900000Y-72915000D03*
D22*
X61900000Y-70375000D03*
X61900000Y-67835000D03*
X61900000Y-65295000D03*
X61900000Y-62755000D03*
X61900000Y-60215000D03*
X61900000Y-57675000D03*
X61900000Y-55135000D03*
X61900000Y-52595000D03*
X61900000Y-50055000D03*
X61900000Y-47515000D03*
X61900000Y-44975000D03*
X61900000Y-42435000D03*
X61900000Y-39895000D03*
X61900000Y-37355000D03*
X36500000Y-37355000D03*
X36500000Y-39895000D03*
X36500000Y-42435000D03*
X36500000Y-44975000D03*
X36500000Y-47515000D03*
X36500000Y-50055000D03*
X36500000Y-52595000D03*
X36500000Y-55135000D03*
X36500000Y-57675000D03*
X36500000Y-60215000D03*
X36500000Y-62755000D03*
X36500000Y-65295000D03*
X36500000Y-67835000D03*
X36500000Y-70375000D03*
X36500000Y-72915000D03*
%TD*%
D23*
%TO.C,C2*%
X89450000Y-53500000D03*
X87550000Y-53500000D03*
%TD*%
D24*
%TO.C,U5*%
X75200000Y-64650000D03*
X75700000Y-64650000D03*
X76200000Y-64650000D03*
X76700000Y-64650000D03*
X77200000Y-64650000D03*
X77200000Y-60350000D03*
X76700000Y-60350000D03*
X76200000Y-60350000D03*
X75700000Y-60350000D03*
X75200000Y-60350000D03*
%TD*%
D25*
%TO.C,C4*%
X72500000Y-51950000D03*
X72500000Y-50050000D03*
%TD*%
D26*
%TO.C,R8*%
X95787500Y-65900000D03*
X97612500Y-65900000D03*
%TD*%
D15*
%TO.C,J4*%
X103000000Y-35000000D03*
D16*
X100500000Y-35000000D03*
%TD*%
D26*
%TO.C,R11*%
X88287500Y-73400000D03*
X90112500Y-73400000D03*
%TD*%
%TO.C,R3*%
X87587500Y-48500000D03*
X89412500Y-48500000D03*
%TD*%
D27*
%TO.C,R1*%
X84325000Y-48500000D03*
X82500000Y-48500000D03*
%TD*%
D28*
%TO.C,C5*%
X72500000Y-61550000D03*
X72500000Y-63450000D03*
%TD*%
D15*
%TO.C,J7*%
X103000000Y-48575000D03*
D16*
X100500000Y-48575000D03*
%TD*%
D29*
%TO.C,U1*%
X74500000Y-70500000D03*
D30*
X71960000Y-70500000D03*
X69420000Y-70500000D03*
%TD*%
D24*
%TO.C,U4*%
X77200000Y-48850000D03*
X76700000Y-48850000D03*
X76200000Y-48850000D03*
X75700000Y-48850000D03*
X75200000Y-48850000D03*
X75200000Y-53150000D03*
X75700000Y-53150000D03*
X76200000Y-53150000D03*
X76700000Y-53150000D03*
X77200000Y-53150000D03*
%TD*%
D26*
%TO.C,R9*%
X95787500Y-68400000D03*
X97612500Y-68400000D03*
%TD*%
D20*
%TO.C,R19*%
X72500000Y-54087500D03*
X72500000Y-55912500D03*
%TD*%
D31*
%TO.C,R20*%
X105000000Y-70310000D03*
D32*
X105000000Y-62690000D03*
%TD*%
D26*
%TO.C,R6*%
X92587500Y-56000000D03*
X94412500Y-56000000D03*
%TD*%
D18*
%TO.C,J9*%
X91950000Y-33825000D03*
D19*
X91950000Y-36325000D03*
X91950000Y-38825000D03*
%TD*%
D20*
%TO.C,R17*%
X70000000Y-61587500D03*
X70000000Y-63412500D03*
%TD*%
D33*
%TO.C,R16*%
X70000000Y-51912500D03*
X70000000Y-50087500D03*
%TD*%
D31*
%TO.C,R21*%
X101500000Y-70310000D03*
D32*
X101500000Y-62690000D03*
%TD*%
D34*
%TO.C,C1*%
X82462500Y-53500000D03*
X84362500Y-53500000D03*
%TD*%
D15*
%TO.C,J6*%
X103000000Y-55375000D03*
D16*
X100500000Y-55375000D03*
%TD*%
D33*
%TO.C,R12*%
X85500000Y-39212500D03*
X85500000Y-37387500D03*
%TD*%
D18*
%TO.C,J8*%
X96500000Y-73525000D03*
D19*
X96500000Y-76025000D03*
X96500000Y-78525000D03*
X96500000Y-81025000D03*
%TD*%
D20*
%TO.C,R15*%
X67600000Y-61587500D03*
X67600000Y-63412500D03*
%TD*%
D15*
%TO.C,J1*%
X72000000Y-81000000D03*
D16*
X69500000Y-81000000D03*
%TD*%
D26*
%TO.C,R5*%
X92587500Y-58500000D03*
X94412500Y-58500000D03*
%TD*%
D23*
%TO.C,C3*%
X84150000Y-70400000D03*
X82250000Y-70400000D03*
%TD*%
D27*
%TO.C,R14*%
X84112500Y-73400000D03*
X82287500Y-73400000D03*
%TD*%
D26*
%TO.C,R2*%
X82500000Y-51000000D03*
X84325000Y-51000000D03*
%TD*%
D35*
%TO.C,J3*%
X88500000Y-81000000D03*
D36*
X86000000Y-81000000D03*
X83500000Y-81000000D03*
%TD*%
D27*
%TO.C,R10*%
X90112500Y-70400000D03*
X88287500Y-70400000D03*
%TD*%
D20*
%TO.C,R13*%
X85500000Y-32387500D03*
X85500000Y-34212500D03*
%TD*%
D26*
%TO.C,R7*%
X95787500Y-63400000D03*
X97612500Y-63400000D03*
%TD*%
D37*
%TO.C,U3*%
X82275000Y-32500000D03*
D38*
X79735000Y-32500000D03*
X79735000Y-40120000D03*
X82275000Y-40120000D03*
%TD*%
D27*
%TO.C,R4*%
X89412500Y-51000000D03*
X87587500Y-51000000D03*
%TD*%
%LPD*%
M02*
